Montserrat-Bold Italic.ufo
<glyph name="exclam" format="1">
  <advance width="314"/>
  <unicode hex="0021"/>
  <outline>
    <contour>
      <point x="246" y="268" type="line"/>
      <point x="377" y="700" type="line"/>
      <point x="107" y="700" type="line"/>
      <point x="66" y="268" type="line"/>
    </contour>
    <contour>
      <point x="196" y="-10"/>
      <point x="256" y="47"/>
      <point x="256" y="120" type="curve" smooth="yes"/>
      <point x="256" y="181"/>
      <point x="205" y="228"/>
      <point x="131" y="228" type="curve" smooth="yes"/>
      <point x="52" y="228"/>
      <point x="-8" y="175"/>
      <point x="-8" y="100" type="curve" smooth="yes"/>
      <point x="-8" y="39"/>
      <point x="43" y="-10"/>
      <point x="117" y="-10" type="curve" smooth="yes"/>
    </contour>
  </outline>
</glyph>
<glyph name="numbersign" format="1">
  <advance width="740"/>
  <unicode hex="0023"/>
  <outline>
    <contour>
      <point x="485" y="0" type="line"/>
      <point x="708" y="700" type="line"/>
      <point x="544" y="700" type="line"/>
      <point x="321" y="0" type="line"/>
    </contour>
    <contour>
      <point x="665" y="137" type="line"/>
      <point x="695" y="287" type="line"/>
      <point x="15" y="287" type="line"/>
      <point x="-15" y="137" type="line"/>
    </contour>
    <contour>
      <point x="226" y="0" type="line"/>
      <point x="449" y="700" type="line"/>
      <point x="285" y="700" type="line"/>
      <point x="62" y="0" type="line"/>
    </contour>
    <contour>
      <point x="755" y="413" type="line"/>
      <point x="785" y="563" type="line"/>
      <point x="105" y="563" type="line"/>
      <point x="75" y="413" type="line"/>
    </contour>
  </outline>
</glyph>
<glyph name="parenleft" format="1">
  <advance width="381"/>
  <unicode hex="0028"/>
  <outline>
    <contour>
      <point x="302" y="-194" type="line"/>
      <point x="268" y="-95"/>
      <point x="252" y="2"/>
      <point x="252" y="101" type="curve" smooth="yes"/>
      <point x="252" y="329"/>
      <point x="325" y="527"/>
      <point x="489" y="742" type="curve"/>
      <point x="266" y="742" type="line"/>
      <point x="115" y="574"/>
      <point x="33" y="349"/>
      <point x="33" y="113" type="curve" smooth="yes"/>
      <point x="33" y="-6"/>
      <point x="61" y="-130"/>
      <point x="94" y="-194" type="curve"/>
    </contour>
  </outline>
</glyph>
<glyph name="parenright" format="1">
  <advance width="381"/>
  <unicode hex="0029"/>
  <outline>
    <contour>
      <point x="116" y="-194" type="line"/>
      <point x="266" y="-26"/>
      <point x="349" y="199"/>
      <point x="349" y="435" type="curve" smooth="yes"/>
      <point x="349" y="554"/>
      <point x="321" y="678"/>
      <point x="288" y="742" type="curve"/>
      <point x="80" y="742" type="line"/>
      <point x="114" y="643"/>
      <point x="130" y="546"/>
      <point x="130" y="447" type="curve" smooth="yes"/>
      <point x="130" y="219"/>
      <point x="57" y="21"/>
      <point x="-107" y="-194" type="curve"/>
    </contour>
  </outline>
</glyph>
<glyph name="asterisk" format="1">
  <advance width="473"/>
  <unicode hex="002A"/>
  <outline>
    <contour>
      <point x="478" y="693" type="line"/>
      <point x="353" y="624" type="line"/>
      <point x="368" y="614" type="line"/>
      <point x="396" y="742" type="line"/>
      <point x="263" y="742" type="line"/>
      <point x="240" y="614" type="line"/>
      <point x="259" y="624" type="line"/>
      <point x="155" y="697" type="line"/>
      <point x="73" y="582" type="line"/>
      <point x="184" y="517" type="line"/>
      <point x="189" y="549" type="line"/>
      <point x="44" y="479" type="line"/>
      <point x="98" y="370" type="line"/>
      <point x="223" y="439" type="line"/>
      <point x="207" y="450" type="line"/>
      <point x="178" y="322" type="line"/>
      <point x="313" y="322" type="line"/>
      <point x="335" y="450" type="line"/>
      <point x="318" y="442" type="line"/>
      <point x="423" y="368" type="line"/>
      <point x="504" y="483" type="line"/>
      <point x="394" y="549" type="line"/>
      <point x="387" y="513" type="line"/>
      <point x="532" y="583" type="line"/>
    </contour>
  </outline>
</glyph>
<glyph name="plus" format="1">
  <advance width="620"/>
  <unicode hex="002B"/>
  <outline>
    <contour>
      <point x="366" y="105" type="line"/>
      <point x="464" y="595" type="line"/>
      <point x="284" y="595" type="line"/>
      <point x="186" y="105" type="line"/>
    </contour>
    <contour>
      <point x="563" y="265" type="line"/>
      <point x="597" y="435" type="line"/>
      <point x="87" y="435" type="line"/>
      <point x="53" y="265" type="line"/>
    </contour>
  </outline>
</glyph>
<glyph name="hyphen" format="1">
  <advance width="390"/>
  <unicode hex="002D"/>
  <outline>
    <contour>
      <point x="331" y="204" type="line"/>
      <point x="365" y="374" type="line"/>
      <point x="65" y="374" type="line"/>
      <point x="31" y="204" type="line"/>
    </contour>
  </outline>
</glyph>
<glyph name="period" format="1">
  <advance width="304"/>
  <unicode hex="002E"/>
  <outline>
    <contour>
      <point x="189" y="-10"/>
      <point x="253" y="45"/>
      <point x="253" y="129" type="curve" smooth="yes"/>
      <point x="253" y="200"/>
      <point x="204" y="248"/>
      <point x="130" y="248" type="curve" smooth="yes"/>
      <point x="51" y="248"/>
      <point x="-12" y="193"/>
      <point x="-12" y="109" type="curve" smooth="yes"/>
      <point x="-12" y="40"/>
      <point x="39" y="-10"/>
      <point x="112" y="-10" type="curve" smooth="yes"/>
    </contour>
  </outline>
</glyph>
<glyph name="zero" format="1">
  <advance width="684"/>
  <unicode hex="0030"/>
  <outline>
    <contour>
      <point x="520" y="-16"/>
      <point x="678" y="178"/>
      <point x="678" y="442" type="curve" smooth="yes"/>
      <point x="678" y="616"/>
      <point x="572" y="716"/>
      <point x="410" y="716" type="curve" smooth="yes"/>
      <point x="194" y="716"/>
      <point x="36" y="522"/>
      <point x="36" y="258" type="curve" smooth="yes"/>
      <point x="36" y="84"/>
      <point x="142" y="-16"/>
      <point x="304" y="-16" type="curve" smooth="yes"/>
    </contour>
    <contour>
      <point x="293" y="173"/>
      <point x="268" y="195"/>
      <point x="268" y="264" type="curve" smooth="yes"/>
      <point x="268" y="357"/>
      <point x="305" y="527"/>
      <point x="387" y="527" type="curve" smooth="yes"/>
      <point x="421" y="527"/>
      <point x="446" y="505"/>
      <point x="446" y="436" type="curve" smooth="yes"/>
      <point x="446" y="343"/>
      <point x="409" y="173"/>
      <point x="327" y="173" type="curve" smooth="yes"/>
    </contour>
  </outline>
</glyph>
<glyph name="one" format="1">
  <advance width="418"/>
  <unicode hex="0031"/>
  <outline>
    <contour>
      <point x="306" y="0" type="line"/>
      <point x="446" y="700" type="line"/>
      <point x="90" y="700" type="line"/>
      <point x="54" y="522" type="line"/>
      <point x="275" y="522" type="line"/>
      <point x="193" y="615" type="line"/>
      <point x="70" y="0" type="line"/>
    </contour>
  </outline>
</glyph>
<glyph name="two" format="1">
  <advance width="608"/>
  <unicode hex="0032"/>
  <outline>
    <contour>
      <point x="534" y="0" type="line"/>
      <point x="571" y="183" type="line"/>
      <point x="208" y="183" type="line"/>
      <point x="236" y="101" type="line"/>
      <point x="455" y="274" type="line" smooth="yes"/>
      <point x="572" y="366"/>
      <point x="615" y="431"/>
      <point x="615" y="520" type="curve" smooth="yes"/>
      <point x="615" y="635"/>
      <point x="502" y="716"/>
      <point x="348" y="716" type="curve" smooth="yes"/>
      <point x="214" y="716"/>
      <point x="101" y="654"/>
      <point x="48" y="560" type="curve"/>
      <point x="201" y="463" type="line"/>
      <point x="231" y="506"/>
      <point x="270" y="530"/>
      <point x="312" y="530" type="curve" smooth="yes"/>
      <point x="351" y="530"/>
      <point x="376" y="510"/>
      <point x="376" y="479" type="curve" smooth="yes"/>
      <point x="376" y="446"/>
      <point x="359" y="423"/>
      <point x="302" y="379" type="curve" smooth="yes"/>
      <point x="2" y="145" type="line"/>
      <point x="-27" y="0" type="line"/>
    </contour>
  </outline>
</glyph>
<glyph name="four" format="1">
  <advance width="712"/>
  <unicode hex="0034"/>
  <outline>
    <contour>
      <point x="677" y="120" type="line"/>
      <point x="714" y="303" type="line"/>
      <point x="172" y="303" type="line"/>
      <point x="283" y="270" type="line"/>
      <point x="647" y="700" type="line"/>
      <point x="397" y="700" type="line"/>
      <point x="22" y="270" type="line"/>
      <point x="-8" y="120" type="line"/>
    </contour>
    <contour>
      <point x="560" y="0" type="line"/>
      <point x="642" y="410" type="line"/>
      <point x="424" y="410" type="line"/>
      <point x="403" y="303" type="line"/>
      <point x="355" y="120" type="line"/>
      <point x="331" y="0" type="line"/>
    </contour>
  </outline>
</glyph>
<glyph name="six" format="1">
  <advance width="653"/>
  <unicode hex="0036"/>
  <outline>
    <contour>
      <point x="507" y="-16"/>
      <point x="633" y="88"/>
      <point x="633" y="251" type="curve" smooth="yes"/>
      <point x="633" y="383"/>
      <point x="526" y="453"/>
      <point x="417" y="453" type="curve" smooth="yes"/>
      <point x="329" y="453"/>
      <point x="270" y="415"/>
      <point x="225" y="337" type="curve"/>
      <point x="274" y="308" type="line"/>
      <point x="275" y="328"/>
      <point x="276" y="347"/>
      <point x="280" y="367" type="curve" smooth="yes"/>
      <point x="300" y="467"/>
      <point x="356" y="533"/>
      <point x="467" y="533" type="curve" smooth="yes"/>
      <point x="515" y="533"/>
      <point x="556" y="524"/>
      <point x="593" y="499" type="curve"/>
      <point x="696" y="661" type="line"/>
      <point x="649" y="696"/>
      <point x="565" y="716"/>
      <point x="480" y="716" type="curve" smooth="yes"/>
      <point x="168" y="716"/>
      <point x="33" y="473"/>
      <point x="33" y="268" type="curve" smooth="yes"/>
      <point x="33" y="80"/>
      <point x="157" y="-16"/>
      <point x="330" y="-16" type="curve" smooth="yes"/>
    </contour>
    <contour>
      <point x="285" y="147"/>
      <point x="262" y="174"/>
      <point x="262" y="212" type="curve" smooth="yes"/>
      <point x="262" y="259"/>
      <point x="296" y="290"/>
      <point x="340" y="290" type="curve" smooth="yes"/>
      <point x="381" y="290"/>
      <point x="406" y="266"/>
      <point x="406" y="227" type="curve" smooth="yes"/>
      <point x="406" y="177"/>
      <point x="370" y="147"/>
      <point x="328" y="147" type="curve" smooth="yes"/>
    </contour>
  </outline>
</glyph>
<glyph name="seven" format="1">
  <advance width="645"/>
  <unicode hex="0037"/>
  <outline>
    <contour>
      <point x="340" y="0" type="line"/>
      <point x="676" y="555" type="line"/>
      <point x="705" y="700" type="line"/>
      <point x="106" y="700" type="line"/>
      <point x="49" y="415" type="line"/>
      <point x="244" y="415" type="line"/>
      <point x="286" y="624" type="line"/>
      <point x="172" y="517" type="line"/>
      <point x="504" y="517" type="line"/>
      <point x="453" y="616" type="line"/>
      <point x="74" y="0" type="line"/>
    </contour>
  </outline>
</glyph>
<glyph name="less" format="1">
  <advance width="620"/>
  <unicode hex="003C"/>
  <outline>
    <contour>
      <point x="88" y="439" type="line"/>
      <point x="52" y="261" type="line"/>
      <point x="525" y="76" type="line"/>
      <point x="557" y="237" type="line"/>
      <point x="142" y="390" type="line"/>
      <point x="122" y="292" type="line"/>
      <point x="599" y="445" type="line"/>
      <point x="635" y="624" type="line"/>
    </contour>
  </outline>
</glyph>
<glyph name="greater" format="1">
  <advance width="620"/>
  <unicode hex="003E"/>
  <outline>
    <contour>
      <point x="562" y="261" type="line"/>
      <point x="598" y="439" type="line"/>
      <point x="125" y="624" type="line"/>
      <point x="93" y="463" type="line"/>
      <point x="508" y="310" type="line"/>
      <point x="528" y="408" type="line"/>
      <point x="51" y="255" type="line"/>
      <point x="15" y="76" type="line"/>
    </contour>
  </outline>
</glyph>
<glyph name="question" format="1">
  <advance width="606"/>
  <unicode hex="003F"/>
  <outline>
    <contour>
      <point x="412" y="268" type="line"/>
      <point x="426" y="351"/>
      <point x="619" y="378"/>
      <point x="619" y="540" type="curve" smooth="yes"/>
      <point x="619" y="647"/>
      <point x="522" y="716"/>
      <point x="372" y="716" type="curve" smooth="yes"/>
      <point x="228" y="716"/>
      <point x="110" y="651"/>
      <point x="51" y="557" type="curve"/>
      <point x="199" y="463" type="line"/>
      <point x="227" y="507"/>
      <point x="272" y="533"/>
      <point x="318" y="533" type="curve" smooth="yes"/>
      <point x="358" y="533"/>
      <point x="378" y="517"/>
      <point x="378" y="492" type="curve" smooth="yes"/>
      <point x="378" y="417"/>
      <point x="231" y="395"/>
      <point x="206" y="268" type="curve"/>
    </contour>
    <contour>
      <point x="349" y="-10"/>
      <point x="409" y="47"/>
      <point x="409" y="120" type="curve" smooth="yes"/>
      <point x="409" y="181"/>
      <point x="358" y="228"/>
      <point x="284" y="228" type="curve" smooth="yes"/>
      <point x="205" y="228"/>
      <point x="145" y="175"/>
      <point x="145" y="100" type="curve" smooth="yes"/>
      <point x="145" y="39"/>
      <point x="196" y="-10"/>
      <point x="270" y="-10" type="curve" smooth="yes"/>
    </contour>
  </outline>
</glyph>
<glyph name="A" format="1">
  <advance width="806"/>
  <unicode hex="0041"/>
  <outline>
    <contour>
      <point x="175" y="0" type="line"/>
      <point x="514" y="591" type="line"/>
      <point x="422" y="591" type="line"/>
      <point x="535" y="0" type="line"/>
      <point x="770" y="0" type="line"/>
      <point x="604" y="700" type="line"/>
      <point x="372" y="700" type="line"/>
      <point x="-74" y="0" type="line"/>
    </contour>
    <contour>
      <point x="574" y="122" type="line"/>
      <point x="548" y="292" type="line"/>
      <point x="226" y="292" type="line"/>
      <point x="132" y="122" type="line"/>
    </contour>
    <contour>
      <point x="770" y="0" type="move" name="ogonek"/>
    </contour>
    <contour>
      <point x="488" y="700" type="move" name="top"/>
    </contour>
    <contour>
      <point x="206" y="701" type="move" name="topleft"/>
    </contour>
    <contour>
      <point x="348" y="0" type="move" name="bottom"/>
    </contour>
  </outline>
</glyph>
<glyph name="B" format="1">
  <advance width="773"/>
  <unicode hex="0042"/>
  <outline>
    <contour>
      <point x="406" y="0" type="line" smooth="yes"/>
      <point x="585" y="0"/>
      <point x="733" y="68"/>
      <point x="733" y="223" type="curve" smooth="yes"/>
      <point x="733" y="325"/>
      <point x="646" y="385"/>
      <point x="503" y="385" type="curve"/>
      <point x="473" y="331" type="line"/>
      <point x="643" y="331"/>
      <point x="764" y="403"/>
      <point x="764" y="533" type="curve" smooth="yes"/>
      <point x="764" y="639"/>
      <point x="679" y="700"/>
      <point x="513" y="700" type="curve" smooth="yes"/>
      <point x="142" y="700" type="line"/>
      <point x="2" y="0" type="line"/>
    </contour>
    <contour>
      <point x="341" y="535" type="line"/>
      <point x="456" y="535" type="line" smooth="yes"/>
      <point x="495" y="535"/>
      <point x="518" y="521"/>
      <point x="518" y="492" type="curve" smooth="yes"/>
      <point x="518" y="454"/>
      <point x="494" y="431"/>
      <point x="440" y="431" type="curve" smooth="yes"/>
      <point x="304" y="431" type="line"/>
      <point x="273" y="275" type="line"/>
      <point x="441" y="275" type="line" smooth="yes"/>
      <point x="472" y="275"/>
      <point x="499" y="260"/>
      <point x="499" y="229" type="curve" smooth="yes"/>
      <point x="499" y="186"/>
      <point x="465" y="165"/>
      <point x="419" y="165" type="curve" smooth="yes"/>
      <point x="267" y="165" type="line"/>
    </contour>
    <contour>
      <point x="467" y="700" type="move" name="top"/>
    </contour>
    <contour>
      <point x="327" y="0" type="move" name="bottom"/>
    </contour>
  </outline>
</glyph>
<glyph name="C" format="1">
  <advance width="744"/>
  <unicode hex="0043"/>
  <outline>
    <contour>
      <point x="529" y="-16"/>
      <point x="633" y="19"/>
      <point x="718" y="123" type="curve"/>
      <point x="579" y="256" type="line"/>
      <point x="531" y="198"/>
      <point x="478" y="175"/>
      <point x="423" y="175" type="curve" smooth="yes"/>
      <point x="336" y="175"/>
      <point x="279" y="230"/>
      <point x="279" y="312" type="curve" smooth="yes"/>
      <point x="279" y="437"/>
      <point x="357" y="525"/>
      <point x="468" y="525" type="curve" smooth="yes"/>
      <point x="532" y="525"/>
      <point x="578" y="495"/>
      <point x="608" y="443" type="curve"/>
      <point x="778" y="576" type="line"/>
      <point x="727" y="666"/>
      <point x="617" y="716"/>
      <point x="483" y="716" type="curve" smooth="yes"/>
      <point x="224" y="716"/>
      <point x="41" y="543"/>
      <point x="41" y="297" type="curve" smooth="yes"/>
      <point x="41" y="111"/>
      <point x="183" y="-16"/>
      <point x="400" y="-16" type="curve" smooth="yes"/>
    </contour>
    <contour>
      <point x="503" y="701" type="move" name="top"/>
    </contour>
    <contour>
      <point x="337" y="0" type="move" name="bottom"/>
    </contour>
  </outline>
</glyph>
<glyph name="D" format="1">
  <advance width="826"/>
  <unicode hex="0044"/>
  <outline>
    <contour>
      <point x="377" y="0" type="line" smooth="yes"/>
      <point x="632" y="0"/>
      <point x="815" y="156"/>
      <point x="815" y="403" type="curve" smooth="yes"/>
      <point x="815" y="587"/>
      <point x="679" y="700"/>
      <point x="458" y="700" type="curve" smooth="yes"/>
      <point x="142" y="700" type="line"/>
      <point x="2" y="0" type="line"/>
    </contour>
    <contour>
      <point x="341" y="516" type="line"/>
      <point x="431" y="516" type="line" smooth="yes"/>
      <point x="526" y="516"/>
      <point x="577" y="470"/>
      <point x="577" y="389" type="curve" smooth="yes"/>
      <point x="577" y="274"/>
      <point x="510" y="184"/>
      <point x="385" y="184" type="curve" smooth="yes"/>
      <point x="275" y="184" type="line"/>
    </contour>
    <contour>
      <point x="222" y="355" type="move" name="center"/>
    </contour>
    <contour>
      <point x="304" y="0" type="move" name="bottom"/>
    </contour>
    <contour>
      <point x="442" y="700" type="move" name="top"/>
    </contour>
  </outline>
</glyph>
<glyph name="E" format="1">
  <advance width="673"/>
  <unicode hex="0045"/>
  <outline>
    <contour>
      <point x="272" y="270" type="line"/>
      <point x="584" y="270" type="line"/>
      <point x="618" y="440" type="line"/>
      <point x="306" y="440" type="line"/>
    </contour>
    <contour>
      <point x="338" y="522" type="line"/>
      <point x="675" y="522" type="line"/>
      <point x="711" y="700" type="line"/>
      <point x="142" y="700" type="line"/>
      <point x="2" y="0" type="line"/>
      <point x="584" y="0" type="line"/>
      <point x="620" y="178" type="line"/>
      <point x="269" y="178" type="line"/>
    </contour>
    <contour>
      <point x="584" y="0" type="move" name="ogonek"/>
    </contour>
    <contour>
      <point x="427" y="700" type="move" name="top"/>
    </contour>
    <contour>
      <point x="76" y="700" type="move" name="topleft"/>
    </contour>
    <contour>
      <point x="287" y="0" type="move" name="bottom"/>
    </contour>
  </outline>
</glyph>
<glyph name="F" format="1">
  <advance width="644"/>
  <unicode hex="0046"/>
  <outline>
    <contour>
      <point x="267" y="224" type="line"/>
      <point x="574" y="224" type="line"/>
      <point x="610" y="402" type="line"/>
      <point x="302" y="402" type="line"/>
    </contour>
    <contour>
      <point x="342" y="522" type="line"/>
      <point x="675" y="522" type="line"/>
      <point x="711" y="700" type="line"/>
      <point x="142" y="700" type="line"/>
      <point x="2" y="0" type="line"/>
      <point x="238" y="0" type="line"/>
    </contour>
  </outline>
</glyph>
<glyph name="I" format="1">
  <advance width="350"/>
  <unicode hex="0049"/>
  <outline>
    <contour>
      <point x="238" y="0" type="line"/>
      <point x="378" y="700" type="line"/>
      <point x="142" y="700" type="line"/>
      <point x="2" y="0" type="line"/>
    </contour>
    <contour>
      <point x="238" y="0" type="move" name="ogonek"/>
    </contour>
    <contour>
      <point x="260" y="700" type="move" name="top"/>
    </contour>
    <contour>
      <point x="76" y="700" type="move" name="topleft"/>
    </contour>
    <contour>
      <point x="120" y="0" type="move" name="bottom"/>
    </contour>
  </outline>
</glyph>
<glyph name="J" format="1">
  <advance width="574"/>
  <unicode hex="004A"/>
  <outline>
    <contour>
      <point x="374" y="-16"/>
      <point x="480" y="58"/>
      <point x="520" y="260" type="curve" smooth="yes"/>
      <point x="608" y="700" type="line"/>
      <point x="137" y="700" type="line"/>
      <point x="101" y="522" type="line"/>
      <point x="339" y="522" type="line"/>
      <point x="284" y="246" type="line" smooth="yes"/>
      <point x="274" y="197"/>
      <point x="245" y="169"/>
      <point x="200" y="169" type="curve" smooth="yes"/>
      <point x="158" y="169"/>
      <point x="124" y="191"/>
      <point x="93" y="235" type="curve"/>
      <point x="-58" y="92" type="line"/>
      <point x="-6" y="20"/>
      <point x="78" y="-16"/>
      <point x="196" y="-16" type="curve" smooth="yes"/>
    </contour>
    <contour>
      <point x="373" y="700" type="move" name="top"/>
    </contour>
  </outline>
</glyph>
<glyph name="K" format="1">
  <advance width="765"/>
  <unicode hex="004B"/>
  <outline>
    <contour>
      <point x="342" y="236" type="line"/>
      <point x="502" y="374" type="line"/>
      <point x="861" y="700" type="line"/>
      <point x="590" y="700" type="line"/>
      <point x="278" y="409" type="line"/>
      <point x="243" y="144" type="line"/>
    </contour>
    <contour>
      <point x="234" y="0" type="line"/>
      <point x="374" y="700" type="line"/>
      <point x="142" y="700" type="line"/>
      <point x="2" y="0" type="line"/>
    </contour>
    <contour>
      <point x="738" y="0" type="line"/>
      <point x="481" y="430" type="line"/>
      <point x="306" y="272" type="line"/>
      <point x="475" y="0" type="line"/>
    </contour>
    <contour>
      <point x="469" y="700" type="move" name="top"/>
    </contour>
    <contour>
      <point x="329" y="0" type="move" name="bottom"/>
    </contour>
  </outline>
</glyph>
<glyph name="L" format="1">
  <advance width="617"/>
  <unicode hex="004C"/>
  <outline>
    <contour>
      <point x="554" y="0" type="line"/>
      <point x="591" y="183" type="line"/>
      <point x="275" y="183" type="line"/>
      <point x="378" y="700" type="line"/>
      <point x="142" y="700" type="line"/>
      <point x="2" y="0" type="line"/>
    </contour>
    <contour>
      <point x="290" y="0" type="move" name="bottom"/>
    </contour>
    <contour>
      <point x="517" y="441" type="move" name="dot"/>
    </contour>
    <contour>
      <point x="260" y="700" type="move" name="top"/>
    </contour>
    <contour>
      <point x="508" y="700" type="move" name="topright"/>
    </contour>
    <contour>
      <point x="200" y="400" type="move" name="center"/>
    </contour>
  </outline>
</glyph>
<glyph name="M" format="1">
  <advance width="954"/>
  <unicode hex="004D"/>
  <outline>
    <contour>
      <point x="217" y="0" type="line"/>
      <point x="292" y="376" type="line"/>
      <point x="252" y="379" type="line"/>
      <point x="388" y="63" type="line"/>
      <point x="492" y="63" type="line"/>
      <point x="734" y="378" type="line"/>
      <point x="700" y="376" type="line"/>
      <point x="627" y="0" type="line"/>
      <point x="842" y="0" type="line"/>
      <point x="980" y="700" type="line"/>
      <point x="779" y="700" type="line"/>
      <point x="419" y="243" type="line"/>
      <point x="521" y="243" type="line"/>
      <point x="334" y="700" type="line"/>
      <point x="142" y="700" type="line"/>
      <point x="2" y="0" type="line"/>
    </contour>
    <contour>
      <point x="561" y="700" type="move" name="top"/>
    </contour>
    <contour>
      <point x="421" y="0" type="move" name="bottom"/>
    </contour>
  </outline>
</glyph>
<glyph name="N" format="1">
  <advance width="804"/>
  <unicode hex="004E"/>
  <outline>
    <contour>
      <point x="232" y="0" type="line"/>
      <point x="317" y="426" type="line"/>
      <point x="235" y="426" type="line"/>
      <point x="498" y="0" type="line"/>
      <point x="692" y="0" type="line"/>
      <point x="832" y="700" type="line"/>
      <point x="602" y="700" type="line"/>
      <point x="517" y="274" type="line"/>
      <point x="599" y="274" type="line"/>
      <point x="336" y="700" type="line"/>
      <point x="142" y="700" type="line"/>
      <point x="2" y="0" type="line"/>
    </contour>
    <contour>
      <point x="487" y="700" type="move" name="top"/>
    </contour>
    <contour>
      <point x="347" y="0" type="move" name="bottom"/>
    </contour>
  </outline>
</glyph>
<glyph name="O" format="1">
  <advance width="848"/>
  <unicode hex="004F"/>
  <outline>
    <contour>
      <point x="653" y="-16"/>
      <point x="837" y="156"/>
      <point x="837" y="403" type="curve" smooth="yes"/>
      <point x="837" y="587"/>
      <point x="700" y="716"/>
      <point x="482" y="716" type="curve" smooth="yes"/>
      <point x="225" y="716"/>
      <point x="41" y="544"/>
      <point x="41" y="297" type="curve" smooth="yes"/>
      <point x="41" y="113"/>
      <point x="178" y="-16"/>
      <point x="396" y="-16" type="curve" smooth="yes"/>
    </contour>
    <contour>
      <point x="330" y="175"/>
      <point x="279" y="230"/>
      <point x="279" y="311" type="curve" smooth="yes"/>
      <point x="279" y="426"/>
      <point x="346" y="525"/>
      <point x="462" y="525" type="curve" smooth="yes"/>
      <point x="548" y="525"/>
      <point x="599" y="470"/>
      <point x="599" y="389" type="curve" smooth="yes"/>
      <point x="599" y="274"/>
      <point x="532" y="175"/>
      <point x="416" y="175" type="curve" smooth="yes"/>
    </contour>
    <contour>
      <point x="369" y="0" type="move" name="bottom"/>
    </contour>
    <contour>
      <point x="492" y="0" type="move" name="ogonek"/>
    </contour>
    <contour>
      <point x="509" y="700" type="move" name="top"/>
    </contour>
    <contour>
      <point x="675" y="700" type="move" name="topright"/>
    </contour>
    <contour>
      <point x="119" y="700" type="move" name="topleft"/>
    </contour>
    <contour>
      <point x="439" y="350" type="move" name="center"/>
    </contour>
  </outline>
</glyph>
<glyph name="P" format="1">
  <advance width="743"/>
  <unicode hex="0050"/>
  <outline>
    <contour>
      <point x="238" y="0" type="line"/>
      <point x="293" y="275" type="line"/>
      <point x="167" y="172" type="line"/>
      <point x="393" y="172" type="line" smooth="yes"/>
      <point x="608" y="172"/>
      <point x="747" y="291"/>
      <point x="747" y="468" type="curve" smooth="yes"/>
      <point x="747" y="614"/>
      <point x="641" y="700"/>
      <point x="453" y="700" type="curve" smooth="yes"/>
      <point x="142" y="700" type="line"/>
      <point x="2" y="0" type="line"/>
    </contour>
    <contour>
      <point x="363" y="628" type="line"/>
      <point x="237" y="518" type="line"/>
      <point x="420" y="518" type="line" smooth="yes"/>
      <point x="474" y="518"/>
      <point x="508" y="497"/>
      <point x="508" y="447" type="curve" smooth="yes"/>
      <point x="508" y="388"/>
      <point x="470" y="354"/>
      <point x="405" y="354" type="curve" smooth="yes"/>
      <point x="204" y="354" type="line"/>
      <point x="287" y="247" type="line"/>
    </contour>
  </outline>
</glyph>
<glyph name="Q" format="1">
  <advance width="848"/>
  <unicode hex="0051"/>
  <outline>
    <contour>
      <point x="653" y="-16"/>
      <point x="837" y="156"/>
      <point x="837" y="403" type="curve" smooth="yes"/>
      <point x="837" y="587"/>
      <point x="700" y="716"/>
      <point x="482" y="716" type="curve" smooth="yes"/>
      <point x="225" y="716"/>
      <point x="41" y="544"/>
      <point x="41" y="297" type="curve" smooth="yes"/>
      <point x="41" y="113"/>
      <point x="178" y="-16"/>
      <point x="396" y="-16" type="curve" smooth="yes"/>
    </contour>
    <contour>
      <point x="667" y="-177"/>
      <point x="743" y="-154"/>
      <point x="794" y="-107" type="curve"/>
      <point x="709" y="30" type="line"/>
      <point x="678" y="3"/>
      <point x="639" y="-13"/>
      <point x="605" y="-13" type="curve" smooth="yes"/>
      <point x="559" y="-13"/>
      <point x="535" y="6"/>
      <point x="516" y="80" type="curve"/>
      <point x="261" y="30" type="line"/>
      <point x="327" y="-111"/>
      <point x="431" y="-177"/>
      <point x="583" y="-177" type="curve" smooth="yes"/>
    </contour>
    <contour>
      <point x="330" y="175"/>
      <point x="279" y="230"/>
      <point x="279" y="311" type="curve" smooth="yes"/>
      <point x="279" y="426"/>
      <point x="346" y="525"/>
      <point x="462" y="525" type="curve" smooth="yes"/>
      <point x="548" y="525"/>
      <point x="599" y="470"/>
      <point x="599" y="389" type="curve" smooth="yes"/>
      <point x="599" y="274"/>
      <point x="532" y="175"/>
      <point x="416" y="175" type="curve" smooth="yes"/>
    </contour>
    <contour>
      <point x="510" y="700" type="move" name="top"/>
    </contour>
  </outline>
</glyph>
<glyph name="R" format="1">
  <advance width="745"/>
  <unicode hex="0052"/>
  <outline>
    <contour>
      <point x="238" y="0" type="line"/>
      <point x="293" y="275" type="line"/>
      <point x="167" y="176" type="line"/>
      <point x="393" y="176" type="line" smooth="yes"/>
      <point x="608" y="176"/>
      <point x="747" y="294"/>
      <point x="747" y="470" type="curve" smooth="yes"/>
      <point x="747" y="615"/>
      <point x="641" y="700"/>
      <point x="456" y="700" type="curve" smooth="yes"/>
      <point x="142" y="700" type="line"/>
      <point x="2" y="0" type="line"/>
    </contour>
    <contour>
      <point x="675" y="0" type="line"/>
      <point x="529" y="255" type="line"/>
      <point x="286" y="255" type="line"/>
      <point x="430" y="0" type="line"/>
    </contour>
    <contour>
      <point x="363" y="628" type="line"/>
      <point x="237" y="518" type="line"/>
      <point x="420" y="518" type="line" smooth="yes"/>
      <point x="474" y="518"/>
      <point x="508" y="497"/>
      <point x="508" y="447" type="curve" smooth="yes"/>
      <point x="508" y="388"/>
      <point x="470" y="354"/>
      <point x="405" y="354" type="curve" smooth="yes"/>
      <point x="204" y="354" type="line"/>
      <point x="287" y="247" type="line"/>
    </contour>
    <contour>
      <point x="464" y="700" type="move" name="top"/>
    </contour>
    <contour>
      <point x="324" y="0" type="move" name="bottom"/>
    </contour>
  </outline>
</glyph>
<glyph name="S" format="1">
  <advance width="657"/>
  <unicode hex="0053"/>
  <outline>
    <contour>
      <point x="498" y="-16"/>
      <point x="634" y="89"/>
      <point x="634" y="245" type="curve" smooth="yes"/>
      <point x="634" y="461"/>
      <point x="300" y="412"/>
      <point x="300" y="489" type="curve" smooth="yes"/>
      <point x="300" y="513"/>
      <point x="334" y="536"/>
      <point x="403" y="536" type="curve" smooth="yes"/>
      <point x="471" y="536"/>
      <point x="539" y="519"/>
      <point x="595" y="484" type="curve"/>
      <point x="680" y="656" type="line"/>
      <point x="615" y="695"/>
      <point x="522" y="716"/>
      <point x="418" y="716" type="curve" smooth="yes"/>
      <point x="197" y="716"/>
      <point x="64" y="612"/>
      <point x="64" y="453" type="curve" smooth="yes"/>
      <point x="64" y="236"/>
      <point x="397" y="279"/>
      <point x="397" y="205" type="curve" smooth="yes"/>
      <point x="397" y="180"/>
      <point x="365" y="164"/>
      <point x="304" y="164" type="curve" smooth="yes"/>
      <point x="226" y="164"/>
      <point x="146" y="184"/>
      <point x="68" y="229" type="curve"/>
      <point x="-23" y="55" type="line"/>
      <point x="44" y="14"/>
      <point x="155" y="-16"/>
      <point x="280" y="-16" type="curve" smooth="yes"/>
    </contour>
    <contour>
      <point x="414" y="700" type="move" name="top"/>
    </contour>
    <contour>
      <point x="274" y="0" type="move" name="bottom"/>
    </contour>
  </outline>
</glyph>
<glyph name="T" format="1">
  <advance width="654"/>
  <unicode hex="0054"/>
  <outline>
    <contour>
      <point x="390" y="0" type="line"/>
      <point x="493" y="517" type="line"/>
      <point x="698" y="517" type="line"/>
      <point x="735" y="700" type="line"/>
      <point x="89" y="700" type="line"/>
      <point x="52" y="517" type="line"/>
      <point x="257" y="517" type="line"/>
      <point x="154" y="0" type="line"/>
    </contour>
    <contour>
      <point x="335" y="315" type="move" name="center"/>
    </contour>
    <contour>
      <point x="272" y="0" type="move" name="bottom"/>
    </contour>
    <contour>
      <point x="412" y="700" type="move" name="top"/>
    </contour>
  </outline>
</glyph>
<glyph name="U" format="1">
  <advance width="784"/>
  <unicode hex="0055"/>
  <outline>
    <contour>
      <point x="570" y="-16"/>
      <point x="697" y="95"/>
      <point x="739" y="305" type="curve" smooth="yes"/>
      <point x="818" y="700" type="line"/>
      <point x="586" y="700" type="line"/>
      <point x="510" y="319" type="line" smooth="yes"/>
      <point x="489" y="214"/>
      <point x="452" y="175"/>
      <point x="384" y="175" type="curve" smooth="yes"/>
      <point x="310" y="175"/>
      <point x="276" y="220"/>
      <point x="296" y="319" type="curve" smooth="yes"/>
      <point x="372" y="700" type="line"/>
      <point x="136" y="700" type="line"/>
      <point x="59" y="315" type="line" smooth="yes"/>
      <point x="19" y="116"/>
      <point x="137" y="-16"/>
      <point x="355" y="-16" type="curve" smooth="yes"/>
    </contour>
    <contour>
      <point x="565" y="0" type="move" name="ogonek"/>
    </contour>
    <contour>
      <point x="479" y="700" type="move" name="top"/>
    </contour>
    <contour>
      <point x="725" y="700" type="move" name="topright"/>
    </contour>
    <contour>
      <point x="339" y="0" type="move" name="bottom"/>
    </contour>
  </outline>
</glyph>
<glyph name="V" format="1">
  <advance width="786"/>
  <unicode hex="0056"/>
  <outline>
    <contour>
      <point x="454" y="0" type="line"/>
      <point x="890" y="700" type="line"/>
      <point x="648" y="700" type="line"/>
      <point x="280" y="107" type="line"/>
      <point x="434" y="107" type="line"/>
      <point x="308" y="700" type="line"/>
      <point x="66" y="700" type="line"/>
      <point x="222" y="0" type="line"/>
    </contour>
  </outline>
</glyph>
<glyph name="W" format="1">
  <advance width="1206"/>
  <unicode hex="0057"/>
  <outline>
    <contour>
      <point x="432" y="0" type="line"/>
      <point x="683" y="484" type="line"/>
      <point x="611" y="484" type="line"/>
      <point x="664" y="0" type="line"/>
      <point x="917" y="0" type="line"/>
      <point x="1281" y="700" type="line"/>
      <point x="1049" y="700" type="line"/>
      <point x="742" y="109" type="line"/>
      <point x="857" y="109" type="line"/>
      <point x="798" y="700" type="line"/>
      <point x="581" y="700" type="line"/>
      <point x="273" y="109" type="line"/>
      <point x="395" y="109" type="line"/>
      <point x="328" y="700" type="line"/>
      <point x="95" y="700" type="line"/>
      <point x="179" y="0" type="line"/>
    </contour>
    <contour>
      <point x="688" y="700" type="move" name="top"/>
    </contour>
    <contour>
      <point x="548" y="0" type="move" name="bottom"/>
    </contour>
  </outline>
</glyph>
<glyph name="Y" format="1">
  <advance width="710"/>
  <unicode hex="0059"/>
  <outline>
    <contour>
      <point x="418" y="0" type="line"/>
      <point x="479" y="307" type="line"/>
      <point x="399" y="166" type="line"/>
      <point x="822" y="700" type="line"/>
      <point x="585" y="700" type="line"/>
      <point x="290" y="333" type="line"/>
      <point x="439" y="333" type="line"/>
      <point x="295" y="700" type="line"/>
      <point x="58" y="700" type="line"/>
      <point x="269" y="166" type="line"/>
      <point x="243" y="307" type="line"/>
      <point x="182" y="0" type="line"/>
    </contour>
    <contour>
      <point x="440" y="700" type="move" name="top"/>
    </contour>
    <contour>
      <point x="300" y="0" type="move" name="bottom"/>
    </contour>
  </outline>
</glyph>
<glyph name="Z" format="1">
  <advance width="687"/>
  <unicode hex="005A"/>
  <outline>
    <contour>
      <point x="620" y="0" type="line"/>
      <point x="657" y="183" type="line"/>
      <point x="222" y="183" type="line"/>
      <point x="245" y="101" type="line"/>
      <point x="715" y="555" type="line"/>
      <point x="744" y="700" type="line"/>
      <point x="127" y="700" type="line"/>
      <point x="90" y="517" type="line"/>
      <point x="499" y="517" type="line"/>
      <point x="476" y="599" type="line"/>
      <point x="6" y="145" type="line"/>
      <point x="-23" y="0" type="line"/>
    </contour>
    <contour>
      <point x="439" y="700" type="move" name="top"/>
    </contour>
    <contour>
      <point x="299" y="0" type="move" name="bottom"/>
    </contour>
  </outline>
</glyph>
<glyph name="bracketleft" format="1">
  <advance width="410"/>
  <unicode hex="005B"/>
  <outline>
    <contour>
      <point x="306" y="-194" type="line"/>
      <point x="340" y="-24" type="line"/>
      <point x="224" y="-24" type="line"/>
      <point x="343" y="572" type="line"/>
      <point x="459" y="572" type="line"/>
      <point x="493" y="742" type="line"/>
      <point x="151" y="742" type="line"/>
      <point x="-36" y="-194" type="line"/>
    </contour>
  </outline>
</glyph>
<glyph name="backslash" format="1">
  <advance width="440"/>
  <unicode hex="005C"/>
  <outline>
    <contour>
      <point x="256" y="842" type="line"/>
      <point x="64" y="842" type="line"/>
      <point x="213" y="-100" type="line"/>
      <point x="405" y="-100" type="line"/>
    </contour>
  </outline>
</glyph>
<glyph name="bracketright" format="1">
  <advance width="410"/>
  <unicode hex="005D"/>
  <outline>
    <contour>
      <point x="447" y="742" type="line"/>
      <point x="105" y="742" type="line"/>
      <point x="71" y="572" type="line"/>
      <point x="187" y="572" type="line"/>
      <point x="68" y="-24" type="line"/>
      <point x="-48" y="-24" type="line"/>
      <point x="-82" y="-194" type="line"/>
      <point x="260" y="-194" type="line"/>
    </contour>
  </outline>
</glyph>
<glyph name="asciicircum" format="1">
  <advance width="620"/>
  <unicode hex="005E"/>
  <outline>
    <contour>
      <point x="188" y="139" type="line"/>
      <point x="415" y="508" type="line"/>
      <point x="317" y="508" type="line"/>
      <point x="396" y="139" type="line"/>
      <point x="557" y="139" type="line"/>
      <point x="456" y="561" type="line"/>
      <point x="278" y="561" type="line"/>
      <point x="9" y="139" type="line"/>
    </contour>
  </outline>
</glyph>
<glyph name="underscore" format="1">
  <advance width="500"/>
  <unicode hex="005F"/>
  <outline>
    <contour>
      <point x="421" y="-120" type="line"/>
      <point x="445" y="0" type="line"/>
      <point x="-55" y="0" type="line"/>
      <point x="-79" y="-120" type="line"/>
    </contour>
  </outline>
</glyph>
<glyph name="a" format="1">
  <advance width="694"/>
  <unicode hex="0061"/>
  <outline>
    <contour>
      <point x="374" y="-10"/>
      <point x="459" y="97"/>
      <point x="487" y="274" type="curve" smooth="yes"/>
      <point x="521" y="489"/>
      <point x="433" y="557"/>
      <point x="308" y="557" type="curve" smooth="yes"/>
      <point x="152" y="557"/>
      <point x="20" y="423"/>
      <point x="20" y="243" type="curve" smooth="yes"/>
      <point x="20" y="80"/>
      <point x="135" y="-10"/>
      <point x="242" y="-10" type="curve" smooth="yes"/>
    </contour>
    <contour>
      <point x="273" y="168"/>
      <point x="243" y="203"/>
      <point x="243" y="254" type="curve" smooth="yes"/>
      <point x="243" y="330"/>
      <point x="283" y="379"/>
      <point x="342" y="379" type="curve" smooth="yes"/>
      <point x="393" y="379"/>
      <point x="423" y="344"/>
      <point x="423" y="293" type="curve" smooth="yes"/>
      <point x="423" y="217"/>
      <point x="383" y="168"/>
      <point x="324" y="168" type="curve" smooth="yes"/>
    </contour>
    <contour>
      <point x="590" y="0" type="line"/>
      <point x="699" y="547" type="line"/>
      <point x="473" y="547" type="line"/>
      <point x="458" y="472" type="line"/>
      <point x="429" y="274" type="line"/>
      <point x="392" y="74" type="line"/>
      <point x="377" y="0" type="line"/>
    </contour>
    <contour>
      <point x="590" y="0" type="move" name="ogonek"/>
    </contour>
    <contour>
      <point x="306" y="0" type="move" name="bottom"/>
    </contour>
    <contour>
      <point x="415" y="547" type="move" name="top"/>
    </contour>
  </outline>
</glyph>
<glyph name="c" format="1">
  <advance width="603"/>
  <unicode hex="0063"/>
  <outline>
    <contour>
      <point x="439" y="-10"/>
      <point x="538" y="46"/>
      <point x="591" y="144" type="curve"/>
      <point x="431" y="238" type="line"/>
      <point x="405" y="187"/>
      <point x="373" y="168"/>
      <point x="329" y="168" type="curve" smooth="yes"/>
      <point x="273" y="168"/>
      <point x="243" y="205"/>
      <point x="243" y="257" type="curve" smooth="yes"/>
      <point x="243" y="330"/>
      <point x="287" y="379"/>
      <point x="348" y="379" type="curve" smooth="yes"/>
      <point x="386" y="379"/>
      <point x="419" y="360"/>
      <point x="438" y="309" type="curve"/>
      <point x="624" y="395" type="line"/>
      <point x="586" y="496"/>
      <point x="486" y="557"/>
      <point x="358" y="557" type="curve" smooth="yes"/>
      <point x="160" y="557"/>
      <point x="20" y="423"/>
      <point x="20" y="243" type="curve" smooth="yes"/>
      <point x="20" y="90"/>
      <point x="136" y="-10"/>
      <point x="313" y="-10" type="curve" smooth="yes"/>
    </contour>
    <contour>
      <point x="372" y="547" type="move" name="top"/>
    </contour>
    <contour>
      <point x="255" y="0" type="move" name="bottom"/>
    </contour>
  </outline>
</glyph>
<glyph name="d" format="1">
  <advance width="699"/>
  <unicode hex="0064"/>
  <outline>
    <contour>
      <point x="379" y="-10"/>
      <point x="464" y="97"/>
      <point x="492" y="274" type="curve" smooth="yes"/>
      <point x="526" y="489"/>
      <point x="438" y="557"/>
      <point x="313" y="557" type="curve" smooth="yes"/>
      <point x="157" y="557"/>
      <point x="25" y="423"/>
      <point x="25" y="243" type="curve" smooth="yes"/>
      <point x="25" y="80"/>
      <point x="140" y="-10"/>
      <point x="247" y="-10" type="curve" smooth="yes"/>
    </contour>
    <contour>
      <point x="278" y="168"/>
      <point x="248" y="203"/>
      <point x="248" y="254" type="curve" smooth="yes"/>
      <point x="248" y="330"/>
      <point x="288" y="379"/>
      <point x="347" y="379" type="curve" smooth="yes"/>
      <point x="398" y="379"/>
      <point x="428" y="344"/>
      <point x="428" y="293" type="curve" smooth="yes"/>
      <point x="428" y="217"/>
      <point x="388" y="168"/>
      <point x="329" y="168" type="curve" smooth="yes"/>
    </contour>
    <contour>
      <point x="594" y="0" type="line"/>
      <point x="742" y="742" type="line"/>
      <point x="516" y="742" type="line"/>
      <point x="462" y="472" type="line"/>
      <point x="433" y="274" type="line"/>
      <point x="396" y="74" type="line"/>
      <point x="381" y="0" type="line"/>
    </contour>
    <contour>
      <point x="559" y="640" type="move" name="center"/>
    </contour>
    <contour>
      <point x="321" y="0" type="move" name="bottom"/>
    </contour>
    <contour>
      <point x="815" y="742" type="move" name="topright"/>
    </contour>
  </outline>
</glyph>
<glyph name="e" format="1">
  <advance width="656"/>
  <unicode hex="0065"/>
  <outline>
    <contour>
      <point x="406" y="-10"/>
      <point x="486" y="7"/>
      <point x="561" y="58" type="curve"/>
      <point x="469" y="195" type="line"/>
      <point x="434" y="169"/>
      <point x="390" y="157"/>
      <point x="348" y="157" type="curve" smooth="yes"/>
      <point x="276" y="157"/>
      <point x="238" y="183"/>
      <point x="238" y="251" type="curve" smooth="yes"/>
      <point x="238" y="327"/>
      <point x="266" y="403"/>
      <point x="350" y="403" type="curve" smooth="yes"/>
      <point x="408" y="403"/>
      <point x="445" y="364"/>
      <point x="430" y="301" type="curve"/>
      <point x="526" y="330" type="line"/>
      <point x="220" y="330" type="line"/>
      <point x="198" y="221" type="line"/>
      <point x="626" y="221" type="line"/>
      <point x="633" y="250"/>
      <point x="638" y="282"/>
      <point x="638" y="316" type="curve" smooth="yes"/>
      <point x="638" y="457"/>
      <point x="535" y="557"/>
      <point x="360" y="557" type="curve" smooth="yes"/>
      <point x="156" y="557"/>
      <point x="20" y="423"/>
      <point x="20" y="243" type="curve" smooth="yes"/>
      <point x="20" y="88"/>
      <point x="142" y="-10"/>
      <point x="323" y="-10" type="curve" smooth="yes"/>
    </contour>
    <contour>
      <point x="504" y="0" type="move" name="ogonek"/>
    </contour>
    <contour>
      <point x="277" y="0" type="move" name="bottom"/>
    </contour>
    <contour>
      <point x="386" y="547" type="move" name="top"/>
    </contour>
  </outline>
</glyph>
<glyph name="g" format="1">
  <advance width="705"/>
  <unicode hex="0067"/>
  <outline>
    <contour>
      <point x="446" y="-204"/>
      <point x="579" y="-113"/>
      <point x="623" y="110" type="curve" smooth="yes"/>
      <point x="710" y="547" type="line"/>
      <point x="495" y="547" type="line"/>
      <point x="479" y="464" type="line"/>
      <point x="444" y="294" type="line"/>
      <point x="403" y="138" type="line"/>
      <point x="389" y="68" type="line" smooth="yes"/>
      <point x="376" y="3"/>
      <point x="341" y="-36"/>
      <point x="253" y="-36" type="curve" smooth="yes"/>
      <point x="187" y="-36"/>
      <point x="118" y="-15"/>
      <point x="74" y="18" type="curve"/>
      <point x="-22" y="-136" type="line"/>
      <point x="46" y="-181"/>
      <point x="138" y="-204"/>
      <point x="249" y="-204" type="curve" smooth="yes"/>
    </contour>
    <contour>
      <point x="375" y="30"/>
      <point x="456" y="114"/>
      <point x="487" y="294" type="curve"/>
      <point x="521" y="494"/>
      <point x="433" y="557"/>
      <point x="312" y="557" type="curve" smooth="yes"/>
      <point x="151" y="557"/>
      <point x="24" y="428"/>
      <point x="24" y="266" type="curve" smooth="yes"/>
      <point x="24" y="118"/>
      <point x="137" y="30"/>
      <point x="255" y="30" type="curve" smooth="yes"/>
    </contour>
    <contour>
      <point x="276" y="207"/>
      <point x="246" y="236"/>
      <point x="246" y="277" type="curve" smooth="yes"/>
      <point x="246" y="339"/>
      <point x="286" y="379"/>
      <point x="344" y="379" type="curve" smooth="yes"/>
      <point x="394" y="379"/>
      <point x="423" y="350"/>
      <point x="423" y="309" type="curve" smooth="yes"/>
      <point x="423" y="247"/>
      <point x="384" y="207"/>
      <point x="326" y="207" type="curve" smooth="yes"/>
    </contour>
    <contour>
      <point x="403" y="547" type="move" name="top"/>
    </contour>
  </outline>
</glyph>
<glyph name="h" format="1">
  <advance width="702"/>
  <unicode hex="0068"/>
  <outline>
    <contour>
      <point x="395" y="557"/>
      <point x="313" y="520"/>
      <point x="261" y="436" type="curve"/>
      <point x="300" y="396" type="line"/>
      <point x="369" y="742" type="line"/>
      <point x="143" y="742" type="line"/>
      <point x="-5" y="0" type="line"/>
      <point x="221" y="0" type="line"/>
      <point x="274" y="263" type="line" smooth="yes"/>
      <point x="288" y="334"/>
      <point x="324" y="367"/>
      <point x="375" y="367" type="curve" smooth="yes"/>
      <point x="416" y="367"/>
      <point x="440" y="338"/>
      <point x="428" y="275" type="curve" smooth="yes"/>
      <point x="373" y="0" type="line"/>
      <point x="599" y="0" type="line"/>
      <point x="661" y="312" type="line" smooth="yes"/>
      <point x="693" y="472"/>
      <point x="610" y="557"/>
      <point x="480" y="557" type="curve" smooth="yes"/>
    </contour>
    <contour>
      <point x="300" y="0" type="move" name="bottom"/>
    </contour>
    <contour>
      <point x="256" y="742" type="move" name="top"/>
    </contour>
    <contour>
      <point x="364" y="547" type="move" name="topright"/>
    </contour>
    <contour>
      <point x="287" y="640" type="move" name="center"/>
    </contour>
  </outline>
</glyph>
<glyph name="i" format="1">
  <advance width="325"/>
  <unicode hex="0069"/>
  <outline>
    <component base="idotless"/>
    <component base="dotaccentcomb.i" xOffset="-138"/>
    <contour>
      <point x="220" y="0" type="move" name="ogonek"/>
    </contour>
    <contour>
      <point x="108" y="0" type="move" name="bottom"/>
    </contour>
  </outline>
</glyph>
<glyph name="l" format="1">
  <advance width="326"/>
  <unicode hex="006C"/>
  <outline>
    <contour>
      <point x="221" y="0" type="line"/>
      <point x="369" y="742" type="line"/>
      <point x="143" y="742" type="line"/>
      <point x="-5" y="0" type="line"/>
    </contour>
    <contour>
      <point x="108" y="0" type="move" name="bottom"/>
    </contour>
    <contour>
      <point x="435" y="370" type="move" name="dot"/>
    </contour>
    <contour>
      <point x="256" y="742" type="move" name="top"/>
    </contour>
    <contour>
      <point x="439" y="742" type="move" name="topright"/>
    </contour>
    <contour>
      <point x="182" y="370" type="move" name="center"/>
    </contour>
  </outline>
</glyph>
<glyph name="m" format="1">
  <advance width="1040"/>
  <unicode hex="006D"/>
  <outline>
    <contour>
      <point x="717" y="557"/>
      <point x="632" y="504"/>
      <point x="586" y="415" type="curve"/>
      <point x="645" y="396" type="line"/>
      <point x="636" y="502"/>
      <point x="565" y="557"/>
      <point x="470" y="557" type="curve" smooth="yes"/>
      <point x="390" y="557"/>
      <point x="310" y="519"/>
      <point x="261" y="436" type="curve"/>
      <point x="294" y="432" type="line"/>
      <point x="317" y="547" type="line"/>
      <point x="104" y="547" type="line"/>
      <point x="-5" y="0" type="line"/>
      <point x="221" y="0" type="line"/>
      <point x="274" y="267" type="line" smooth="yes"/>
      <point x="289" y="340"/>
      <point x="321" y="367"/>
      <point x="363" y="367" type="curve" smooth="yes"/>
      <point x="399" y="367"/>
      <point x="421" y="338"/>
      <point x="408" y="273" type="curve" smooth="yes"/>
      <point x="353" y="0" type="line"/>
      <point x="579" y="0" type="line"/>
      <point x="633" y="271" type="line" smooth="yes"/>
      <point x="647" y="341"/>
      <point x="680" y="367"/>
      <point x="721" y="367" type="curve" smooth="yes"/>
      <point x="757" y="367"/>
      <point x="779" y="338"/>
      <point x="766" y="273" type="curve" smooth="yes"/>
      <point x="711" y="0" type="line"/>
      <point x="937" y="0" type="line"/>
      <point x="997" y="302" type="line" smooth="yes"/>
      <point x="1031" y="472"/>
      <point x="948" y="557"/>
      <point x="818" y="557" type="curve" smooth="yes"/>
    </contour>
    <contour>
      <point x="466" y="0" type="move" name="bottom"/>
    </contour>
  </outline>
</glyph>
<glyph name="n" format="1">
  <advance width="702"/>
  <unicode hex="006E"/>
  <outline>
    <contour>
      <point x="395" y="557"/>
      <point x="312" y="520"/>
      <point x="260" y="436" type="curve"/>
      <point x="286" y="394" type="line"/>
      <point x="317" y="547" type="line"/>
      <point x="104" y="547" type="line"/>
      <point x="-5" y="0" type="line"/>
      <point x="221" y="0" type="line"/>
      <point x="274" y="263" type="line" smooth="yes"/>
      <point x="288" y="334"/>
      <point x="324" y="367"/>
      <point x="375" y="367" type="curve" smooth="yes"/>
      <point x="416" y="367"/>
      <point x="440" y="338"/>
      <point x="428" y="275" type="curve" smooth="yes"/>
      <point x="373" y="0" type="line"/>
      <point x="599" y="0" type="line"/>
      <point x="661" y="312" type="line" smooth="yes"/>
      <point x="693" y="472"/>
      <point x="610" y="557"/>
      <point x="480" y="557" type="curve" smooth="yes"/>
    </contour>
    <contour>
      <point x="409" y="547" type="move" name="top"/>
    </contour>
    <contour>
      <point x="300" y="0" type="move" name="bottom"/>
    </contour>
  </outline>
</glyph>
<glyph name="o" format="1">
  <advance width="666"/>
  <unicode hex="006F"/>
  <outline>
    <contour>
      <point x="507" y="-10"/>
      <point x="646" y="124"/>
      <point x="646" y="304" type="curve" smooth="yes"/>
      <point x="646" y="457"/>
      <point x="532" y="557"/>
      <point x="355" y="557" type="curve" smooth="yes"/>
      <point x="159" y="557"/>
      <point x="20" y="423"/>
      <point x="20" y="243" type="curve" smooth="yes"/>
      <point x="20" y="90"/>
      <point x="134" y="-10"/>
      <point x="311" y="-10" type="curve" smooth="yes"/>
    </contour>
    <contour>
      <point x="273" y="168"/>
      <point x="243" y="203"/>
      <point x="243" y="254" type="curve" smooth="yes"/>
      <point x="243" y="330"/>
      <point x="283" y="379"/>
      <point x="342" y="379" type="curve" smooth="yes"/>
      <point x="393" y="379"/>
      <point x="423" y="344"/>
      <point x="423" y="293" type="curve" smooth="yes"/>
      <point x="423" y="217"/>
      <point x="383" y="168"/>
      <point x="324" y="168" type="curve" smooth="yes"/>
    </contour>
    <contour>
      <point x="275" y="0" type="move" name="bottom"/>
    </contour>
    <contour>
      <point x="398" y="0" type="move" name="ogonek"/>
    </contour>
    <contour>
      <point x="384" y="547" type="move" name="top"/>
    </contour>
    <contour>
      <point x="480" y="547" type="move" name="topright"/>
    </contour>
    <contour>
      <point x="330" y="274" type="move" name="center"/>
    </contour>
  </outline>
</glyph>
<glyph name="p" format="1">
  <advance width="694"/>
  <unicode hex="0070"/>
  <outline>
    <contour>
      <point x="542" y="-10"/>
      <point x="674" y="124"/>
      <point x="674" y="304" type="curve" smooth="yes"/>
      <point x="674" y="467"/>
      <point x="559" y="557"/>
      <point x="452" y="557" type="curve" smooth="yes"/>
      <point x="320" y="557"/>
      <point x="235" y="450"/>
      <point x="207" y="273" type="curve" smooth="yes"/>
      <point x="173" y="58"/>
      <point x="261" y="-10"/>
      <point x="386" y="-10" type="curve" smooth="yes"/>
    </contour>
    <contour>
      <point x="182" y="-194" type="line"/>
      <point x="236" y="75" type="line"/>
      <point x="265" y="273" type="line"/>
      <point x="302" y="473" type="line"/>
      <point x="317" y="547" type="line"/>
      <point x="104" y="547" type="line"/>
      <point x="-44" y="-194" type="line"/>
    </contour>
    <contour>
      <point x="301" y="168"/>
      <point x="271" y="203"/>
      <point x="271" y="254" type="curve" smooth="yes"/>
      <point x="271" y="330"/>
      <point x="311" y="379"/>
      <point x="370" y="379" type="curve" smooth="yes"/>
      <point x="421" y="379"/>
      <point x="451" y="344"/>
      <point x="451" y="293" type="curve" smooth="yes"/>
      <point x="451" y="217"/>
      <point x="411" y="168"/>
      <point x="352" y="168" type="curve" smooth="yes"/>
    </contour>
    <contour>
      <point x="416" y="547" type="move" name="top"/>
    </contour>
    <contour>
      <point x="359" y="0" type="move" name="bottom"/>
    </contour>
  </outline>
</glyph>
<glyph name="q" format="1">
  <advance width="694"/>
  <unicode hex="0071"/>
  <outline>
    <contour>
      <point x="374" y="-10"/>
      <point x="459" y="97"/>
      <point x="487" y="274" type="curve" smooth="yes"/>
      <point x="521" y="489"/>
      <point x="433" y="557"/>
      <point x="308" y="557" type="curve" smooth="yes"/>
      <point x="152" y="557"/>
      <point x="20" y="423"/>
      <point x="20" y="243" type="curve" smooth="yes"/>
      <point x="20" y="80"/>
      <point x="135" y="-10"/>
      <point x="242" y="-10" type="curve" smooth="yes"/>
    </contour>
    <contour>
      <point x="273" y="168"/>
      <point x="243" y="203"/>
      <point x="243" y="254" type="curve" smooth="yes"/>
      <point x="243" y="330"/>
      <point x="283" y="379"/>
      <point x="342" y="379" type="curve" smooth="yes"/>
      <point x="393" y="379"/>
      <point x="423" y="344"/>
      <point x="423" y="293" type="curve" smooth="yes"/>
      <point x="423" y="217"/>
      <point x="383" y="168"/>
      <point x="324" y="168" type="curve" smooth="yes"/>
    </contour>
    <contour>
      <point x="551" y="-194" type="line"/>
      <point x="699" y="547" type="line"/>
      <point x="484" y="547" type="line"/>
      <point x="469" y="473" type="line"/>
      <point x="428" y="273" type="line"/>
      <point x="379" y="75" type="line"/>
      <point x="325" y="-194" type="line"/>
    </contour>
    <contour>
      <point x="388" y="547" type="move" name="top"/>
    </contour>
    <contour>
      <point x="228" y="0" type="move" name="bottom"/>
    </contour>
  </outline>
</glyph>
<glyph name="r" format="1">
  <advance width="456"/>
  <unicode hex="0072"/>
  <outline>
    <contour>
      <point x="221" y="0" type="line"/>
      <point x="272" y="253" type="line" smooth="yes"/>
      <point x="288" y="330"/>
      <point x="334" y="361"/>
      <point x="409" y="361" type="curve" smooth="yes"/>
      <point x="425" y="361"/>
      <point x="439" y="360"/>
      <point x="458" y="357" type="curve"/>
      <point x="498" y="557" type="line"/>
      <point x="394" y="557"/>
      <point x="310" y="522"/>
      <point x="265" y="436" type="curve"/>
      <point x="286" y="392" type="line"/>
      <point x="317" y="547" type="line"/>
      <point x="104" y="547" type="line"/>
      <point x="-5" y="0" type="line"/>
    </contour>
    <contour>
      <point x="299" y="547" type="move" name="top"/>
    </contour>
    <contour>
      <point x="108" y="0" type="move" name="bottom"/>
    </contour>
  </outline>
</glyph>
<glyph name="s" format="1">
  <advance width="565"/>
  <unicode hex="0073"/>
  <outline>
    <contour>
      <point x="391" y="-10"/>
      <point x="529" y="59"/>
      <point x="529" y="197" type="curve" smooth="yes"/>
      <point x="529" y="379"/>
      <point x="254" y="326"/>
      <point x="254" y="376" type="curve" smooth="yes"/>
      <point x="254" y="389"/>
      <point x="271" y="403"/>
      <point x="323" y="403" type="curve" smooth="yes"/>
      <point x="369" y="403"/>
      <point x="429" y="395"/>
      <point x="486" y="362" type="curve"/>
      <point x="564" y="516" type="line"/>
      <point x="507" y="542"/>
      <point x="430" y="557"/>
      <point x="350" y="557" type="curve" smooth="yes"/>
      <point x="179" y="557"/>
      <point x="42" y="490"/>
      <point x="42" y="348" type="curve" smooth="yes"/>
      <point x="42" y="166"/>
      <point x="318" y="217"/>
      <point x="318" y="170" type="curve" smooth="yes"/>
      <point x="318" y="155"/>
      <point x="301" y="144"/>
      <point x="250" y="144" type="curve" smooth="yes"/>
      <point x="188" y="144"/>
      <point x="113" y="161"/>
      <point x="59" y="194" type="curve"/>
      <point x="-19" y="40" type="line"/>
      <point x="29" y="12"/>
      <point x="123" y="-10"/>
      <point x="222" y="-10" type="curve" smooth="yes"/>
    </contour>
    <contour>
      <point x="330" y="547" type="move" name="top"/>
    </contour>
    <contour>
      <point x="221" y="0" type="move" name="bottom"/>
    </contour>
  </outline>
</glyph>
<glyph name="t" format="1">
  <advance width="460"/>
  <unicode hex="0074"/>
  <outline>
    <contour>
      <point x="310" y="-10"/>
      <point x="363" y="-1"/>
      <point x="405" y="22" type="curve"/>
      <point x="379" y="174" type="line"/>
      <point x="362" y="166"/>
      <point x="347" y="161"/>
      <point x="329" y="161" type="curve" smooth="yes"/>
      <point x="298" y="161"/>
      <point x="282" y="178"/>
      <point x="289" y="215" type="curve" smooth="yes"/>
      <point x="380" y="670" type="line"/>
      <point x="154" y="670" type="line"/>
      <point x="63" y="214" type="line" smooth="yes"/>
      <point x="34" y="71"/>
      <point x="116" y="-10"/>
      <point x="257" y="-10" type="curve" smooth="yes"/>
    </contour>
    <contour>
      <point x="428" y="352" type="line"/>
      <point x="461" y="517" type="line"/>
      <point x="48" y="517" type="line"/>
      <point x="15" y="352" type="line"/>
    </contour>
    <contour>
      <point x="219" y="0" type="move" name="bottom"/>
    </contour>
    <contour>
      <point x="267" y="670" type="move" name="top"/>
    </contour>
    <contour>
      <point x="442" y="742" type="move" name="topright"/>
    </contour>
    <contour>
      <point x="204" y="261" type="move" name="center"/>
    </contour>
  </outline>
</glyph>
<glyph name="u" format="1">
  <advance width="698"/>
  <unicode hex="0075"/>
  <outline>
    <contour>
      <point x="304" y="-10"/>
      <point x="386" y="27"/>
      <point x="438" y="111" type="curve"/>
      <point x="412" y="153" type="line"/>
      <point x="381" y="0" type="line"/>
      <point x="594" y="0" type="line"/>
      <point x="703" y="547" type="line"/>
      <point x="477" y="547" type="line"/>
      <point x="424" y="284" type="line" smooth="yes"/>
      <point x="410" y="213"/>
      <point x="375" y="180"/>
      <point x="325" y="180" type="curve" smooth="yes"/>
      <point x="285" y="180"/>
      <point x="261" y="209"/>
      <point x="274" y="272" type="curve" smooth="yes"/>
      <point x="329" y="547" type="line"/>
      <point x="103" y="547" type="line"/>
      <point x="41" y="235" type="line" smooth="yes"/>
      <point x="9" y="75"/>
      <point x="91" y="-10"/>
      <point x="220" y="-10" type="curve" smooth="yes"/>
    </contour>
    <contour>
      <point x="594" y="0" type="move" name="ogonek"/>
    </contour>
    <contour>
      <point x="403" y="547" type="move" name="top"/>
    </contour>
    <contour>
      <point x="590" y="547" type="move" name="topright"/>
    </contour>
    <contour>
      <point x="293" y="0" type="move" name="bottom"/>
    </contour>
  </outline>
</glyph>
<glyph name="v" format="1">
  <advance width="644"/>
  <unicode hex="0076"/>
  <outline>
    <contour>
      <point x="385" y="0" type="line"/>
      <point x="714" y="547" type="line"/>
      <point x="491" y="547" type="line"/>
      <point x="228" y="102" type="line"/>
      <point x="345" y="102" type="line"/>
      <point x="263" y="547" type="line"/>
      <point x="40" y="547" type="line"/>
      <point x="151" y="0" type="line"/>
    </contour>
    <contour>
      <point x="377" y="547" type="move" name="top"/>
    </contour>
    <contour>
      <point x="268" y="0" type="move" name="bottom"/>
    </contour>
  </outline>
</glyph>
<glyph name="w" format="1">
  <advance width="1040"/>
  <unicode hex="0077"/>
  <outline>
    <contour>
      <point x="376" y="0" type="line"/>
      <point x="567" y="352" type="line"/>
      <point x="497" y="352" type="line"/>
      <point x="556" y="0" type="line"/>
      <point x="790" y="0" type="line"/>
      <point x="1101" y="547" type="line"/>
      <point x="880" y="547" type="line"/>
      <point x="628" y="103" type="line"/>
      <point x="740" y="103" type="line"/>
      <point x="675" y="547" type="line"/>
      <point x="470" y="547" type="line"/>
      <point x="218" y="103" type="line"/>
      <point x="331" y="103" type="line"/>
      <point x="266" y="547" type="line"/>
      <point x="49" y="547" type="line"/>
      <point x="142" y="0" type="line"/>
    </contour>
    <contour>
      <point x="575" y="547" type="move" name="top"/>
    </contour>
    <contour>
      <point x="466" y="0" type="move" name="bottom"/>
    </contour>
  </outline>
</glyph>
<glyph name="x" format="1">
  <advance width="645"/>
  <unicode hex="0078"/>
  <outline>
    <contour>
      <point x="187" y="0" type="line"/>
      <point x="364" y="193" type="line"/>
      <point x="256" y="193" type="line"/>
      <point x="352" y="0" type="line"/>
      <point x="592" y="0" type="line"/>
      <point x="415" y="332" type="line"/>
      <point x="395" y="216" type="line"/>
      <point x="713" y="547" type="line"/>
      <point x="466" y="547" type="line"/>
      <point x="291" y="358" type="line"/>
      <point x="395" y="358" type="line"/>
      <point x="300" y="547" type="line"/>
      <point x="63" y="547" type="line"/>
      <point x="232" y="227" type="line"/>
      <point x="264" y="340" type="line"/>
      <point x="-68" y="0" type="line"/>
    </contour>
  </outline>
</glyph>
<glyph name="y" format="1">
  <advance width="644"/>
  <unicode hex="0079"/>
  <outline>
    <contour>
      <point x="211" y="-204"/>
      <point x="288" y="-161"/>
      <point x="378" y="-11" type="curve" smooth="yes"/>
      <point x="714" y="547" type="line"/>
      <point x="493" y="547" type="line"/>
      <point x="232" y="101" type="line"/>
      <point x="215" y="79" type="line"/>
      <point x="180" y="21" type="line" smooth="yes"/>
      <point x="160" y="-12"/>
      <point x="140" y="-29"/>
      <point x="104" y="-29" type="curve" smooth="yes"/>
      <point x="73" y="-29"/>
      <point x="44" y="-17"/>
      <point x="22" y="0" type="curve"/>
      <point x="-76" y="-157" type="line"/>
      <point x="-40" y="-185"/>
      <point x="25" y="-204"/>
      <point x="85" y="-204" type="curve" smooth="yes"/>
    </contour>
    <contour>
      <point x="346" y="121" type="line"/>
      <point x="265" y="547" type="line"/>
      <point x="40" y="547" type="line"/>
      <point x="164" y="-25" type="line"/>
    </contour>
    <contour>
      <point x="368" y="547" type="move" name="top"/>
    </contour>
    <contour>
      <point x="473" y="0" type="move" name="bottom"/>
    </contour>
  </outline>
</glyph>
<glyph name="z" format="1">
  <advance width="570"/>
  <unicode hex="007A"/>
  <outline>
    <contour>
      <point x="497" y="0" type="line"/>
      <point x="530" y="165" type="line"/>
      <point x="191" y="165" type="line"/>
      <point x="225" y="93" type="line"/>
      <point x="569" y="417" type="line"/>
      <point x="595" y="547" type="line"/>
      <point x="92" y="547" type="line"/>
      <point x="59" y="382" type="line"/>
      <point x="379" y="382" type="line"/>
      <point x="346" y="454" type="line"/>
      <point x="1" y="130" type="line"/>
      <point x="-25" y="0" type="line"/>
    </contour>
    <contour>
      <point x="344" y="547" type="move" name="top"/>
    </contour>
    <contour>
      <point x="235" y="0" type="move" name="bottom"/>
    </contour>
  </outline>
</glyph>
<glyph name="bar" format="1">
  <advance width="320"/>
  <unicode hex="007C"/>
  <outline>
    <contour>
      <point x="170" y="-194" type="line"/>
      <point x="357" y="742" type="line"/>
      <point x="151" y="742" type="line"/>
      <point x="-36" y="-194" type="line"/>
    </contour>
  </outline>
</glyph>
<glyph name="exclamdown" format="1">
  <advance width="314"/>
  <unicode hex="00A1"/>
  <outline>
    <contour>
      <point x="68" y="279" type="line"/>
      <point x="-63" y="-154" type="line"/>
      <point x="207" y="-154" type="line"/>
      <point x="248" y="279" type="line"/>
    </contour>
    <contour>
      <point x="118" y="557"/>
      <point x="58" y="500"/>
      <point x="58" y="427" type="curve" smooth="yes"/>
      <point x="58" y="366"/>
      <point x="109" y="319"/>
      <point x="183" y="319" type="curve" smooth="yes"/>
      <point x="262" y="319"/>
      <point x="322" y="372"/>
      <point x="322" y="447" type="curve" smooth="yes"/>
      <point x="322" y="508"/>
      <point x="271" y="557"/>
      <point x="197" y="557" type="curve" smooth="yes"/>
    </contour>
  </outline>
</glyph>
<glyph name="cent" format="1">
  <advance width="603"/>
  <unicode hex="00A2"/>
  <outline>
    <contour>
      <point x="178" y="-120" type="line"/>
      <point x="319" y="-120" type="line"/>
      <point x="476" y="667" type="line"/>
      <point x="335" y="667" type="line"/>
    </contour>
    <contour>
      <point x="439" y="-10"/>
      <point x="538" y="46"/>
      <point x="591" y="144" type="curve"/>
      <point x="431" y="238" type="line"/>
      <point x="405" y="187"/>
      <point x="373" y="168"/>
      <point x="329" y="168" type="curve" smooth="yes"/>
      <point x="273" y="168"/>
      <point x="243" y="205"/>
      <point x="243" y="257" type="curve" smooth="yes"/>
      <point x="243" y="330"/>
      <point x="287" y="379"/>
      <point x="348" y="379" type="curve" smooth="yes"/>
      <point x="386" y="379"/>
      <point x="419" y="360"/>
      <point x="438" y="309" type="curve"/>
      <point x="624" y="395" type="line"/>
      <point x="586" y="496"/>
      <point x="486" y="557"/>
      <point x="358" y="557" type="curve" smooth="yes"/>
      <point x="160" y="557"/>
      <point x="20" y="423"/>
      <point x="20" y="243" type="curve" smooth="yes"/>
      <point x="20" y="90"/>
      <point x="136" y="-10"/>
      <point x="313" y="-10" type="curve" smooth="yes"/>
    </contour>
  </outline>
</glyph>
<glyph name="sterling" format="1">
  <advance width="694"/>
  <unicode hex="00A3"/>
  <outline>
    <contour>
      <point x="305" y="20" type="line"/>
      <point x="382" y="405" type="line" smooth="yes"/>
      <point x="400" y="493"/>
      <point x="452" y="525"/>
      <point x="535" y="525" type="curve" smooth="yes"/>
      <point x="578" y="525"/>
      <point x="621" y="518"/>
      <point x="664" y="498" type="curve"/>
      <point x="758" y="672" type="line"/>
      <point x="707" y="700"/>
      <point x="637" y="716"/>
      <point x="552" y="716" type="curve" smooth="yes"/>
      <point x="348" y="716"/>
      <point x="190" y="623"/>
      <point x="145" y="400" type="curve" smooth="yes"/>
      <point x="69" y="20" type="line"/>
    </contour>
    <contour>
      <point x="605" y="0" type="line"/>
      <point x="641" y="178" type="line"/>
      <point x="11" y="178" type="line"/>
      <point x="-25" y="0" type="line"/>
    </contour>
    <contour>
      <point x="568" y="284" type="line"/>
      <point x="594" y="416" type="line"/>
      <point x="58" y="416" type="line"/>
      <point x="32" y="284" type="line"/>
    </contour>
  </outline>
</glyph>
<glyph name="yen" format="1">
  <advance width="770"/>
  <unicode hex="00A5"/>
  <outline>
    <contour>
      <point x="448" y="0" type="line"/>
      <point x="509" y="307" type="line"/>
      <point x="429" y="166" type="line"/>
      <point x="882" y="700" type="line"/>
      <point x="639" y="700" type="line"/>
      <point x="318" y="319" type="line"/>
      <point x="469" y="319" type="line"/>
      <point x="298" y="700" type="line"/>
      <point x="58" y="700" type="line"/>
      <point x="299" y="186" type="line"/>
      <point x="273" y="307" type="line"/>
      <point x="212" y="0" type="line"/>
    </contour>
    <contour>
      <point x="620" y="60" type="line"/>
      <point x="642" y="172" type="line"/>
      <point x="86" y="172" type="line"/>
      <point x="64" y="60" type="line"/>
    </contour>
    <contour>
      <point x="648" y="198" type="line"/>
      <point x="670" y="310" type="line"/>
      <point x="114" y="310" type="line"/>
      <point x="92" y="198" type="line"/>
    </contour>
  </outline>
</glyph>
<glyph name="brokenbar" format="1">
  <advance width="320"/>
  <unicode hex="00A6"/>
  <outline>
    <contour>
      <point x="287" y="392" type="line"/>
      <point x="357" y="742" type="line"/>
      <point x="151" y="742" type="line"/>
      <point x="81" y="392" type="line"/>
    </contour>
    <contour>
      <point x="170" y="-194" type="line"/>
      <point x="240" y="156" type="line"/>
      <point x="34" y="156" type="line"/>
      <point x="-36" y="-194" type="line"/>
    </contour>
  </outline>
</glyph>
<glyph name="logicalnot" format="1">
  <advance width="620"/>
  <unicode hex="00AC"/>
  <outline>
    <contour>
      <point x="87" y="435" type="line"/>
      <point x="53" y="265" type="line"/>
      <point x="383" y="265" type="line"/>
      <point x="349" y="95" type="line"/>
      <point x="529" y="95" type="line"/>
      <point x="597" y="435" type="line"/>
    </contour>
  </outline>
</glyph>
<glyph name="degree" format="1">
  <advance width="416"/>
  <unicode hex="00B0"/>
  <outline>
    <contour>
      <point x="362" y="349"/>
      <point x="447" y="428"/>
      <point x="447" y="530" type="curve" smooth="yes"/>
      <point x="447" y="632"/>
      <point x="362" y="711"/>
      <point x="259" y="711" type="curve" smooth="yes"/>
      <point x="156" y="711"/>
      <point x="71" y="632"/>
      <point x="71" y="530" type="curve" smooth="yes"/>
      <point x="71" y="428"/>
      <point x="156" y="349"/>
      <point x="259" y="349" type="curve" smooth="yes"/>
    </contour>
    <contour>
      <point x="215" y="453"/>
      <point x="183" y="487"/>
      <point x="183" y="530" type="curve" smooth="yes"/>
      <point x="183" y="573"/>
      <point x="215" y="607"/>
      <point x="259" y="607" type="curve" smooth="yes"/>
      <point x="303" y="607"/>
      <point x="335" y="573"/>
      <point x="335" y="530" type="curve" smooth="yes"/>
      <point x="335" y="487"/>
      <point x="303" y="453"/>
      <point x="259" y="453" type="curve" smooth="yes"/>
    </contour>
  </outline>
</glyph>
<glyph name="plusminus" format="1">
  <advance width="620"/>
  <unicode hex="00B1"/>
  <outline>
    <contour>
      <point x="510" y="0" type="line"/>
      <point x="544" y="170" type="line"/>
      <point x="34" y="170" type="line"/>
      <point x="0" y="0" type="line"/>
    </contour>
    <contour>
      <point x="392" y="235" type="line"/>
      <point x="485" y="700" type="line"/>
      <point x="305" y="700" type="line"/>
      <point x="212" y="235" type="line"/>
    </contour>
    <contour>
      <point x="587" y="387" type="line"/>
      <point x="620" y="548" type="line"/>
      <point x="110" y="548" type="line"/>
      <point x="77" y="387" type="line"/>
    </contour>
  </outline>
</glyph>
<glyph name="paragraph" format="1">
  <advance width="730"/>
  <unicode hex="00B6"/>
  <outline>
    <contour>
      <point x="336" y="-100" type="line"/>
      <point x="473" y="587" type="line"/>
      <point x="553" y="587" type="line"/>
      <point x="416" y="-100" type="line"/>
      <point x="598" y="-100" type="line"/>
      <point x="766" y="742" type="line"/>
      <point x="371" y="742" type="line" smooth="yes"/>
      <point x="204" y="742"/>
      <point x="91" y="692"/>
      <point x="62" y="547" type="curve" smooth="yes"/>
      <point x="36" y="414"/>
      <point x="128" y="340"/>
      <point x="241" y="333" type="curve"/>
      <point x="154" y="-100" type="line"/>
    </contour>
  </outline>
</glyph>
<glyph name="periodcentered" format="1">
  <advance width="344"/>
  <unicode hex="00B7"/>
  <outline>
    <contour>
      <point x="243" y="160"/>
      <point x="307" y="215"/>
      <point x="307" y="299" type="curve" smooth="yes"/>
      <point x="307" y="370"/>
      <point x="258" y="418"/>
      <point x="184" y="418" type="curve" smooth="yes"/>
      <point x="105" y="418"/>
      <point x="42" y="363"/>
      <point x="42" y="279" type="curve" smooth="yes"/>
      <point x="42" y="210"/>
      <point x="93" y="160"/>
      <point x="166" y="160" type="curve" smooth="yes"/>
    </contour>
  </outline>
</glyph>
<glyph name="AE" format="1">
  <advance width="1124"/>
  <unicode hex="00C6"/>
  <outline>
    <contour>
      <point x="180" y="0" type="line"/>
      <point x="604" y="616" type="line"/>
      <point x="439" y="522" type="line"/>
      <point x="638" y="522" type="line"/>
      <point x="674" y="700" type="line"/>
      <point x="430" y="700" type="line"/>
      <point x="-74" y="0" type="line"/>
    </contour>
    <contour>
      <point x="558" y="122" type="line"/>
      <point x="592" y="292" type="line"/>
      <point x="227" y="292" type="line"/>
      <point x="193" y="122" type="line"/>
    </contour>
    <contour>
      <point x="1035" y="0" type="line"/>
      <point x="1071" y="178" type="line"/>
      <point x="720" y="178" type="line"/>
      <point x="789" y="522" type="line"/>
      <point x="1126" y="522" type="line"/>
      <point x="1162" y="700" type="line"/>
      <point x="593" y="700" type="line"/>
      <point x="453" y="0" type="line"/>
    </contour>
    <contour>
      <point x="1035" y="270" type="line"/>
      <point x="1069" y="440" type="line"/>
      <point x="757" y="440" type="line"/>
      <point x="723" y="270" type="line"/>
    </contour>
    <contour>
      <point x="709" y="700" type="move" name="top"/>
    </contour>
    <contour>
      <point x="569" y="0" type="move" name="bottom"/>
    </contour>
  </outline>
</glyph>
<glyph name="multiply" format="1">
  <advance width="620"/>
  <unicode hex="00D7"/>
  <outline>
    <contour>
      <point x="178" y="110" type="line"/>
      <point x="585" y="465" type="line"/>
      <point x="472" y="590" type="line"/>
      <point x="65" y="235" type="line"/>
    </contour>
    <contour>
      <point x="416" y="110" type="line"/>
      <point x="549" y="226" type="line"/>
      <point x="234" y="590" type="line"/>
      <point x="101" y="474" type="line"/>
    </contour>
  </outline>
</glyph>
<glyph name="Oslash" format="1">
  <advance width="848"/>
  <unicode hex="00D8"/>
  <outline>
    <component base="O"/>
    <component base="slashlongcomb.case" xOffset="23"/>
    <contour>
      <point x="509" y="700" type="move" name="top"/>
    </contour>
    <contour>
      <point x="369" y="0" type="move" name="bottom"/>
    </contour>
  </outline>
</glyph>
<glyph name="Thorn" format="1">
  <advance width="743"/>
  <unicode hex="00DE"/>
  <outline>
    <contour>
      <point x="379" y="105" type="line" smooth="yes"/>
      <point x="594" y="105"/>
      <point x="733" y="224"/>
      <point x="733" y="401" type="curve" smooth="yes"/>
      <point x="733" y="547"/>
      <point x="627" y="633"/>
      <point x="442" y="633" type="curve" smooth="yes"/>
      <point x="316" y="633" type="line"/>
      <point x="280" y="451" type="line"/>
      <point x="406" y="451" type="line" smooth="yes"/>
      <point x="460" y="451"/>
      <point x="494" y="430"/>
      <point x="494" y="380" type="curve" smooth="yes"/>
      <point x="494" y="321"/>
      <point x="456" y="287"/>
      <point x="391" y="287" type="curve" smooth="yes"/>
      <point x="247" y="287" type="line"/>
      <point x="211" y="105" type="line"/>
    </contour>
    <contour>
      <point x="238" y="0" type="line"/>
      <point x="378" y="701" type="line"/>
      <point x="142" y="701" type="line"/>
      <point x="2" y="0" type="line"/>
    </contour>
  </outline>
</glyph>
<glyph name="ae" format="1">
  <advance width="999"/>
  <unicode hex="00E6"/>
  <outline>
    <contour>
      <point x="345" y="-10"/>
      <point x="424" y="21"/>
      <point x="499" y="155" type="curve"/>
      <point x="391" y="155" type="line"/>
      <point x="436" y="35"/>
      <point x="555" y="-10"/>
      <point x="666" y="-10" type="curve" smooth="yes"/>
      <point x="749" y="-10"/>
      <point x="829" y="7"/>
      <point x="904" y="58" type="curve"/>
      <point x="812" y="195" type="line"/>
      <point x="777" y="169"/>
      <point x="733" y="157"/>
      <point x="691" y="157" type="curve" smooth="yes"/>
      <point x="619" y="157"/>
      <point x="581" y="183"/>
      <point x="581" y="251" type="curve" smooth="yes"/>
      <point x="581" y="327"/>
      <point x="609" y="403"/>
      <point x="693" y="403" type="curve" smooth="yes"/>
      <point x="751" y="403"/>
      <point x="788" y="364"/>
      <point x="773" y="301" type="curve"/>
      <point x="819" y="328" type="line"/>
      <point x="580" y="328" type="line"/>
      <point x="558" y="219" type="line"/>
      <point x="969" y="219" type="line"/>
      <point x="976" y="250"/>
      <point x="981" y="282"/>
      <point x="981" y="316" type="curve" smooth="yes"/>
      <point x="981" y="457"/>
      <point x="878" y="557"/>
      <point x="703" y="557" type="curve" smooth="yes"/>
      <point x="593" y="557"/>
      <point x="538" y="520"/>
      <point x="472" y="451" type="curve"/>
      <point x="554" y="451" type="line"/>
      <point x="512" y="524"/>
      <point x="438" y="557"/>
      <point x="311" y="557" type="curve" smooth="yes"/>
      <point x="239" y="557"/>
      <point x="146" y="541"/>
      <point x="84" y="508" type="curve"/>
      <point x="134" y="359" type="line"/>
      <point x="171" y="377"/>
      <point x="223" y="389"/>
      <point x="267" y="389" type="curve" smooth="yes"/>
      <point x="337" y="389"/>
      <point x="374" y="360"/>
      <point x="364" y="307" type="curve" smooth="yes"/>
      <point x="343" y="200" type="line" smooth="yes"/>
      <point x="333" y="149"/>
      <point x="309" y="126"/>
      <point x="270" y="126" type="curve" smooth="yes"/>
      <point x="237" y="126"/>
      <point x="216" y="145"/>
      <point x="216" y="168" type="curve" smooth="yes"/>
      <point x="216" y="200"/>
      <point x="242" y="219"/>
      <point x="286" y="219" type="curve" smooth="yes"/>
      <point x="363" y="219" type="line"/>
      <point x="385" y="328" type="line"/>
      <point x="263" y="328" type="line" smooth="yes"/>
      <point x="97" y="328"/>
      <point x="2" y="264"/>
      <point x="2" y="150" type="curve" smooth="yes"/>
      <point x="2" y="60"/>
      <point x="88" y="-10"/>
      <point x="225" y="-10" type="curve" smooth="yes"/>
    </contour>
    <contour>
      <point x="525" y="547" type="move" name="top"/>
    </contour>
  </outline>
</glyph>
<glyph name="eth" format="1">
  <advance width="664"/>
  <unicode hex="00F0"/>
  <outline>
    <contour>
      <point x="512" y="-16"/>
      <point x="666" y="189"/>
      <point x="666" y="437" type="curve" smooth="yes"/>
      <point x="666" y="637"/>
      <point x="530" y="758"/>
      <point x="322" y="758" type="curve" smooth="yes"/>
      <point x="265" y="758"/>
      <point x="217" y="752"/>
      <point x="163" y="741" type="curve"/>
      <point x="151" y="578" type="line"/>
      <point x="194" y="591"/>
      <point x="240" y="596"/>
      <point x="276" y="596" type="curve" smooth="yes"/>
      <point x="400" y="596"/>
      <point x="457" y="518"/>
      <point x="432" y="387" type="curve" smooth="yes"/>
      <point x="424" y="347"/>
      <point x="421" y="328"/>
      <point x="417" y="308" type="curve"/>
      <point x="478" y="335" type="line"/>
      <point x="451" y="414"/>
      <point x="388" y="453"/>
      <point x="290" y="453" type="curve" smooth="yes"/>
      <point x="129" y="453"/>
      <point x="10" y="347"/>
      <point x="10" y="198" type="curve" smooth="yes"/>
      <point x="10" y="74"/>
      <point x="107" y="-16"/>
      <point x="266" y="-16" type="curve" smooth="yes"/>
    </contour>
    <contour>
      <point x="261" y="147"/>
      <point x="233" y="173"/>
      <point x="233" y="213" type="curve" smooth="yes"/>
      <point x="233" y="258"/>
      <point x="267" y="290"/>
      <point x="317" y="290" type="curve" smooth="yes"/>
      <point x="360" y="290"/>
      <point x="388" y="265"/>
      <point x="388" y="224" type="curve" smooth="yes"/>
      <point x="388" y="178"/>
      <point x="354" y="147"/>
      <point x="304" y="147" type="curve" smooth="yes"/>
    </contour>
    <contour>
      <point x="701" y="629" type="line"/>
      <point x="672" y="718" type="line"/>
      <point x="157" y="542" type="line"/>
      <point x="186" y="453" type="line"/>
    </contour>
  </outline>
</glyph>
<glyph name="divide" format="1">
  <advance width="620"/>
  <unicode hex="00F7"/>
  <outline>
    <contour>
      <point x="563" y="265" type="line"/>
      <point x="597" y="435" type="line"/>
      <point x="87" y="435" type="line"/>
      <point x="53" y="265" type="line"/>
    </contour>
    <contour>
      <point x="338" y="20"/>
      <point x="393" y="71"/>
      <point x="393" y="141" type="curve" smooth="yes"/>
      <point x="393" y="200"/>
      <point x="348" y="238"/>
      <point x="289" y="238" type="curve" smooth="yes"/>
      <point x="222" y="238"/>
      <point x="167" y="190"/>
      <point x="167" y="119" type="curve" smooth="yes"/>
      <point x="167" y="61"/>
      <point x="212" y="20"/>
      <point x="271" y="20" type="curve" smooth="yes"/>
    </contour>
    <contour>
      <point x="427" y="462"/>
      <point x="482" y="513"/>
      <point x="482" y="583" type="curve" smooth="yes"/>
      <point x="482" y="642"/>
      <point x="437" y="680"/>
      <point x="378" y="680" type="curve" smooth="yes"/>
      <point x="311" y="680"/>
      <point x="256" y="632"/>
      <point x="256" y="561" type="curve" smooth="yes"/>
      <point x="256" y="503"/>
      <point x="301" y="462"/>
      <point x="360" y="462" type="curve" smooth="yes"/>
    </contour>
  </outline>
</glyph>
<glyph name="oslash" format="1">
  <advance width="666"/>
  <unicode hex="00F8"/>
  <outline>
    <component base="o"/>
    <component base="slashlongcomb" xOffset="2"/>
    <contour>
      <point x="387" y="547" type="move" name="top"/>
    </contour>
  </outline>
</glyph>
<glyph name="thorn" format="1">
  <advance width="694"/>
  <unicode hex="00FE"/>
  <outline>
    <contour>
      <point x="182" y="-194" type="line"/>
      <point x="237" y="81" type="line"/>
      <point x="266" y="273" type="line"/>
      <point x="304" y="473" type="line"/>
      <point x="358" y="742" type="line"/>
      <point x="143" y="742" type="line"/>
      <point x="-44" y="-194" type="line"/>
    </contour>
    <contour>
      <point x="542" y="-10"/>
      <point x="674" y="124"/>
      <point x="674" y="304" type="curve" smooth="yes"/>
      <point x="674" y="467"/>
      <point x="559" y="557"/>
      <point x="452" y="557" type="curve" smooth="yes"/>
      <point x="320" y="557"/>
      <point x="235" y="450"/>
      <point x="207" y="273" type="curve" smooth="yes"/>
      <point x="173" y="58"/>
      <point x="261" y="-10"/>
      <point x="386" y="-10" type="curve" smooth="yes"/>
    </contour>
    <contour>
      <point x="301" y="168"/>
      <point x="271" y="203"/>
      <point x="271" y="254" type="curve" smooth="yes"/>
      <point x="271" y="330"/>
      <point x="311" y="379"/>
      <point x="370" y="379" type="curve" smooth="yes"/>
      <point x="421" y="379"/>
      <point x="451" y="344"/>
      <point x="451" y="293" type="curve" smooth="yes"/>
      <point x="451" y="217"/>
      <point x="411" y="168"/>
      <point x="352" y="168" type="curve" smooth="yes"/>
    </contour>
    <contour>
      <point x="466" y="547" type="move" name="top"/>
    </contour>
    <contour>
      <point x="357" y="0" type="move" name="bottom"/>
    </contour>
  </outline>
</glyph>
<glyph name="Dcroat" format="1">
  <advance width="846"/>
  <unicode hex="0110"/>
  <outline>
    <component base="Eth"/>
    <contour>
      <point x="197" y="351" type="move" name="center"/>
    </contour>
    <contour>
      <point x="309" y="0" type="move" name="bottom"/>
    </contour>
    <contour>
      <point x="437" y="701" type="move" name="top"/>
    </contour>
  </outline>
</glyph>
<glyph name="idotless" format="1">
  <advance width="325"/>
  <unicode hex="0131"/>
  <outline>
    <contour>
      <point x="220" y="0" type="line"/>
      <point x="329" y="547" type="line"/>
      <point x="104" y="547" type="line"/>
      <point x="-5" y="0" type="line"/>
    </contour>
    <contour>
      <point x="220" y="0" type="move" name="ogonek"/>
    </contour>
    <contour>
      <point x="108" y="0" type="move" name="bottom"/>
    </contour>
    <contour>
      <point x="217" y="547" type="move" name="top"/>
    </contour>
  </outline>
</glyph>
<glyph name="IJ" format="1">
  <advance width="729"/>
  <unicode hex="0132"/>
  <outline>
    <contour>
      <point x="508" y="-16"/>
      <point x="640" y="87"/>
      <point x="684" y="305" type="curve" smooth="yes"/>
      <point x="763" y="700" type="line"/>
      <point x="527" y="700" type="line"/>
      <point x="450" y="313" type="line" smooth="yes"/>
      <point x="430" y="211"/>
      <point x="390" y="172"/>
      <point x="307" y="172" type="curve" smooth="yes"/>
      <point x="240" y="172"/>
      <point x="170" y="194"/>
      <point x="106" y="238" type="curve"/>
      <point x="-8" y="69" type="line"/>
      <point x="66" y="17"/>
      <point x="163" y="-16"/>
      <point x="297" y="-16" type="curve" smooth="yes"/>
    </contour>
    <contour>
      <point x="299" y="336" type="line"/>
      <point x="372" y="700" type="line"/>
      <point x="136" y="700" type="line"/>
      <point x="63" y="336" type="line"/>
    </contour>
    <contour>
      <point x="254" y="700" type="move" name="top"/>
    </contour>
  </outline>
</glyph>
<glyph name="kgreenlandic" format="1">
  <advance width="690"/>
  <unicode hex="0138"/>
  <outline>
    <contour>
      <point x="321" y="179" type="line"/>
      <point x="452" y="275" type="line"/>
      <point x="754" y="547" type="line"/>
      <point x="476" y="547" type="line"/>
      <point x="260" y="357" type="line"/>
      <point x="210" y="75" type="line"/>
    </contour>
    <contour>
      <point x="221" y="0" type="line"/>
      <point x="330" y="547" type="line"/>
      <point x="104" y="547" type="line"/>
      <point x="-5" y="0" type="line"/>
    </contour>
    <contour>
      <point x="659" y="0" type="line"/>
      <point x="443" y="361" type="line"/>
      <point x="282" y="190" type="line"/>
      <point x="394" y="0" type="line"/>
    </contour>
    <contour>
      <point x="377" y="547" type="move" name="top"/>
    </contour>
    <contour>
      <point x="268" y="0" type="move" name="bottom"/>
    </contour>
  </outline>
</glyph>
<glyph name="OE" format="1">
  <advance width="1149"/>
  <unicode hex="0152"/>
  <outline>
    <contour>
      <point x="538" y="0" type="line"/>
      <point x="575" y="184" type="line"/>
      <point x="425" y="184" type="line" smooth="yes"/>
      <point x="330" y="184"/>
      <point x="279" y="230"/>
      <point x="279" y="311" type="curve" smooth="yes"/>
      <point x="279" y="426"/>
      <point x="346" y="516"/>
      <point x="471" y="516" type="curve" smooth="yes"/>
      <point x="641" y="516" type="line"/>
      <point x="678" y="700" type="line"/>
      <point x="479" y="700" type="line" smooth="yes"/>
      <point x="224" y="700"/>
      <point x="41" y="544"/>
      <point x="41" y="297" type="curve" smooth="yes"/>
      <point x="41" y="113"/>
      <point x="177" y="0"/>
      <point x="398" y="0" type="curve" smooth="yes"/>
    </contour>
    <contour>
      <point x="1060" y="0" type="line"/>
      <point x="1096" y="178" type="line"/>
      <point x="745" y="178" type="line"/>
      <point x="814" y="522" type="line"/>
      <point x="1151" y="522" type="line"/>
      <point x="1187" y="700" type="line"/>
      <point x="618" y="700" type="line"/>
      <point x="478" y="0" type="line"/>
    </contour>
    <contour>
      <point x="1060" y="270" type="line"/>
      <point x="1094" y="440" type="line"/>
      <point x="782" y="440" type="line"/>
      <point x="748" y="270" type="line"/>
    </contour>
    <contour>
      <point x="734" y="700" type="move" name="top"/>
    </contour>
    <contour>
      <point x="594" y="0" type="move" name="bottom"/>
    </contour>
  </outline>
</glyph>
<glyph name="oe" format="1">
  <advance width="1056"/>
  <unicode hex="0153"/>
  <outline>
    <contour>
      <point x="488" y="-10"/>
      <point x="621" y="124"/>
      <point x="621" y="304" type="curve" smooth="yes"/>
      <point x="621" y="457"/>
      <point x="512" y="557"/>
      <point x="342" y="557" type="curve" smooth="yes"/>
      <point x="153" y="557"/>
      <point x="20" y="423"/>
      <point x="20" y="243" type="curve" smooth="yes"/>
      <point x="20" y="90"/>
      <point x="129" y="-10"/>
      <point x="299" y="-10" type="curve" smooth="yes"/>
    </contour>
    <contour>
      <point x="273" y="168"/>
      <point x="243" y="203"/>
      <point x="243" y="254" type="curve" smooth="yes"/>
      <point x="243" y="330"/>
      <point x="283" y="379"/>
      <point x="342" y="379" type="curve" smooth="yes"/>
      <point x="393" y="379"/>
      <point x="423" y="344"/>
      <point x="423" y="293" type="curve" smooth="yes"/>
      <point x="423" y="217"/>
      <point x="383" y="168"/>
      <point x="324" y="168" type="curve" smooth="yes"/>
    </contour>
    <contour>
      <point x="806" y="-10"/>
      <point x="886" y="7"/>
      <point x="961" y="58" type="curve"/>
      <point x="869" y="195" type="line"/>
      <point x="834" y="169"/>
      <point x="790" y="157"/>
      <point x="750" y="157" type="curve" smooth="yes"/>
      <point x="676" y="157"/>
      <point x="638" y="183"/>
      <point x="638" y="251" type="curve" smooth="yes"/>
      <point x="638" y="327"/>
      <point x="666" y="403"/>
      <point x="750" y="403" type="curve" smooth="yes"/>
      <point x="808" y="403"/>
      <point x="845" y="364"/>
      <point x="830" y="301" type="curve"/>
      <point x="926" y="330" type="line"/>
      <point x="620" y="330" type="line"/>
      <point x="598" y="221" type="line"/>
      <point x="1026" y="221" type="line"/>
      <point x="1033" y="250"/>
      <point x="1038" y="282"/>
      <point x="1038" y="316" type="curve" smooth="yes"/>
      <point x="1038" y="457"/>
      <point x="935" y="557"/>
      <point x="760" y="557" type="curve" smooth="yes"/>
      <point x="573" y="557"/>
      <point x="440" y="423"/>
      <point x="440" y="243" type="curve" smooth="yes"/>
      <point x="440" y="88"/>
      <point x="562" y="-10"/>
      <point x="723" y="-10" type="curve" smooth="yes"/>
    </contour>
    <contour>
      <point x="588" y="547" type="move" name="top"/>
    </contour>
    <contour>
      <point x="479" y="0" type="move" name="bottom"/>
    </contour>
  </outline>
</glyph>
<glyph name="Schwa" format="1">
  <advance width="818"/>
  <unicode hex="018F"/>
  <outline>
    <contour>
      <point x="623" y="-16"/>
      <point x="804" y="138"/>
      <point x="804" y="393" type="curve" smooth="yes"/>
      <point x="804" y="587"/>
      <point x="657" y="716"/>
      <point x="440" y="716" type="curve" smooth="yes"/>
      <point x="322" y="716"/>
      <point x="207" y="678"/>
      <point x="119" y="604" type="curve"/>
      <point x="228" y="451" type="line"/>
      <point x="286" y="500"/>
      <point x="352" y="525"/>
      <point x="422" y="525" type="curve" smooth="yes"/>
      <point x="511" y="525"/>
      <point x="567" y="474"/>
      <point x="567" y="391" type="curve" smooth="yes"/>
      <point x="567" y="318"/>
      <point x="542" y="157"/>
      <point x="400" y="157" type="curve" smooth="yes"/>
      <point x="307" y="157"/>
      <point x="270" y="212"/>
      <point x="270" y="268" type="curve" smooth="yes"/>
      <point x="270" y="284"/>
      <point x="272" y="298"/>
      <point x="276" y="312" type="curve"/>
      <point x="190" y="268" type="line"/>
      <point x="575" y="268" type="line"/>
      <point x="601" y="398" type="line"/>
      <point x="54" y="398" type="line"/>
      <point x="43" y="355"/>
      <point x="38" y="314"/>
      <point x="38" y="284" type="curve" smooth="yes"/>
      <point x="38" y="109"/>
      <point x="180" y="-16"/>
      <point x="393" y="-16" type="curve" smooth="yes"/>
    </contour>
    <contour>
      <point x="494" y="700" type="move" name="top"/>
    </contour>
    <contour>
      <point x="354" y="0" type="move" name="bottom"/>
    </contour>
  </outline>
</glyph>
<glyph name="florin" format="1">
  <advance width="519"/>
  <unicode hex="0192"/>
  <outline>
    <contour>
      <point x="102" y="-204"/>
      <point x="206" y="-136"/>
      <point x="253" y="10" type="curve" smooth="yes"/>
      <point x="379" y="399" type="line"/>
      <point x="401" y="492" type="line"/>
      <point x="410" y="518" type="line" smooth="yes"/>
      <point x="423" y="562"/>
      <point x="452" y="581"/>
      <point x="484" y="581" type="curve" smooth="yes"/>
      <point x="502" y="581"/>
      <point x="517" y="577"/>
      <point x="531" y="568" type="curve"/>
      <point x="636" y="725" type="line"/>
      <point x="608" y="743"/>
      <point x="558" y="752"/>
      <point x="500" y="752" type="curve" smooth="yes"/>
      <point x="354" y="752"/>
      <point x="244" y="680"/>
      <point x="192" y="520" type="curve" smooth="yes"/>
      <point x="34" y="30" type="line" smooth="yes"/>
      <point x="20" y="-14"/>
      <point x="-7" y="-33"/>
      <point x="-34" y="-33" type="curve" smooth="yes"/>
      <point x="-52" y="-33"/>
      <point x="-68" y="-28"/>
      <point x="-81" y="-20" type="curve"/>
      <point x="-181" y="-170" type="line"/>
      <point x="-152" y="-188"/>
      <point x="-98" y="-204"/>
      <point x="-35" y="-204" type="curve" smooth="yes"/>
    </contour>
    <contour>
      <point x="475" y="352" type="line"/>
      <point x="528" y="517" type="line"/>
      <point x="115" y="517" type="line"/>
      <point x="62" y="352" type="line"/>
    </contour>
  </outline>
</glyph>
<glyph name="ohorn" format="1">
  <advance width="666"/>
  <unicode hex="01A1"/>
  <outline>
    <contour>
      <point x="507" y="-10"/>
      <point x="646" y="124"/>
      <point x="646" y="304" type="curve" smooth="yes"/>
      <point x="646" y="373"/>
      <point x="624" y="431"/>
      <point x="578" y="477" type="curve"/>
      <point x="447" y="404" type="line"/>
      <point x="465" y="401"/>
      <point x="482" y="399"/>
      <point x="500" y="399" type="curve" smooth="yes"/>
      <point x="632" y="399"/>
      <point x="720" y="471"/>
      <point x="720" y="599" type="curve" smooth="yes"/>
      <point x="720" y="644"/>
      <point x="706" y="681"/>
      <point x="683" y="710" type="curve"/>
      <point x="535" y="665" type="line"/>
      <point x="547" y="651"/>
      <point x="555" y="630"/>
      <point x="555" y="608" type="curve" smooth="yes"/>
      <point x="555" y="571"/>
      <point x="528" y="547"/>
      <point x="495" y="547" type="curve" smooth="yes"/>
      <point x="457" y="547"/>
      <point x="427" y="557"/>
      <point x="355" y="557" type="curve" smooth="yes"/>
      <point x="159" y="557"/>
      <point x="20" y="423"/>
      <point x="20" y="243" type="curve" smooth="yes"/>
      <point x="20" y="90"/>
      <point x="134" y="-10"/>
      <point x="311" y="-10" type="curve" smooth="yes"/>
    </contour>
    <contour>
      <point x="273" y="168"/>
      <point x="243" y="203"/>
      <point x="243" y="254" type="curve" smooth="yes"/>
      <point x="243" y="330"/>
      <point x="283" y="379"/>
      <point x="342" y="379" type="curve" smooth="yes"/>
      <point x="393" y="379"/>
      <point x="423" y="344"/>
      <point x="423" y="293" type="curve" smooth="yes"/>
      <point x="423" y="217"/>
      <point x="383" y="168"/>
      <point x="324" y="168" type="curve" smooth="yes"/>
    </contour>
    <contour>
      <point x="387" y="547" type="move" name="top"/>
    </contour>
    <contour>
      <point x="278" y="0" type="move" name="bottom"/>
    </contour>
  </outline>
</glyph>
<glyph name="oogonek" format="1">
  <advance width="666"/>
  <unicode hex="01EB"/>
  <outline>
    <contour>
      <point x="315" y="-240"/>
      <point x="353" y="-230"/>
      <point x="380" y="-217" type="curve"/>
      <point x="371" y="-124" type="line"/>
      <point x="355" y="-131"/>
      <point x="333" y="-138"/>
      <point x="311" y="-138" type="curve" smooth="yes"/>
      <point x="283" y="-138"/>
      <point x="265" y="-122"/>
      <point x="265" y="-97" type="curve" smooth="yes"/>
      <point x="265" y="-66"/>
      <point x="286" y="-29"/>
      <point x="402" y="0" type="curve" smooth="yes"/>
      <point x="546" y="36"/>
      <point x="646" y="150"/>
      <point x="646" y="304" type="curve" smooth="yes"/>
      <point x="646" y="457"/>
      <point x="532" y="557"/>
      <point x="355" y="557" type="curve" smooth="yes"/>
      <point x="159" y="557"/>
      <point x="20" y="423"/>
      <point x="20" y="243" type="curve" smooth="yes"/>
      <point x="20" y="90"/>
      <point x="134" y="-10"/>
      <point x="311" y="-10" type="curve" smooth="yes"/>
      <point x="327" y="-10"/>
      <point x="343" y="-9"/>
      <point x="359" y="-7" type="curve"/>
      <point x="291" y="37" type="line"/>
      <point x="195" y="1"/>
      <point x="126" y="-55"/>
      <point x="126" y="-132" type="curve" smooth="yes"/>
      <point x="126" y="-200"/>
      <point x="184" y="-240"/>
      <point x="272" y="-240" type="curve" smooth="yes"/>
    </contour>
    <contour>
      <point x="273" y="168"/>
      <point x="243" y="203"/>
      <point x="243" y="254" type="curve" smooth="yes"/>
      <point x="243" y="330"/>
      <point x="283" y="379"/>
      <point x="342" y="379" type="curve" smooth="yes"/>
      <point x="393" y="379"/>
      <point x="423" y="344"/>
      <point x="423" y="293" type="curve" smooth="yes"/>
      <point x="423" y="217"/>
      <point x="383" y="168"/>
      <point x="324" y="168" type="curve" smooth="yes"/>
    </contour>
    <contour>
      <point x="384" y="547" type="move" name="top"/>
    </contour>
  </outline>
</glyph>
<glyph name="jdotless" format="1">
  <advance width="333"/>
  <unicode hex="0237"/>
  <outline>
    <contour>
      <point x="112" y="-204"/>
      <point x="205" y="-122"/>
      <point x="237" y="38" type="curve" smooth="yes"/>
      <point x="339" y="547" type="line"/>
      <point x="113" y="547" type="line"/>
      <point x="10" y="30" type="line" smooth="yes"/>
      <point x="1" y="-14"/>
      <point x="-18" y="-33"/>
      <point x="-48" y="-33" type="curve" smooth="yes"/>
      <point x="-64" y="-33"/>
      <point x="-83" y="-28"/>
      <point x="-98" y="-20" type="curve"/>
      <point x="-183" y="-177" type="line"/>
      <point x="-142" y="-195"/>
      <point x="-93" y="-204"/>
      <point x="-40" y="-204" type="curve" smooth="yes"/>
    </contour>
    <contour>
      <point x="226" y="547" type="move" name="top"/>
    </contour>
  </outline>
</glyph>
<glyph name="primemod" format="1">
  <advance width="254"/>
  <unicode hex="02B9"/>
  <outline>
    <contour>
      <point x="233" y="400" type="line"/>
      <point x="308" y="700" type="line"/>
      <point x="118" y="700" type="line"/>
      <point x="73" y="400" type="line"/>
    </contour>
  </outline>
</glyph>
<glyph name="apostrophemod" format="1">
  <advance width="202"/>
  <unicode hex="02BC"/>
  <outline>
    <contour>
      <point x="176" y="436" type="line"/>
      <point x="259" y="700" type="line"/>
      <point x="114" y="700" type="line"/>
      <point x="61" y="436" type="line"/>
    </contour>
  </outline>
</glyph>
<glyph name="ringhalfright" format="1">
  <advance width="600"/>
  <unicode hex="02BE"/>
  <outline>
    <contour>
      <point x="363" y="594" type="line"/>
      <point x="372" y="592"/>
      <point x="380" y="592"/>
      <point x="389" y="592" type="curve" smooth="yes"/>
      <point x="468" y="592"/>
      <point x="529" y="651"/>
      <point x="529" y="726" type="curve" smooth="yes"/>
      <point x="529" y="792"/>
      <point x="481" y="846"/>
      <point x="416" y="858" type="curve"/>
      <point x="400" y="779" type="line"/>
      <point x="425" y="774"/>
      <point x="443" y="754"/>
      <point x="443" y="726" type="curve" smooth="yes"/>
      <point x="443" y="694"/>
      <point x="419" y="672"/>
      <point x="389" y="672" type="curve" smooth="yes"/>
      <point x="386" y="672"/>
      <point x="382" y="672"/>
      <point x="379" y="673" type="curve"/>
    </contour>
  </outline>
</glyph>
<glyph name="verticallinemod" format="1">
  <advance width="202"/>
  <unicode hex="02C8"/>
  <outline>
    <contour>
      <point x="218" y="497" type="line"/>
      <point x="259" y="701" type="line"/>
      <point x="115" y="701" type="line"/>
      <point x="74" y="497" type="line"/>
    </contour>
  </outline>
</glyph>
<glyph name="firsttonechinese" format="1">
  <advance width="600"/>
  <unicode hex="02C9"/>
  <outline>
    <contour>
      <point x="581" y="628" type="line"/>
      <point x="605" y="746" type="line"/>
      <point x="185" y="746" type="line"/>
      <point x="161" y="628" type="line"/>
    </contour>
    <contour>
      <point x="392" y="730" type="move" name="top"/>
    </contour>
    <contour>
      <point x="355" y="547" type="move" name="_top"/>
    </contour>
  </outline>
</glyph>
<glyph name="circumflexcomb" format="1">
  <advance width="600"/>
  <unicode hex="0302"/>
  <outline>
    <contour>
      <point x="287" y="607" type="line"/>
      <point x="448" y="737" type="line"/>
      <point x="332" y="737" type="line"/>
      <point x="455" y="607" type="line"/>
      <point x="591" y="607" type="line"/>
      <point x="487" y="767" type="line"/>
      <point x="295" y="767" type="line"/>
      <point x="143" y="607" type="line"/>
    </contour>
    <contour>
      <point x="396" y="750" type="move" name="top"/>
    </contour>
    <contour>
      <point x="355" y="547" type="move" name="_top"/>
    </contour>
  </outline>
</glyph>
<glyph name="tildecomb" format="1">
  <advance width="600"/>
  <unicode hex="0303"/>
  <outline>
    <contour>
      <point x="539" y="597"/>
      <point x="596" y="657"/>
      <point x="614" y="767" type="curve"/>
      <point x="507" y="767" type="line"/>
      <point x="501" y="739"/>
      <point x="483" y="721"/>
      <point x="457" y="721" type="curve" smooth="yes"/>
      <point x="419" y="721"/>
      <point x="386" y="780"/>
      <point x="310" y="780" type="curve" smooth="yes"/>
      <point x="227" y="780"/>
      <point x="171" y="720"/>
      <point x="152" y="607" type="curve"/>
      <point x="259" y="607" type="line"/>
      <point x="266" y="637"/>
      <point x="284" y="656"/>
      <point x="310" y="656" type="curve" smooth="yes"/>
      <point x="348" y="656"/>
      <point x="380" y="597"/>
      <point x="456" y="597" type="curve" smooth="yes"/>
    </contour>
    <contour>
      <point x="396" y="750" type="move" name="top"/>
    </contour>
    <contour>
      <point x="355" y="547" type="move" name="_top"/>
    </contour>
  </outline>
</glyph>
<glyph name="macroncomb" format="1">
  <advance width="600"/>
  <unicode hex="0304"/>
  <outline>
    <contour>
      <point x="581" y="628" type="line"/>
      <point x="605" y="746" type="line"/>
      <point x="185" y="746" type="line"/>
      <point x="161" y="628" type="line"/>
    </contour>
    <contour>
      <point x="392" y="730" type="move" name="top"/>
    </contour>
    <contour>
      <point x="355" y="547" type="move" name="_top"/>
    </contour>
  </outline>
</glyph>
<glyph name="brevecomb" format="1">
  <advance width="600"/>
  <unicode hex="0306"/>
  <outline>
    <contour>
      <point x="499" y="597"/>
      <point x="587" y="662"/>
      <point x="608" y="767" type="curve"/>
      <point x="469" y="767" type="line"/>
      <point x="460" y="730"/>
      <point x="432" y="706"/>
      <point x="389" y="706" type="curve" smooth="yes"/>
      <point x="347" y="706"/>
      <point x="320" y="730"/>
      <point x="321" y="767" type="curve"/>
      <point x="190" y="767" type="line"/>
      <point x="179" y="662"/>
      <point x="260" y="597"/>
      <point x="376" y="597" type="curve" smooth="yes"/>
    </contour>
    <contour>
      <point x="396" y="750" type="move" name="top"/>
    </contour>
    <contour>
      <point x="355" y="547" type="move" name="_top"/>
    </contour>
  </outline>
</glyph>
<glyph name="dotaccentcomb" format="1">
  <advance width="600"/>
  <unicode hex="0307"/>
  <outline>
    <contour>
      <point x="448" y="597"/>
      <point x="503" y="648"/>
      <point x="503" y="725" type="curve" smooth="yes"/>
      <point x="503" y="783"/>
      <point x="461" y="825"/>
      <point x="397" y="825" type="curve" smooth="yes"/>
      <point x="328" y="825"/>
      <point x="273" y="774"/>
      <point x="273" y="697" type="curve" smooth="yes"/>
      <point x="273" y="639"/>
      <point x="315" y="597"/>
      <point x="379" y="597" type="curve" smooth="yes"/>
    </contour>
    <contour>
      <point x="388" y="709" type="move" name="_center"/>
    </contour>
    <contour>
      <point x="406" y="800" type="move" name="top"/>
    </contour>
    <contour>
      <point x="355" y="547" type="move" name="_top"/>
    </contour>
  </outline>
</glyph>
<glyph name="dieresiscomb" format="1">
  <advance width="600"/>
  <unicode hex="0308"/>
  <outline>
    <contour>
      <point x="538" y="599"/>
      <point x="584" y="637"/>
      <point x="584" y="696" type="curve" smooth="yes"/>
      <point x="584" y="745"/>
      <point x="548" y="776"/>
      <point x="500" y="776" type="curve" smooth="yes"/>
      <point x="449" y="776"/>
      <point x="403" y="737"/>
      <point x="403" y="678" type="curve" smooth="yes"/>
      <point x="403" y="629"/>
      <point x="439" y="599"/>
      <point x="487" y="599" type="curve" smooth="yes"/>
    </contour>
    <contour>
      <point x="316" y="599"/>
      <point x="362" y="637"/>
      <point x="362" y="696" type="curve" smooth="yes"/>
      <point x="362" y="745"/>
      <point x="326" y="776"/>
      <point x="278" y="776" type="curve" smooth="yes"/>
      <point x="227" y="776"/>
      <point x="181" y="737"/>
      <point x="181" y="678" type="curve" smooth="yes"/>
      <point x="181" y="629"/>
      <point x="217" y="599"/>
      <point x="265" y="599" type="curve" smooth="yes"/>
    </contour>
    <contour>
      <point x="394" y="740" type="move" name="top"/>
    </contour>
    <contour>
      <point x="355" y="547" type="move" name="_top"/>
    </contour>
  </outline>
</glyph>
<glyph name="hookabovecomb" format="1">
  <advance width="600"/>
  <unicode hex="0309"/>
  <outline>
    <contour>
      <point x="492" y="630"/>
      <point x="540" y="679"/>
      <point x="540" y="751" type="curve" smooth="yes"/>
      <point x="540" y="817"/>
      <point x="491" y="858"/>
      <point x="413" y="858" type="curve" smooth="yes"/>
      <point x="365" y="858"/>
      <point x="318" y="845"/>
      <point x="280" y="818" type="curve"/>
      <point x="315" y="734" type="line"/>
      <point x="336" y="748"/>
      <point x="356" y="754"/>
      <point x="375" y="754" type="curve" smooth="yes"/>
      <point x="398" y="754"/>
      <point x="411" y="742"/>
      <point x="411" y="722" type="curve" smooth="yes"/>
      <point x="411" y="702"/>
      <point x="402" y="682"/>
      <point x="356" y="662" type="curve"/>
      <point x="415" y="597" type="line"/>
    </contour>
    <contour>
      <point x="412" y="830" type="move" name="top"/>
    </contour>
    <contour>
      <point x="355" y="547" type="move" name="_top"/>
    </contour>
  </outline>
</glyph>
<glyph name="hungarumlautcomb" format="1">
  <advance width="600"/>
  <unicode hex="030B"/>
  <outline>
    <contour>
      <point x="561" y="607" type="line"/>
      <point x="676" y="767" type="line"/>
      <point x="477" y="767" type="line"/>
      <point x="407" y="607" type="line"/>
    </contour>
    <contour>
      <point x="327" y="607" type="line"/>
      <point x="442" y="767" type="line"/>
      <point x="243" y="767" type="line"/>
      <point x="173" y="607" type="line"/>
    </contour>
    <contour>
      <point x="398" y="760" type="move" name="top"/>
    </contour>
    <contour>
      <point x="355" y="547" type="move" name="_top"/>
    </contour>
  </outline>
</glyph>
<glyph name="caroncomb" format="1">
  <advance width="600"/>
  <unicode hex="030C"/>
  <outline>
    <contour>
      <point x="463" y="607" type="line"/>
      <point x="615" y="767" type="line"/>
      <point x="471" y="767" type="line"/>
      <point x="310" y="637" type="line"/>
      <point x="426" y="637" type="line"/>
      <point x="303" y="767" type="line"/>
      <point x="167" y="767" type="line"/>
      <point x="271" y="607" type="line"/>
    </contour>
    <contour>
      <point x="396" y="750" type="move" name="top"/>
    </contour>
    <contour>
      <point x="355" y="547" type="move" name="_top"/>
    </contour>
  </outline>
</glyph>
<glyph name="breveinvertedcomb" format="1">
  <advance width="600"/>
  <unicode hex="0311"/>
  <outline>
    <contour>
      <point x="297" y="607" type="line"/>
      <point x="306" y="644"/>
      <point x="334" y="668"/>
      <point x="377" y="668" type="curve" smooth="yes"/>
      <point x="419" y="668"/>
      <point x="446" y="644"/>
      <point x="445" y="607" type="curve"/>
      <point x="576" y="607" type="line"/>
      <point x="587" y="712"/>
      <point x="506" y="777"/>
      <point x="391" y="777" type="curve" smooth="yes"/>
      <point x="267" y="777"/>
      <point x="179" y="712"/>
      <point x="158" y="607" type="curve"/>
    </contour>
    <contour>
      <point x="396" y="750" type="move" name="top"/>
    </contour>
    <contour>
      <point x="355" y="547" type="move" name="_top"/>
    </contour>
  </outline>
</glyph>
<glyph name="commaturnedabovecomb" format="1">
  <advance width="600"/>
  <unicode hex="0312"/>
  <outline>
    <contour>
      <point x="449" y="597"/>
      <point x="488" y="634"/>
      <point x="488" y="684" type="curve" smooth="yes"/>
      <point x="488" y="723"/>
      <point x="455" y="745"/>
      <point x="391" y="745" type="curve"/>
      <point x="410" y="672" type="line"/>
      <point x="508" y="837" type="line"/>
      <point x="390" y="837" type="line"/>
      <point x="319" y="752" type="line" smooth="yes"/>
      <point x="282" y="707"/>
      <point x="272" y="689"/>
      <point x="272" y="663" type="curve" smooth="yes"/>
      <point x="272" y="626"/>
      <point x="304" y="597"/>
      <point x="372" y="597" type="curve" smooth="yes"/>
    </contour>
    <contour>
      <point x="406" y="800" type="move" name="top"/>
    </contour>
    <contour>
      <point x="355" y="547" type="move" name="_top"/>
    </contour>
  </outline>
</glyph>
<glyph name="horncomb" format="1">
  <advance width="600"/>
  <unicode hex="031B"/>
  <outline>
    <contour>
      <point x="355" y="399" type="line" smooth="yes"/>
      <point x="487" y="399"/>
      <point x="575" y="471"/>
      <point x="575" y="599" type="curve" smooth="yes"/>
      <point x="575" y="644"/>
      <point x="561" y="681"/>
      <point x="538" y="710" type="curve"/>
      <point x="390" y="665" type="line"/>
      <point x="402" y="651"/>
      <point x="410" y="630"/>
      <point x="410" y="608" type="curve" smooth="yes"/>
      <point x="410" y="571"/>
      <point x="383" y="547"/>
      <point x="355" y="547" type="curve" smooth="yes"/>
      <point x="325" y="547" type="line"/>
      <point x="325" y="399" type="line"/>
    </contour>
    <contour>
      <point x="355" y="547" type="move" name="_topright"/>
    </contour>
  </outline>
</glyph>
<glyph name="dotbelowcomb" format="1">
  <advance width="600"/>
  <unicode hex="0323"/>
  <outline>
    <contour>
      <point x="265" y="-226"/>
      <point x="309" y="-190"/>
      <point x="309" y="-128" type="curve" smooth="yes"/>
      <point x="309" y="-83"/>
      <point x="272" y="-50"/>
      <point x="225" y="-50" type="curve" smooth="yes"/>
      <point x="174" y="-50"/>
      <point x="127" y="-90"/>
      <point x="127" y="-146" type="curve" smooth="yes"/>
      <point x="127" y="-193"/>
      <point x="161" y="-226"/>
      <point x="211" y="-226" type="curve" smooth="yes"/>
    </contour>
    <contour>
      <point x="246" y="0" type="move" name="_bottom"/>
    </contour>
    <contour>
      <point x="208" y="-191" type="move" name="bottom"/>
    </contour>
  </outline>
</glyph>
<glyph name="dieresisbelowcomb" format="1">
  <advance width="600"/>
  <unicode hex="0324"/>
  <outline>
    <contour>
      <point x="370" y="-217"/>
      <point x="411" y="-183"/>
      <point x="411" y="-124" type="curve" smooth="yes"/>
      <point x="411" y="-81"/>
      <point x="376" y="-50"/>
      <point x="332" y="-50" type="curve" smooth="yes"/>
      <point x="283" y="-50"/>
      <point x="239" y="-88"/>
      <point x="239" y="-141" type="curve" smooth="yes"/>
      <point x="239" y="-185"/>
      <point x="271" y="-217"/>
      <point x="319" y="-217" type="curve" smooth="yes"/>
    </contour>
    <contour>
      <point x="157" y="-217"/>
      <point x="198" y="-183"/>
      <point x="198" y="-124" type="curve" smooth="yes"/>
      <point x="198" y="-81"/>
      <point x="163" y="-50"/>
      <point x="119" y="-50" type="curve" smooth="yes"/>
      <point x="70" y="-50"/>
      <point x="26" y="-88"/>
      <point x="26" y="-141" type="curve" smooth="yes"/>
      <point x="26" y="-185"/>
      <point x="58" y="-217"/>
      <point x="106" y="-217" type="curve" smooth="yes"/>
    </contour>
    <contour>
      <point x="246" y="0" type="move" name="_bottom"/>
    </contour>
    <contour>
      <point x="210" y="-181" type="move" name="bottom"/>
    </contour>
  </outline>
</glyph>
<glyph name="commaaccentcomb" format="1">
  <advance width="600"/>
  <unicode hex="0326"/>
  <outline>
    <contour>
      <point x="218" y="-270" type="line"/>
      <point x="270" y="-205" type="line" smooth="yes"/>
      <point x="304" y="-162"/>
      <point x="312" y="-142"/>
      <point x="312" y="-116" type="curve" smooth="yes"/>
      <point x="312" y="-79"/>
      <point x="285" y="-50"/>
      <point x="227" y="-50" type="curve" smooth="yes"/>
      <point x="162" y="-50"/>
      <point x="129" y="-87"/>
      <point x="129" y="-137" type="curve" smooth="yes"/>
      <point x="129" y="-173"/>
      <point x="157" y="-198"/>
      <point x="211" y="-198" type="curve"/>
      <point x="196" y="-125" type="line"/>
      <point x="119" y="-270" type="line"/>
    </contour>
    <contour>
      <point x="246" y="0" type="move" name="_bottom"/>
    </contour>
    <contour>
      <point x="208" y="-191" type="move" name="bottom"/>
    </contour>
  </outline>
</glyph>
<glyph name="ogonekcomb" format="1">
  <advance width="600"/>
  <unicode hex="0328"/>
  <outline>
    <contour>
      <point x="163" y="-240"/>
      <point x="201" y="-230"/>
      <point x="228" y="-217" type="curve"/>
      <point x="219" y="-124" type="line"/>
      <point x="203" y="-131"/>
      <point x="181" y="-138"/>
      <point x="159" y="-138" type="curve" smooth="yes"/>
      <point x="131" y="-138"/>
      <point x="113" y="-122"/>
      <point x="113" y="-97" type="curve" smooth="yes"/>
      <point x="113" y="-65"/>
      <point x="138" y="-34"/>
      <point x="246" y="0" type="curve"/>
      <point x="177" y="49" type="line"/>
      <point x="64" y="16"/>
      <point x="-26" y="-44"/>
      <point x="-26" y="-132" type="curve" smooth="yes"/>
      <point x="-26" y="-200"/>
      <point x="32" y="-240"/>
      <point x="120" y="-240" type="curve" smooth="yes"/>
    </contour>
    <contour>
      <point x="246" y="0" type="move" name="_ogonek"/>
    </contour>
  </outline>
</glyph>
<glyph name="brevebelowcomb" format="1">
  <advance width="600"/>
  <unicode hex="032E"/>
  <outline>
    <contour>
      <point x="333" y="-225"/>
      <point x="421" y="-165"/>
      <point x="442" y="-67" type="curve"/>
      <point x="303" y="-67" type="line"/>
      <point x="294" y="-102"/>
      <point x="266" y="-124"/>
      <point x="223" y="-124" type="curve" smooth="yes"/>
      <point x="181" y="-124"/>
      <point x="154" y="-102"/>
      <point x="155" y="-67" type="curve"/>
      <point x="24" y="-67" type="line"/>
      <point x="14" y="-155"/>
      <point x="94" y="-225"/>
      <point x="219" y="-225" type="curve" smooth="yes"/>
    </contour>
    <contour>
      <point x="246" y="0" type="move" name="_bottom"/>
    </contour>
    <contour>
      <point x="206" y="-198" type="move" name="bottom"/>
    </contour>
  </outline>
</glyph>
<glyph name="macronbelowcomb" format="1">
  <advance width="600"/>
  <unicode hex="0331"/>
  <outline>
    <contour>
      <point x="418" y="-192" type="line"/>
      <point x="441" y="-74" type="line"/>
      <point x="21" y="-74" type="line"/>
      <point x="-2" y="-192" type="line"/>
    </contour>
    <contour>
      <point x="246" y="0" type="move" name="_bottom"/>
    </contour>
    <contour>
      <point x="211" y="-176" type="move" name="bottom"/>
    </contour>
  </outline>
</glyph>
<glyph name="strokeshortcomb" format="1">
  <advance width="600"/>
  <unicode hex="0335"/>
  <outline>
    <contour>
      <point x="536" y="378" type="line"/>
      <point x="558" y="488" type="line"/>
      <point x="130" y="488" type="line"/>
      <point x="108" y="378" type="line"/>
    </contour>
    <contour>
      <point x="333" y="433" type="move" name="_center"/>
    </contour>
  </outline>
</glyph>
<glyph name="strokelongcomb" format="1">
  <advance width="1000"/>
  <unicode hex="0336"/>
  <outline>
    <contour>
      <point x="951" y="364" type="line"/>
      <point x="978" y="500" type="line"/>
      <point x="115" y="500" type="line"/>
      <point x="88" y="364" type="line"/>
    </contour>
    <contour>
      <point x="533" y="433" type="move" name="_center"/>
    </contour>
  </outline>
</glyph>
<glyph name="slashshortcomb" format="1">
  <advance width="600"/>
  <unicode hex="0337"/>
  <outline>
    <contour>
      <point x="579" y="496" type="line"/>
      <point x="521" y="593" type="line"/>
      <point x="71" y="303" type="line"/>
      <point x="129" y="206" type="line"/>
    </contour>
    <contour>
      <point x="326" y="401" type="move" name="_center"/>
    </contour>
  </outline>
</glyph>
<glyph name="slashlongcomb" format="1">
  <advance width="648"/>
  <unicode hex="0338"/>
  <outline>
    <contour>
      <point x="92" y="-70" type="line"/>
      <point x="663" y="610" type="line"/>
      <point x="562" y="610" type="line"/>
      <point x="-9" y="-70" type="line"/>
    </contour>
    <contour>
      <point x="328" y="274" type="move" name="_center"/>
    </contour>
  </outline>
</glyph>
<glyph name="Delta" format="1">
  <advance width="806"/>
  <unicode hex="0394"/>
  <outline>
    <contour>
      <point x="372" y="700" type="line"/>
      <point x="-74" y="0" type="line"/>
      <point x="770" y="0" type="line"/>
      <point x="604" y="700" type="line"/>
    </contour>
    <contour>
      <point x="518" y="598" type="line"/>
      <point x="426" y="598" type="line"/>
      <point x="538" y="76" type="line"/>
      <point x="599" y="183" type="line"/>
      <point x="167" y="183" type="line"/>
      <point x="205" y="76" type="line"/>
    </contour>
  </outline>
</glyph>
<glyph name="Omega" format="1">
  <advance width="878"/>
  <unicode hex="03A9"/>
  <outline>
    <contour>
      <point x="343" y="0" type="line"/>
      <point x="377" y="170" type="line"/>
      <point x="325" y="201"/>
      <point x="296" y="260"/>
      <point x="296" y="325" type="curve" smooth="yes"/>
      <point x="296" y="436"/>
      <point x="367" y="525"/>
      <point x="482" y="525" type="curve" smooth="yes"/>
      <point x="556" y="525"/>
      <point x="617" y="481"/>
      <point x="617" y="399" type="curve" smooth="yes"/>
      <point x="617" y="304"/>
      <point x="556" y="212"/>
      <point x="459" y="170" type="curve"/>
      <point x="425" y="0" type="line"/>
      <point x="815" y="0" type="line"/>
      <point x="852" y="183" type="line"/>
      <point x="735" y="183" type="line"/>
      <point x="809" y="246"/>
      <point x="857" y="343"/>
      <point x="857" y="439" type="curve" smooth="yes"/>
      <point x="857" y="606"/>
      <point x="710" y="716"/>
      <point x="512" y="716" type="curve" smooth="yes"/>
      <point x="269" y="716"/>
      <point x="66" y="564"/>
      <point x="66" y="338" type="curve" smooth="yes"/>
      <point x="66" y="277"/>
      <point x="84" y="223"/>
      <point x="115" y="183" type="curve"/>
      <point x="-10" y="183" type="line"/>
      <point x="-47" y="0" type="line"/>
    </contour>
  </outline>
</glyph>
<glyph name="pi" format="1">
  <advance width="733"/>
  <unicode hex="03C0"/>
  <outline>
    <contour>
      <point x="173" y="288" type="line"/>
      <point x="168" y="304"/>
      <point x="166" y="319"/>
      <point x="166" y="333" type="curve" smooth="yes"/>
      <point x="166" y="371"/>
      <point x="186" y="391"/>
      <point x="227" y="391" type="curve" smooth="yes"/>
      <point x="742" y="391" type="line"/>
      <point x="773" y="547" type="line"/>
      <point x="238" y="547" type="line" smooth="yes"/>
      <point x="99" y="547"/>
      <point x="-4" y="471"/>
      <point x="-4" y="339" type="curve" smooth="yes"/>
      <point x="-4" y="305"/>
      <point x="3" y="271"/>
      <point x="13" y="249" type="curve"/>
    </contour>
    <contour>
      <point x="300" y="0" type="line"/>
      <point x="423" y="407" type="line"/>
      <point x="235" y="407" type="line"/>
      <point x="112" y="0" type="line"/>
    </contour>
    <contour>
      <point x="565" y="0" type="line"/>
      <point x="646" y="407" type="line"/>
      <point x="458" y="407" type="line"/>
      <point x="377" y="0" type="line"/>
    </contour>
  </outline>
</glyph>
<glyph name="figuredash" format="1">
  <advance width="700"/>
  <unicode hex="2012"/>
  <outline>
    <contour>
      <point x="663" y="290" type="line"/>
      <point x="689" y="420" type="line"/>
      <point x="69" y="420" type="line"/>
      <point x="43" y="290" type="line"/>
    </contour>
  </outline>
</glyph>
<glyph name="endash" format="1">
  <advance width="500"/>
  <unicode hex="2013"/>
  <outline>
    <contour>
      <point x="490" y="224" type="line"/>
      <point x="516" y="354" type="line"/>
      <point x="16" y="354" type="line"/>
      <point x="-10" y="224" type="line"/>
    </contour>
  </outline>
</glyph>
<glyph name="emdash" format="1">
  <advance width="1000"/>
  <unicode hex="2014"/>
  <outline>
    <contour>
      <point x="990" y="224" type="line"/>
      <point x="1016" y="354" type="line"/>
      <point x="16" y="354" type="line"/>
      <point x="-10" y="224" type="line"/>
    </contour>
  </outline>
</glyph>
<glyph name="quoteleft" format="1">
  <advance width="304"/>
  <unicode hex="2018"/>
  <outline>
    <contour>
      <point x="222" y="742" type="line"/>
      <point x="104" y="569" type="line" smooth="yes"/>
      <point x="69" y="518"/>
      <point x="57" y="490"/>
      <point x="57" y="453" type="curve" smooth="yes"/>
      <point x="57" y="382"/>
      <point x="106" y="334"/>
      <point x="180" y="334" type="curve" smooth="yes"/>
      <point x="259" y="334"/>
      <point x="322" y="389"/>
      <point x="322" y="473" type="curve" smooth="yes"/>
      <point x="322" y="542"/>
      <point x="271" y="592"/>
      <point x="198" y="592" type="curve"/>
      <point x="222" y="461" type="line"/>
      <point x="362" y="742" type="line"/>
    </contour>
  </outline>
</glyph>
<glyph name="quoteright" format="1">
  <advance width="304"/>
  <unicode hex="2019"/>
  <outline>
    <contour>
      <point x="189" y="344" type="line"/>
      <point x="307" y="517" type="line" smooth="yes"/>
      <point x="342" y="568"/>
      <point x="354" y="596"/>
      <point x="354" y="633" type="curve" smooth="yes"/>
      <point x="354" y="704"/>
      <point x="305" y="752"/>
      <point x="231" y="752" type="curve" smooth="yes"/>
      <point x="152" y="752"/>
      <point x="89" y="697"/>
      <point x="89" y="613" type="curve" smooth="yes"/>
      <point x="89" y="544"/>
      <point x="140" y="494"/>
      <point x="213" y="494" type="curve"/>
      <point x="189" y="625" type="line"/>
      <point x="49" y="344" type="line"/>
    </contour>
  </outline>
</glyph>
<glyph name="dagger" format="1">
  <advance width="627"/>
  <unicode hex="2020"/>
  <outline>
    <contour>
      <point x="329" y="-194" type="line"/>
      <point x="433" y="327" type="line"/>
      <point x="608" y="327" type="line"/>
      <point x="644" y="505" type="line"/>
      <point x="469" y="505" type="line"/>
      <point x="508" y="700" type="line"/>
      <point x="282" y="700" type="line"/>
      <point x="243" y="505" type="line"/>
      <point x="75" y="505" type="line"/>
      <point x="39" y="327" type="line"/>
      <point x="207" y="327" type="line"/>
      <point x="103" y="-194" type="line"/>
    </contour>
  </outline>
</glyph>
<glyph name="daggerdbl" format="1">
  <advance width="627"/>
  <unicode hex="2021"/>
  <outline>
    <contour>
      <point x="644" y="506" type="line"/>
      <point x="469" y="506" type="line"/>
      <point x="508" y="700" type="line"/>
      <point x="282" y="700" type="line"/>
      <point x="243" y="506" type="line"/>
      <point x="75" y="506" type="line"/>
      <point x="40" y="328" type="line"/>
      <point x="208" y="328" type="line"/>
      <point x="178" y="178" type="line"/>
      <point x="10" y="178" type="line"/>
      <point x="-26" y="0" type="line"/>
      <point x="142" y="0" type="line"/>
      <point x="103" y="-194" type="line"/>
      <point x="329" y="-194" type="line"/>
      <point x="368" y="0" type="line"/>
      <point x="543" y="0" type="line"/>
      <point x="579" y="178" type="line"/>
      <point x="404" y="178" type="line"/>
      <point x="434" y="328" type="line"/>
      <point x="609" y="328" type="line"/>
    </contour>
  </outline>
</glyph>
<glyph name="bullet" format="1">
  <advance width="410"/>
  <unicode hex="2022"/>
  <outline>
    <contour>
      <point x="295" y="119"/>
      <point x="373" y="194"/>
      <point x="373" y="298" type="curve" smooth="yes"/>
      <point x="373" y="386"/>
      <point x="304" y="449"/>
      <point x="217" y="449" type="curve" smooth="yes"/>
      <point x="117" y="449"/>
      <point x="41" y="376"/>
      <point x="41" y="272" type="curve" smooth="yes"/>
      <point x="41" y="184"/>
      <point x="109" y="119"/>
      <point x="198" y="119" type="curve" smooth="yes"/>
    </contour>
  </outline>
</glyph>
<glyph name="minute" format="1">
  <advance width="254"/>
  <unicode hex="2032"/>
  <outline>
    <contour>
      <point x="232" y="400" type="line"/>
      <point x="307" y="700" type="line"/>
      <point x="117" y="700" type="line"/>
      <point x="72" y="400" type="line"/>
    </contour>
  </outline>
</glyph>
<glyph name="second" format="1">
  <advance width="489"/>
  <unicode hex="2033"/>
  <outline>
    <contour>
      <point x="232" y="400" type="line"/>
      <point x="307" y="700" type="line"/>
      <point x="117" y="700" type="line"/>
      <point x="72" y="400" type="line"/>
    </contour>
    <contour>
      <point x="467" y="400" type="line"/>
      <point x="542" y="700" type="line"/>
      <point x="352" y="700" type="line"/>
      <point x="307" y="400" type="line"/>
    </contour>
  </outline>
</glyph>
<glyph name="guilsinglleft" format="1">
  <advance width="378"/>
  <unicode hex="2039"/>
  <outline>
    <contour>
      <point x="319" y="74" type="line"/>
      <point x="183" y="366" type="line"/>
      <point x="168" y="197" type="line"/>
      <point x="407" y="474" type="line"/>
      <point x="203" y="474" type="line"/>
      <point x="25" y="274" type="line"/>
      <point x="123" y="74" type="line"/>
    </contour>
  </outline>
</glyph>
<glyph name="guilsinglright" format="1">
  <advance width="378"/>
  <unicode hex="203A"/>
  <outline>
    <contour>
      <point x="59" y="474" type="line"/>
      <point x="195" y="182" type="line"/>
      <point x="210" y="351" type="line"/>
      <point x="-29" y="74" type="line"/>
      <point x="175" y="74" type="line"/>
      <point x="353" y="274" type="line"/>
      <point x="255" y="474" type="line"/>
    </contour>
  </outline>
</glyph>
<glyph name="fraction" format="1">
  <advance width="197"/>
  <unicode hex="2044"/>
  <outline>
    <contour>
      <point x="-103" y="0" type="line"/>
      <point x="507" y="700" type="line"/>
      <point x="330" y="700" type="line"/>
      <point x="-280" y="0" type="line"/>
    </contour>
  </outline>
</glyph>
<glyph name="franc" format="1">
  <advance width="707"/>
  <unicode hex="20A3"/>
  <outline>
    <contour>
      <point x="523" y="60" type="line"/>
      <point x="545" y="172" type="line"/>
      <point x="9" y="172" type="line"/>
      <point x="-13" y="60" type="line"/>
    </contour>
    <contour>
      <point x="330" y="224" type="line"/>
      <point x="637" y="224" type="line"/>
      <point x="673" y="402" type="line"/>
      <point x="365" y="402" type="line"/>
    </contour>
    <contour>
      <point x="405" y="522" type="line"/>
      <point x="738" y="522" type="line"/>
      <point x="774" y="700" type="line"/>
      <point x="205" y="700" type="line"/>
      <point x="65" y="0" type="line"/>
      <point x="301" y="0" type="line"/>
    </contour>
  </outline>
</glyph>
<glyph name="lira" format="1">
  <advance width="694"/>
  <unicode hex="20A4"/>
  <outline>
    <contour>
      <point x="605" y="0" type="line"/>
      <point x="641" y="178" type="line"/>
      <point x="11" y="178" type="line"/>
      <point x="-25" y="0" type="line"/>
    </contour>
    <contour>
      <point x="305" y="20" type="line"/>
      <point x="382" y="405" type="line" smooth="yes"/>
      <point x="400" y="493"/>
      <point x="452" y="525"/>
      <point x="535" y="525" type="curve" smooth="yes"/>
      <point x="578" y="525"/>
      <point x="621" y="518"/>
      <point x="664" y="498" type="curve"/>
      <point x="758" y="672" type="line"/>
      <point x="707" y="700"/>
      <point x="637" y="716"/>
      <point x="552" y="716" type="curve" smooth="yes"/>
      <point x="348" y="716"/>
      <point x="190" y="623"/>
      <point x="145" y="400" type="curve" smooth="yes"/>
      <point x="69" y="20" type="line"/>
    </contour>
    <contour>
      <point x="556" y="225" type="line"/>
      <point x="578" y="337" type="line"/>
      <point x="42" y="337" type="line"/>
      <point x="20" y="225" type="line"/>
    </contour>
    <contour>
      <point x="584" y="363" type="line"/>
      <point x="606" y="475" type="line"/>
      <point x="70" y="475" type="line"/>
      <point x="48" y="363" type="line"/>
    </contour>
  </outline>
</glyph>
<glyph name="naira" format="1">
  <advance width="930"/>
  <unicode hex="20A6"/>
  <outline>
    <contour>
      <point x="295" y="0" type="line"/>
      <point x="380" y="426" type="line"/>
      <point x="298" y="426" type="line"/>
      <point x="561" y="0" type="line"/>
      <point x="755" y="0" type="line"/>
      <point x="895" y="700" type="line"/>
      <point x="665" y="700" type="line"/>
      <point x="580" y="274" type="line"/>
      <point x="662" y="274" type="line"/>
      <point x="399" y="700" type="line"/>
      <point x="205" y="700" type="line"/>
      <point x="65" y="0" type="line"/>
    </contour>
    <contour>
      <point x="890" y="225" type="line"/>
      <point x="912" y="337" type="line"/>
      <point x="42" y="337" type="line"/>
      <point x="20" y="225" type="line"/>
    </contour>
    <contour>
      <point x="918" y="363" type="line"/>
      <point x="940" y="475" type="line"/>
      <point x="70" y="475" type="line"/>
      <point x="48" y="363" type="line"/>
    </contour>
  </outline>
</glyph>
<glyph name="won" format="1">
  <advance width="1310"/>
  <unicode hex="20A9"/>
  <outline>
    <contour>
      <point x="474" y="0" type="line"/>
      <point x="735" y="484" type="line"/>
      <point x="667" y="484" type="line"/>
      <point x="726" y="0" type="line"/>
      <point x="979" y="0" type="line"/>
      <point x="1353" y="700" type="line"/>
      <point x="1118" y="700" type="line"/>
      <point x="801" y="109" type="line"/>
      <point x="924" y="109" type="line"/>
      <point x="853" y="700" type="line"/>
      <point x="630" y="700" type="line"/>
      <point x="310" y="109" type="line"/>
      <point x="438" y="109" type="line"/>
      <point x="365" y="700" type="line"/>
      <point x="127" y="700" type="line"/>
      <point x="221" y="0" type="line"/>
    </contour>
    <contour>
      <point x="1270" y="225" type="line"/>
      <point x="1292" y="337" type="line"/>
      <point x="42" y="337" type="line"/>
      <point x="20" y="225" type="line"/>
    </contour>
    <contour>
      <point x="1298" y="363" type="line"/>
      <point x="1320" y="475" type="line"/>
      <point x="70" y="475" type="line"/>
      <point x="48" y="363" type="line"/>
    </contour>
  </outline>
</glyph>
<glyph name="dong" format="1">
  <advance width="699"/>
  <unicode hex="20AB"/>
  <outline>
    <contour>
      <point x="379" y="-10"/>
      <point x="464" y="97"/>
      <point x="492" y="274" type="curve" smooth="yes"/>
      <point x="526" y="489"/>
      <point x="438" y="557"/>
      <point x="313" y="557" type="curve" smooth="yes"/>
      <point x="157" y="557"/>
      <point x="25" y="423"/>
      <point x="25" y="243" type="curve" smooth="yes"/>
      <point x="25" y="80"/>
      <point x="140" y="-10"/>
      <point x="247" y="-10" type="curve" smooth="yes"/>
    </contour>
    <contour>
      <point x="564" y="-148" type="line"/>
      <point x="586" y="-38" type="line"/>
      <point x="-17" y="-38" type="line"/>
      <point x="-39" y="-148" type="line"/>
    </contour>
    <contour>
      <point x="278" y="168"/>
      <point x="248" y="203"/>
      <point x="248" y="254" type="curve" smooth="yes"/>
      <point x="248" y="330"/>
      <point x="288" y="379"/>
      <point x="347" y="379" type="curve" smooth="yes"/>
      <point x="398" y="379"/>
      <point x="428" y="344"/>
      <point x="428" y="293" type="curve" smooth="yes"/>
      <point x="428" y="217"/>
      <point x="388" y="168"/>
      <point x="329" y="168" type="curve" smooth="yes"/>
    </contour>
    <contour>
      <point x="594" y="0" type="line"/>
      <point x="742" y="742" type="line"/>
      <point x="516" y="742" type="line"/>
      <point x="462" y="472" type="line"/>
      <point x="433" y="274" type="line"/>
      <point x="396" y="74" type="line"/>
      <point x="381" y="0" type="line"/>
    </contour>
    <contour>
      <point x="762" y="585" type="line"/>
      <point x="784" y="695" type="line"/>
      <point x="356" y="695" type="line"/>
      <point x="334" y="585" type="line"/>
    </contour>
  </outline>
</glyph>
<glyph name="euro" format="1">
  <advance width="835"/>
  <unicode hex="20AC"/>
  <outline>
    <contour>
      <point x="562" y="225" type="line"/>
      <point x="584" y="337" type="line"/>
      <point x="42" y="337" type="line"/>
      <point x="20" y="225" type="line"/>
    </contour>
    <contour>
      <point x="590" y="363" type="line"/>
      <point x="612" y="475" type="line"/>
      <point x="70" y="475" type="line"/>
      <point x="48" y="363" type="line"/>
    </contour>
    <contour>
      <point x="620" y="-16"/>
      <point x="724" y="19"/>
      <point x="809" y="123" type="curve"/>
      <point x="670" y="256" type="line"/>
      <point x="622" y="198"/>
      <point x="569" y="175"/>
      <point x="514" y="175" type="curve" smooth="yes"/>
      <point x="427" y="175"/>
      <point x="370" y="230"/>
      <point x="370" y="312" type="curve" smooth="yes"/>
      <point x="370" y="437"/>
      <point x="448" y="525"/>
      <point x="559" y="525" type="curve" smooth="yes"/>
      <point x="623" y="525"/>
      <point x="669" y="495"/>
      <point x="699" y="443" type="curve"/>
      <point x="869" y="576" type="line"/>
      <point x="818" y="666"/>
      <point x="708" y="716"/>
      <point x="574" y="716" type="curve" smooth="yes"/>
      <point x="315" y="716"/>
      <point x="132" y="543"/>
      <point x="132" y="297" type="curve" smooth="yes"/>
      <point x="132" y="111"/>
      <point x="274" y="-16"/>
      <point x="491" y="-16" type="curve" smooth="yes"/>
    </contour>
  </outline>
</glyph>
<glyph name="kip" format="1">
  <advance width="828"/>
  <unicode hex="20AD"/>
  <outline>
    <contour>
      <point x="775" y="284" type="line"/>
      <point x="801" y="416" type="line"/>
      <point x="58" y="416" type="line"/>
      <point x="32" y="284" type="line"/>
    </contour>
    <contour>
      <point x="297" y="0" type="line"/>
      <point x="437" y="700" type="line"/>
      <point x="205" y="700" type="line"/>
      <point x="65" y="0" type="line"/>
    </contour>
    <contour>
      <point x="798" y="0" type="line"/>
      <point x="610" y="350" type="line"/>
      <point x="344" y="350" type="line"/>
      <point x="533" y="0" type="line"/>
    </contour>
    <contour>
      <point x="336" y="350" type="line"/>
      <point x="618" y="350" type="line"/>
      <point x="938" y="700" type="line"/>
      <point x="657" y="700" type="line"/>
    </contour>
  </outline>
</glyph>
<glyph name="rupeeIndian" format="1">
  <advance width="728"/>
  <unicode hex="20B9"/>
  <outline>
    <contour>
      <point x="282" y="216" type="line" smooth="yes"/>
      <point x="486" y="216"/>
      <point x="651" y="305"/>
      <point x="651" y="482" type="curve" smooth="yes"/>
      <point x="651" y="558"/>
      <point x="611" y="619"/>
      <point x="547" y="652" type="curve"/>
      <point x="524" y="589" type="line"/>
      <point x="741" y="589" type="line"/>
      <point x="763" y="701" type="line" smooth="yes"/>
      <point x="142" y="701" type="line"/>
      <point x="120" y="589" type="line"/>
      <point x="322" y="589" type="line" smooth="yes"/>
      <point x="387" y="589"/>
      <point x="419" y="555"/>
      <point x="419" y="506" type="curve" smooth="yes"/>
      <point x="419" y="433"/>
      <point x="368" y="394"/>
      <point x="283" y="394" type="curve" smooth="yes"/>
      <point x="81" y="394" type="line"/>
      <point x="45" y="216" type="line"/>
    </contour>
    <contour>
      <point x="573" y="0" type="line"/>
      <point x="438" y="285" type="line"/>
      <point x="196" y="285" type="line"/>
      <point x="329" y="0" type="line"/>
    </contour>
    <contour>
      <point x="713" y="451" type="line"/>
      <point x="735" y="563" type="line"/>
      <point x="114" y="563" type="line"/>
      <point x="92" y="451" type="line"/>
    </contour>
  </outline>
</glyph>
<glyph name="manat" format="1">
  <advance width="904"/>
  <unicode hex="20BC"/>
  <outline>
    <contour>
      <point x="220" y="0" type="line"/>
      <point x="287" y="336" type="line" smooth="yes"/>
      <point x="311" y="455"/>
      <point x="379" y="511"/>
      <point x="492" y="511" type="curve" smooth="yes"/>
      <point x="614" y="511"/>
      <point x="662" y="443"/>
      <point x="639" y="326" type="curve" smooth="yes"/>
      <point x="574" y="0" type="line"/>
      <point x="792" y="0" type="line"/>
      <point x="857" y="327" type="line" smooth="yes"/>
      <point x="902" y="556"/>
      <point x="767" y="716"/>
      <point x="530" y="716" type="curve" smooth="yes"/>
      <point x="290" y="716"/>
      <point x="116" y="573"/>
      <point x="69" y="337" type="curve" smooth="yes"/>
      <point x="2" y="0" type="line"/>
    </contour>
    <contour>
      <point x="492" y="120" type="line"/>
      <point x="632" y="820" type="line"/>
      <point x="491" y="820" type="line"/>
      <point x="351" y="120" type="line"/>
    </contour>
  </outline>
</glyph>
<glyph name="ruble" format="1">
  <advance width="806"/>
  <unicode hex="20BD"/>
  <outline>
    <contour>
      <point x="301" y="0" type="line"/>
      <point x="366" y="325" type="line"/>
      <point x="241" y="224" type="line"/>
      <point x="467" y="224" type="line" smooth="yes"/>
      <point x="668" y="224"/>
      <point x="815" y="311"/>
      <point x="815" y="493" type="curve" smooth="yes"/>
      <point x="815" y="632"/>
      <point x="696" y="700"/>
      <point x="532" y="700" type="curve" smooth="yes"/>
      <point x="205" y="700" type="line"/>
      <point x="65" y="0" type="line"/>
    </contour>
    <contour>
      <point x="523" y="60" type="line"/>
      <point x="545" y="172" type="line"/>
      <point x="9" y="172" type="line"/>
      <point x="-13" y="60" type="line"/>
    </contour>
    <contour>
      <point x="426" y="625" type="line"/>
      <point x="300" y="518" type="line"/>
      <point x="500" y="518" type="line" smooth="yes"/>
      <point x="548" y="518"/>
      <point x="576" y="503"/>
      <point x="576" y="470" type="curve" smooth="yes"/>
      <point x="576" y="426"/>
      <point x="545" y="400"/>
      <point x="479" y="400" type="curve" smooth="yes"/>
      <point x="276" y="400" type="line"/>
      <point x="361" y="299" type="line"/>
    </contour>
  </outline>
</glyph>
<glyph name="literSign" format="1">
  <advance width="478"/>
  <unicode hex="2113"/>
  <outline>
    <contour>
      <point x="309" y="-7"/>
      <point x="387" y="30"/>
      <point x="449" y="131" type="curve"/>
      <point x="388" y="207" type="line"/>
      <point x="361" y="174"/>
      <point x="324" y="133"/>
      <point x="278" y="133" type="curve" smooth="yes"/>
      <point x="243" y="133"/>
      <point x="220" y="155"/>
      <point x="230" y="220" type="curve"/>
      <point x="307" y="284"/>
      <point x="464" y="402"/>
      <point x="464" y="567" type="curve" smooth="yes"/>
      <point x="464" y="656"/>
      <point x="418" y="711"/>
      <point x="334" y="711" type="curve" smooth="yes"/>
      <point x="237" y="711"/>
      <point x="154" y="638"/>
      <point x="124" y="467" type="curve" smooth="yes"/>
      <point x="88" y="250" type="line"/>
      <point x="3" y="193" type="line"/>
      <point x="32" y="107" type="line"/>
      <point x="75" y="131" type="line"/>
      <point x="88" y="44"/>
      <point x="137" y="-7"/>
      <point x="230" y="-7" type="curve" smooth="yes"/>
    </contour>
    <contour>
      <point x="275" y="487" type="line" smooth="yes"/>
      <point x="289" y="573"/>
      <point x="308" y="602"/>
      <point x="328" y="602" type="curve" smooth="yes"/>
      <point x="343" y="602"/>
      <point x="348" y="585"/>
      <point x="348" y="564" type="curve" smooth="yes"/>
      <point x="348" y="487"/>
      <point x="287" y="410"/>
      <point x="256" y="371" type="curve"/>
    </contour>
  </outline>
</glyph>
<glyph name="numero" format="1">
  <advance width="1233"/>
  <unicode hex="2116"/>
  <outline>
    <contour>
      <point x="232" y="0" type="line"/>
      <point x="317" y="426" type="line"/>
      <point x="235" y="426" type="line"/>
      <point x="498" y="0" type="line"/>
      <point x="692" y="0" type="line"/>
      <point x="832" y="700" type="line"/>
      <point x="602" y="700" type="line"/>
      <point x="517" y="274" type="line"/>
      <point x="599" y="274" type="line"/>
      <point x="336" y="700" type="line"/>
      <point x="142" y="700" type="line"/>
      <point x="2" y="0" type="line"/>
    </contour>
    <contour>
      <point x="1166" y="192" type="line"/>
      <point x="1192" y="322" type="line"/>
      <point x="826" y="322" type="line"/>
      <point x="800" y="192" type="line"/>
    </contour>
    <contour>
      <point x="1160" y="372"/>
      <point x="1256" y="444"/>
      <point x="1256" y="557" type="curve" smooth="yes"/>
      <point x="1256" y="645"/>
      <point x="1182" y="710"/>
      <point x="1071" y="710" type="curve" smooth="yes"/>
      <point x="946" y="710"/>
      <point x="849" y="638"/>
      <point x="849" y="526" type="curve" smooth="yes"/>
      <point x="849" y="437"/>
      <point x="924" y="372"/>
      <point x="1034" y="372" type="curve" smooth="yes"/>
    </contour>
    <contour>
      <point x="1017" y="482"/>
      <point x="1000" y="502"/>
      <point x="1000" y="532" type="curve" smooth="yes"/>
      <point x="1000" y="571"/>
      <point x="1023" y="600"/>
      <point x="1059" y="600" type="curve" smooth="yes"/>
      <point x="1086" y="600"/>
      <point x="1105" y="582"/>
      <point x="1105" y="550" type="curve" smooth="yes"/>
      <point x="1105" y="505"/>
      <point x="1077" y="482"/>
      <point x="1046" y="482" type="curve" smooth="yes"/>
    </contour>
  </outline>
</glyph>
<glyph name="trademark" format="1">
  <advance width="1067"/>
  <unicode hex="2122"/>
  <outline>
    <contour>
      <point x="612" y="285" type="line"/>
      <point x="654" y="497" type="line"/>
      <point x="626" y="497" type="line"/>
      <point x="714" y="321" type="line"/>
      <point x="787" y="321" type="line"/>
      <point x="930" y="497" type="line"/>
      <point x="907" y="497" type="line"/>
      <point x="867" y="285" type="line"/>
      <point x="1012" y="285" type="line"/>
      <point x="1093" y="700" type="line"/>
      <point x="957" y="700" type="line"/>
      <point x="737" y="434" type="line"/>
      <point x="806" y="434" type="line"/>
      <point x="678" y="700" type="line"/>
      <point x="550" y="700" type="line"/>
      <point x="467" y="285" type="line"/>
    </contour>
    <contour>
      <point x="295" y="285" type="line"/>
      <point x="355" y="586" type="line"/>
      <point x="484" y="586" type="line"/>
      <point x="507" y="700" type="line"/>
      <point x="89" y="700" type="line"/>
      <point x="66" y="586" type="line"/>
      <point x="195" y="586" type="line"/>
      <point x="135" y="285" type="line"/>
    </contour>
  </outline>
</glyph>
<glyph name="leftArrow" format="1">
  <advance width="600"/>
  <unicode hex="2190"/>
  <outline>
    <contour>
      <point x="397" y="31" type="line"/>
      <point x="255" y="279" type="line"/>
      <point x="397" y="527" type="line"/>
      <point x="208" y="527" type="line"/>
      <point x="48" y="279" type="line"/>
      <point x="208" y="31" type="line"/>
    </contour>
    <contour>
      <point x="570" y="204" type="line"/>
      <point x="570" y="353" type="line"/>
      <point x="217" y="353" type="line"/>
      <point x="217" y="204" type="line"/>
    </contour>
  </outline>
</glyph>
<glyph name="upArrow" format="1">
  <advance width="600"/>
  <unicode hex="2191"/>
  <outline>
    <contour>
      <point x="300" y="361" type="line"/>
      <point x="548" y="219" type="line"/>
      <point x="548" y="382" type="line"/>
      <point x="300" y="542" type="line"/>
      <point x="52" y="382" type="line"/>
      <point x="52" y="219" type="line"/>
    </contour>
    <contour>
      <point x="386" y="20" type="line"/>
      <point x="386" y="388" type="line"/>
      <point x="214" y="388" type="line"/>
      <point x="214" y="20" type="line"/>
    </contour>
  </outline>
</glyph>
<glyph name="rightArrow" format="1">
  <advance width="600"/>
  <unicode hex="2192"/>
  <outline>
    <contour>
      <point x="203" y="526" type="line"/>
      <point x="345" y="278" type="line"/>
      <point x="203" y="30" type="line"/>
      <point x="392" y="30" type="line"/>
      <point x="552" y="278" type="line"/>
      <point x="392" y="526" type="line"/>
    </contour>
    <contour>
      <point x="30" y="353" type="line"/>
      <point x="30" y="204" type="line"/>
      <point x="383" y="204" type="line"/>
      <point x="383" y="353" type="line"/>
    </contour>
  </outline>
</glyph>
<glyph name="downArrow" format="1">
  <advance width="600"/>
  <unicode hex="2193"/>
  <outline>
    <contour>
      <point x="300" y="196" type="line"/>
      <point x="52" y="338" type="line"/>
      <point x="52" y="175" type="line"/>
      <point x="300" y="15" type="line"/>
      <point x="548" y="175" type="line"/>
      <point x="548" y="338" type="line"/>
    </contour>
    <contour>
      <point x="214" y="537" type="line"/>
      <point x="214" y="169" type="line"/>
      <point x="386" y="169" type="line"/>
      <point x="386" y="537" type="line"/>
    </contour>
  </outline>
</glyph>
<glyph name="upDownArrow" format="1">
  <advance width="600"/>
  <unicode hex="2195"/>
  <outline>
    <contour>
      <point x="300" y="540" type="line"/>
      <point x="548" y="398" type="line"/>
      <point x="548" y="561" type="line"/>
      <point x="300" y="721" type="line"/>
      <point x="52" y="561" type="line"/>
      <point x="52" y="398" type="line"/>
    </contour>
    <contour>
      <point x="548" y="150" type="line"/>
      <point x="548" y="313" type="line"/>
      <point x="300" y="171" type="line"/>
      <point x="52" y="313" type="line"/>
      <point x="52" y="150" type="line"/>
      <point x="300" y="-10" type="line"/>
    </contour>
    <contour>
      <point x="386" y="154" type="line"/>
      <point x="386" y="567" type="line"/>
      <point x="214" y="567" type="line"/>
      <point x="214" y="154" type="line"/>
    </contour>
  </outline>
</glyph>
<glyph name="northWestArrow" format="1">
  <advance width="600"/>
  <unicode hex="2196"/>
  <outline>
    <contour>
      <point x="252" y="341" type="line"/>
      <point x="528" y="416" type="line"/>
      <point x="412" y="532" type="line"/>
      <point x="124" y="469" type="line"/>
      <point x="62" y="181" type="line"/>
      <point x="177" y="66" type="line"/>
    </contour>
    <contour>
      <point x="554" y="161" type="line"/>
      <point x="294" y="421" type="line"/>
      <point x="172" y="300" type="line"/>
      <point x="432" y="39" type="line"/>
    </contour>
  </outline>
</glyph>
<glyph name="southWestArrow" format="1">
  <advance width="600"/>
  <unicode hex="2199"/>
  <outline>
    <contour>
      <point x="252" y="229" type="line"/>
      <point x="177" y="505" type="line"/>
      <point x="61" y="389" type="line"/>
      <point x="124" y="101" type="line"/>
      <point x="412" y="39" type="line"/>
      <point x="527" y="154" type="line"/>
    </contour>
    <contour>
      <point x="432" y="531" type="line"/>
      <point x="172" y="271" type="line"/>
      <point x="293" y="149" type="line"/>
      <point x="554" y="409" type="line"/>
    </contour>
  </outline>
</glyph>
<glyph name="partialdiff" format="1">
  <advance width="700"/>
  <unicode hex="2202"/>
  <outline>
    <contour>
      <point x="529" y="-16"/>
      <point x="683" y="189"/>
      <point x="683" y="437" type="curve" smooth="yes"/>
      <point x="683" y="637"/>
      <point x="547" y="758"/>
      <point x="339" y="758" type="curve" smooth="yes"/>
      <point x="282" y="758"/>
      <point x="224" y="752"/>
      <point x="180" y="737" type="curve"/>
      <point x="168" y="558" type="line"/>
      <point x="211" y="571"/>
      <point x="253" y="576"/>
      <point x="289" y="576" type="curve" smooth="yes"/>
      <point x="413" y="576"/>
      <point x="471" y="499"/>
      <point x="449" y="387" type="curve" smooth="yes"/>
      <point x="441" y="347"/>
      <point x="438" y="328"/>
      <point x="434" y="308" type="curve"/>
      <point x="495" y="335" type="line"/>
      <point x="468" y="414"/>
      <point x="405" y="453"/>
      <point x="307" y="453" type="curve" smooth="yes"/>
      <point x="146" y="453"/>
      <point x="27" y="345"/>
      <point x="27" y="194" type="curve" smooth="yes"/>
      <point x="27" y="72"/>
      <point x="124" y="-16"/>
      <point x="283" y="-16" type="curve" smooth="yes"/>
    </contour>
    <contour>
      <point x="278" y="147"/>
      <point x="250" y="173"/>
      <point x="250" y="213" type="curve" smooth="yes"/>
      <point x="250" y="258"/>
      <point x="284" y="290"/>
      <point x="334" y="290" type="curve" smooth="yes"/>
      <point x="377" y="290"/>
      <point x="405" y="265"/>
      <point x="405" y="224" type="curve" smooth="yes"/>
      <point x="405" y="178"/>
      <point x="371" y="147"/>
      <point x="321" y="147" type="curve" smooth="yes"/>
    </contour>
  </outline>
</glyph>
<glyph name="emptyset" format="1">
  <advance width="620"/>
  <unicode hex="2205"/>
  <outline>
    <contour>
      <point x="618" y="569" type="line"/>
      <point x="563" y="628" type="line"/>
      <point x="28" y="132" type="line"/>
      <point x="83" y="73" type="line"/>
    </contour>
    <contour>
      <point x="469" y="101"/>
      <point x="585" y="214"/>
      <point x="585" y="352" type="curve" smooth="yes"/>
      <point x="585" y="490"/>
      <point x="469" y="602"/>
      <point x="326" y="602" type="curve" smooth="yes"/>
      <point x="183" y="602"/>
      <point x="68" y="490"/>
      <point x="68" y="352" type="curve" smooth="yes"/>
      <point x="68" y="214"/>
      <point x="183" y="101"/>
      <point x="326" y="101" type="curve" smooth="yes"/>
    </contour>
    <contour>
      <point x="264" y="240"/>
      <point x="215" y="290"/>
      <point x="215" y="352" type="curve" smooth="yes"/>
      <point x="215" y="413"/>
      <point x="264" y="463"/>
      <point x="326" y="463" type="curve" smooth="yes"/>
      <point x="388" y="463"/>
      <point x="438" y="413"/>
      <point x="438" y="352" type="curve" smooth="yes"/>
      <point x="438" y="290"/>
      <point x="388" y="240"/>
      <point x="326" y="240" type="curve" smooth="yes"/>
    </contour>
  </outline>
</glyph>
<glyph name="product" format="1">
  <advance width="804"/>
  <unicode hex="220F"/>
  <outline>
    <contour>
      <point x="200" y="-194" type="line"/>
      <point x="340" y="506" type="line"/>
      <point x="557" y="506" type="line"/>
      <point x="417" y="-194" type="line"/>
      <point x="653" y="-194" type="line"/>
      <point x="832" y="700" type="line"/>
      <point x="143" y="700" type="line"/>
      <point x="-36" y="-194" type="line"/>
    </contour>
  </outline>
</glyph>
<glyph name="summation" format="1">
  <advance width="687"/>
  <unicode hex="2211"/>
  <outline>
    <contour>
      <point x="581" y="-194" type="line"/>
      <point x="618" y="-11" type="line"/>
      <point x="181" y="-11" type="line"/>
      <point x="215" y="-86" type="line"/>
      <point x="513" y="181" type="line"/>
      <point x="542" y="326" type="line"/>
      <point x="347" y="595" type="line"/>
      <point x="302" y="517" type="line"/>
      <point x="713" y="517" type="line"/>
      <point x="750" y="700" type="line"/>
      <point x="133" y="700" type="line"/>
      <point x="104" y="555" type="line"/>
      <point x="377" y="176" type="line"/>
      <point x="389" y="333" type="line"/>
      <point x="-33" y="-49" type="line"/>
      <point x="-62" y="-194" type="line"/>
    </contour>
  </outline>
</glyph>
<glyph name="radical" format="1">
  <advance width="840"/>
  <unicode hex="221A"/>
  <outline>
    <contour>
      <point x="369" y="12" type="line"/>
      <point x="413" y="12" type="line"/>
      <point x="377" y="435" type="line"/>
      <point x="87" y="435" type="line"/>
      <point x="53" y="265" type="line"/>
      <point x="185" y="265" type="line"/>
      <point x="239" y="-194" type="line"/>
      <point x="473" y="-194" type="line"/>
      <point x="952" y="742" type="line"/>
      <point x="737" y="742" type="line"/>
    </contour>
  </outline>
</glyph>
<glyph name="infinity" format="1">
  <advance width="931"/>
  <unicode hex="221E"/>
  <outline>
    <contour>
      <point x="814" y="122"/>
      <point x="926" y="225"/>
      <point x="926" y="371" type="curve" smooth="yes"/>
      <point x="926" y="496"/>
      <point x="843" y="578"/>
      <point x="715" y="578" type="curve" smooth="yes"/>
      <point x="453" y="578"/>
      <point x="419" y="274"/>
      <point x="276" y="274" type="curve" smooth="yes"/>
      <point x="233" y="274"/>
      <point x="210" y="301"/>
      <point x="210" y="344" type="curve" smooth="yes"/>
      <point x="210" y="392"/>
      <point x="246" y="426"/>
      <point x="289" y="426" type="curve" smooth="yes"/>
      <point x="435" y="426"/>
      <point x="402" y="122"/>
      <point x="674" y="122" type="curve" smooth="yes"/>
    </contour>
    <contour>
      <point x="507" y="122"/>
      <point x="542" y="426"/>
      <point x="685" y="426" type="curve" smooth="yes"/>
      <point x="729" y="426"/>
      <point x="751" y="400"/>
      <point x="751" y="357" type="curve" smooth="yes"/>
      <point x="751" y="309"/>
      <point x="716" y="274"/>
      <point x="672" y="274" type="curve" smooth="yes"/>
      <point x="526" y="274"/>
      <point x="558" y="578"/>
      <point x="286" y="578" type="curve" smooth="yes"/>
      <point x="142" y="578"/>
      <point x="35" y="471"/>
      <point x="35" y="327" type="curve" smooth="yes"/>
      <point x="35" y="204"/>
      <point x="118" y="122"/>
      <point x="245" y="122" type="curve" smooth="yes"/>
    </contour>
  </outline>
</glyph>
<glyph name="integral" format="1">
  <advance width="476"/>
  <unicode hex="222B"/>
  <outline>
    <contour>
      <point x="187" y="-204"/>
      <point x="272" y="-123"/>
      <point x="302" y="28" type="curve" smooth="yes"/>
      <point x="401" y="524" type="line" smooth="yes"/>
      <point x="409" y="568"/>
      <point x="435" y="587"/>
      <point x="462" y="587" type="curve" smooth="yes"/>
      <point x="480" y="587"/>
      <point x="495" y="582"/>
      <point x="509" y="574" type="curve"/>
      <point x="594" y="731" type="line"/>
      <point x="563" y="749"/>
      <point x="513" y="758"/>
      <point x="460" y="758" type="curve" smooth="yes"/>
      <point x="299" y="758"/>
      <point x="205" y="677"/>
      <point x="175" y="526" type="curve" smooth="yes"/>
      <point x="76" y="30" type="line" smooth="yes"/>
      <point x="67" y="-14"/>
      <point x="41" y="-33"/>
      <point x="14" y="-33" type="curve" smooth="yes"/>
      <point x="-4" y="-33"/>
      <point x="-19" y="-28"/>
      <point x="-32" y="-20" type="curve"/>
      <point x="-117" y="-177" type="line"/>
      <point x="-86" y="-195"/>
      <point x="-37" y="-204"/>
      <point x="16" y="-204" type="curve" smooth="yes"/>
    </contour>
  </outline>
</glyph>
<glyph name="approxequal" format="1">
  <advance width="620"/>
  <unicode hex="2248"/>
  <outline>
    <contour>
      <point x="536" y="363"/>
      <point x="622" y="445"/>
      <point x="642" y="584" type="curve"/>
      <point x="504" y="584" type="line"/>
      <point x="497" y="544"/>
      <point x="475" y="521"/>
      <point x="443" y="521" type="curve" smooth="yes"/>
      <point x="398" y="521"/>
      <point x="357" y="596"/>
      <point x="266" y="596" type="curve" smooth="yes"/>
      <point x="167" y="596"/>
      <point x="80" y="514"/>
      <point x="60" y="375" type="curve"/>
      <point x="198" y="375" type="line"/>
      <point x="205" y="415"/>
      <point x="228" y="438"/>
      <point x="260" y="438" type="curve" smooth="yes"/>
      <point x="305" y="438"/>
      <point x="346" y="363"/>
      <point x="437" y="363" type="curve" smooth="yes"/>
    </contour>
    <contour>
      <point x="484" y="104"/>
      <point x="570" y="186"/>
      <point x="590" y="325" type="curve"/>
      <point x="452" y="325" type="line"/>
      <point x="445" y="285"/>
      <point x="423" y="262"/>
      <point x="391" y="262" type="curve" smooth="yes"/>
      <point x="346" y="262"/>
      <point x="305" y="337"/>
      <point x="214" y="337" type="curve" smooth="yes"/>
      <point x="115" y="337"/>
      <point x="28" y="255"/>
      <point x="8" y="116" type="curve"/>
      <point x="146" y="116" type="line"/>
      <point x="153" y="156"/>
      <point x="176" y="179"/>
      <point x="208" y="179" type="curve" smooth="yes"/>
      <point x="253" y="179"/>
      <point x="294" y="104"/>
      <point x="385" y="104" type="curve" smooth="yes"/>
    </contour>
  </outline>
</glyph>
<glyph name="notequal" format="1">
  <advance width="620"/>
  <unicode hex="2260"/>
  <outline>
    <contour>
      <point x="200" y="35" type="line"/>
      <point x="638" y="665" type="line"/>
      <point x="450" y="665" type="line"/>
      <point x="12" y="35" type="line"/>
    </contour>
    <contour>
      <point x="537" y="135" type="line"/>
      <point x="571" y="305" type="line"/>
      <point x="61" y="305" type="line"/>
      <point x="27" y="135" type="line"/>
    </contour>
    <contour>
      <point x="589" y="395" type="line"/>
      <point x="623" y="565" type="line"/>
      <point x="113" y="565" type="line"/>
      <point x="79" y="395" type="line"/>
    </contour>
  </outline>
</glyph>
<glyph name="lessequal" format="1">
  <advance width="620"/>
  <unicode hex="2264"/>
  <outline>
    <contour>
      <point x="581" y="355" type="line"/>
      <point x="162" y="502" type="line"/>
      <point x="138" y="382" type="line"/>
      <point x="615" y="529" type="line"/>
      <point x="651" y="705" type="line"/>
      <point x="107" y="537" type="line"/>
      <point x="73" y="363" type="line"/>
      <point x="549" y="195" type="line"/>
    </contour>
    <contour>
      <point x="510" y="0" type="line"/>
      <point x="544" y="170" type="line"/>
      <point x="34" y="170" type="line"/>
      <point x="0" y="0" type="line"/>
    </contour>
  </outline>
</glyph>
<glyph name="greaterequal" format="1">
  <advance width="620"/>
  <unicode hex="2265"/>
  <outline>
    <contour>
      <point x="583" y="363" type="line"/>
      <point x="617" y="537" type="line"/>
      <point x="141" y="705" type="line"/>
      <point x="109" y="545" type="line"/>
      <point x="528" y="398" type="line"/>
      <point x="552" y="518" type="line"/>
      <point x="75" y="371" type="line"/>
      <point x="39" y="195" type="line"/>
    </contour>
    <contour>
      <point x="544" y="170" type="line"/>
      <point x="34" y="170" type="line"/>
      <point x="0" y="0" type="line"/>
      <point x="510" y="0" type="line"/>
    </contour>
  </outline>
</glyph>
<glyph name="whiteSquare" format="1">
  <advance width="600"/>
  <unicode hex="25A1"/>
  <outline>
    <contour>
      <point x="494" y="71" type="line"/>
      <point x="494" y="459" type="line"/>
      <point x="106" y="459" type="line"/>
      <point x="106" y="71" type="line"/>
    </contour>
    <contour>
      <point x="218" y="347" type="line"/>
      <point x="382" y="347" type="line"/>
      <point x="382" y="183" type="line"/>
      <point x="218" y="183" type="line"/>
    </contour>
  </outline>
</glyph>
<glyph name="rightWhiteTriangle" format="1">
  <advance width="600"/>
  <unicode hex="25B7"/>
  <outline>
    <contour>
      <point x="115" y="53" type="line"/>
      <point x="541" y="266" type="line"/>
      <point x="115" y="479" type="line"/>
    </contour>
    <contour>
      <point x="345" y="266" type="line"/>
      <point x="203" y="195" type="line"/>
      <point x="203" y="337" type="line"/>
    </contour>
  </outline>
</glyph>
<glyph name="downWhiteTriangle" format="1">
  <advance width="600"/>
  <unicode hex="25BD"/>
  <outline>
    <contour>
      <point x="300" y="52" type="line"/>
      <point x="513" y="478" type="line"/>
      <point x="87" y="478" type="line"/>
    </contour>
    <contour>
      <point x="371" y="390" type="line"/>
      <point x="300" y="248" type="line"/>
      <point x="229" y="390" type="line"/>
    </contour>
  </outline>
</glyph>
<glyph name="leftBlackTriangle" format="1">
  <advance width="600"/>
  <unicode hex="25C0"/>
  <outline>
    <contour>
      <point x="484" y="478" type="line"/>
      <point x="58" y="265" type="line"/>
      <point x="484" y="52" type="line"/>
    </contour>
  </outline>
</glyph>
<glyph name="whiteDiamond" format="1">
  <advance width="600"/>
  <unicode hex="25C7"/>
  <outline>
    <contour>
      <point x="300" y="-9" type="line"/>
      <point x="574" y="265" type="line"/>
      <point x="300" y="540" type="line"/>
      <point x="25" y="265" type="line"/>
    </contour>
    <contour>
      <point x="300" y="381" type="line"/>
      <point x="415" y="265" type="line"/>
      <point x="300" y="149" type="line"/>
      <point x="184" y="265" type="line"/>
    </contour>
  </outline>
</glyph>
<glyph name="lozenge" format="1">
  <advance width="494"/>
  <unicode hex="25CA"/>
  <outline>
    <contour>
      <point x="473" y="330" type="line"/>
      <point x="248" y="666" type="line"/>
      <point x="21" y="330" type="line"/>
      <point x="246" y="-9" type="line"/>
    </contour>
    <contour>
      <point x="164" y="330" type="line"/>
      <point x="247" y="453" type="line"/>
      <point x="330" y="330" type="line"/>
      <point x="247" y="205" type="line"/>
    </contour>
  </outline>
</glyph>
<glyph name="Saltillo" format="1">
  <advance width="342"/>
  <unicode hex="A78B"/>
  <outline>
    <contour>
      <point x="261" y="296" type="line"/>
      <point x="372" y="701" type="line"/>
      <point x="140" y="701" type="line"/>
      <point x="59" y="296" type="line"/>
    </contour>
  </outline>
</glyph>
<glyph name="saltillo" format="1">
  <advance width="334"/>
  <unicode hex="A78C"/>
  <outline>
    <contour>
      <point x="253" y="296" type="line"/>
      <point x="364" y="701" type="line"/>
      <point x="140" y="701" type="line"/>
      <point x="59" y="296" type="line"/>
    </contour>
  </outline>
</glyph>
<glyph name="A.ss01" format="1">
  <advance width="792"/>
  <outline>
    <contour>
      <point x="228" y="0" type="line"/>
      <point x="306" y="391" type="line" smooth="yes"/>
      <point x="325" y="486"/>
      <point x="371" y="525"/>
      <point x="439" y="525" type="curve" smooth="yes"/>
      <point x="511" y="525"/>
      <point x="546" y="480"/>
      <point x="526" y="381" type="curve" smooth="yes"/>
      <point x="450" y="0" type="line"/>
      <point x="686" y="0" type="line"/>
      <point x="759" y="365" type="line" smooth="yes"/>
      <point x="803" y="584"/>
      <point x="679" y="716"/>
      <point x="463" y="716" type="curve" smooth="yes"/>
      <point x="256" y="716"/>
      <point x="117" y="605"/>
      <point x="75" y="395" type="curve" smooth="yes"/>
      <point x="-4" y="0" type="line"/>
    </contour>
    <contour>
      <point x="562" y="141" type="line"/>
      <point x="598" y="319" type="line"/>
      <point x="208" y="319" type="line"/>
      <point x="172" y="141" type="line"/>
    </contour>
    <contour>
      <point x="686" y="0" type="move" name="ogonek"/>
    </contour>
    <contour>
      <point x="481" y="700" type="move" name="top"/>
    </contour>
    <contour>
      <point x="136" y="700" type="move" name="topleft"/>
    </contour>
    <contour>
      <point x="341" y="0" type="move" name="bottom"/>
    </contour>
  </outline>
</glyph>
<glyph name="Adieresis.alt" format="1">
  <advance width="806"/>
  <outline>
    <contour>
      <point x="175" y="0" type="line"/>
      <point x="514" y="591" type="line"/>
      <point x="422" y="591" type="line"/>
      <point x="535" y="0" type="line"/>
      <point x="770" y="0" type="line"/>
      <point x="604" y="700" type="line"/>
      <point x="372" y="700" type="line"/>
      <point x="-74" y="0" type="line"/>
    </contour>
    <contour>
      <point x="574" y="122" type="line"/>
      <point x="548" y="292" type="line"/>
      <point x="226" y="292" type="line"/>
      <point x="132" y="122" type="line"/>
    </contour>
    <contour>
      <point x="227" y="523"/>
      <point x="271" y="563"/>
      <point x="271" y="623" type="curve" smooth="yes"/>
      <point x="271" y="667"/>
      <point x="238" y="700"/>
      <point x="186" y="700" type="curve" smooth="yes"/>
      <point x="131" y="700"/>
      <point x="87" y="661"/>
      <point x="87" y="601" type="curve" smooth="yes"/>
      <point x="87" y="556"/>
      <point x="121" y="523"/>
      <point x="172" y="523" type="curve" smooth="yes"/>
    </contour>
    <contour>
      <point x="809" y="523"/>
      <point x="853" y="563"/>
      <point x="853" y="623" type="curve" smooth="yes"/>
      <point x="853" y="667"/>
      <point x="820" y="700"/>
      <point x="768" y="700" type="curve" smooth="yes"/>
      <point x="713" y="700"/>
      <point x="669" y="661"/>
      <point x="669" y="601" type="curve" smooth="yes"/>
      <point x="669" y="556"/>
      <point x="703" y="523"/>
      <point x="754" y="523" type="curve" smooth="yes"/>
    </contour>
  </outline>
</glyph>
<glyph name="E.ss01" format="1">
  <advance width="695"/>
  <outline>
    <contour>
      <point x="458" y="-16"/>
      <point x="575" y="9"/>
      <point x="651" y="48" type="curve"/>
      <point x="601" y="216" type="line"/>
      <point x="543" y="185"/>
      <point x="462" y="164"/>
      <point x="383" y="164" type="curve" smooth="yes"/>
      <point x="288" y="164"/>
      <point x="252" y="183"/>
      <point x="252" y="215" type="curve" smooth="yes"/>
      <point x="252" y="248"/>
      <point x="285" y="266"/>
      <point x="330" y="266" type="curve" smooth="yes"/>
      <point x="561" y="266" type="line"/>
      <point x="596" y="440" type="line"/>
      <point x="404" y="440" type="line" smooth="yes"/>
      <point x="355" y="440"/>
      <point x="334" y="453"/>
      <point x="334" y="475" type="curve" smooth="yes"/>
      <point x="334" y="511"/>
      <point x="372" y="536"/>
      <point x="459" y="536" type="curve" smooth="yes"/>
      <point x="519" y="536"/>
      <point x="594" y="527"/>
      <point x="660" y="498" type="curve"/>
      <point x="735" y="667" type="line"/>
      <point x="676" y="697"/>
      <point x="583" y="716"/>
      <point x="475" y="716" type="curve" smooth="yes"/>
      <point x="246" y="716"/>
      <point x="98" y="620"/>
      <point x="98" y="471" type="curve" smooth="yes"/>
      <point x="98" y="400"/>
      <point x="154" y="335"/>
      <point x="277" y="335" type="curve"/>
      <point x="282" y="387" type="line"/>
      <point x="126" y="387"/>
      <point x="10" y="311"/>
      <point x="10" y="180" type="curve" smooth="yes"/>
      <point x="10" y="57"/>
      <point x="134" y="-16"/>
      <point x="345" y="-16" type="curve" smooth="yes"/>
    </contour>
    <contour>
      <point x="590" y="0" type="move" name="ogonek"/>
    </contour>
    <contour>
      <point x="460" y="700" type="move" name="top"/>
    </contour>
    <contour>
      <point x="82" y="700" type="move" name="topleft"/>
    </contour>
    <contour>
      <point x="320" y="0" type="move" name="bottom"/>
    </contour>
  </outline>
</glyph>
<glyph name="Eng.ss01" format="1">
  <advance width="794"/>
  <outline>
    <contour>
      <point x="454" y="716"/>
      <point x="369" y="670"/>
      <point x="314" y="581" type="curve"/>
      <point x="338" y="536" type="line"/>
      <point x="371" y="700" type="line"/>
      <point x="142" y="700" type="line"/>
      <point x="2" y="0" type="line"/>
      <point x="238" y="0" type="line"/>
      <point x="316" y="390" type="line" smooth="yes"/>
      <point x="336" y="489"/>
      <point x="389" y="525"/>
      <point x="450" y="525" type="curve" smooth="yes"/>
      <point x="518" y="525"/>
      <point x="548" y="480"/>
      <point x="530" y="389" type="curve" smooth="yes"/>
      <point x="465" y="67" type="line" smooth="yes"/>
      <point x="452" y="1"/>
      <point x="425" y="-20"/>
      <point x="380" y="-20" type="curve" smooth="yes"/>
      <point x="352" y="-20"/>
      <point x="326" y="-11"/>
      <point x="303" y="5" type="curve"/>
      <point x="182" y="-148" type="line"/>
      <point x="232" y="-184"/>
      <point x="299" y="-204"/>
      <point x="375" y="-204" type="curve" smooth="yes"/>
      <point x="543" y="-204"/>
      <point x="660" y="-142"/>
      <point x="708" y="100" type="curve" smooth="yes"/>
      <point x="767" y="395" type="line" smooth="yes"/>
      <point x="807" y="595"/>
      <point x="725" y="716"/>
      <point x="548" y="716" type="curve" smooth="yes"/>
    </contour>
  </outline>
</glyph>
<glyph name="F.ss01" format="1">
  <advance width="625"/>
  <outline>
    <contour>
      <point x="232" y="0" type="line"/>
      <point x="315" y="415" type="line" smooth="yes"/>
      <point x="330" y="490"/>
      <point x="385" y="525"/>
      <point x="470" y="525" type="curve" smooth="yes"/>
      <point x="510" y="525"/>
      <point x="558" y="516"/>
      <point x="592" y="495" type="curve"/>
      <point x="693" y="669" type="line"/>
      <point x="641" y="699"/>
      <point x="554" y="716"/>
      <point x="481" y="716" type="curve" smooth="yes"/>
      <point x="249" y="716"/>
      <point x="118" y="611"/>
      <point x="78" y="410" type="curve" smooth="yes"/>
      <point x="-4" y="0" type="line"/>
    </contour>
    <contour>
      <point x="524" y="224" type="line"/>
      <point x="560" y="402" type="line"/>
      <point x="221" y="402" type="line"/>
      <point x="185" y="224" type="line"/>
    </contour>
  </outline>
</glyph>
<glyph name="G.ss01" format="1">
  <advance width="769"/>
  <outline>
    <contour>
      <point x="468" y="-16"/>
      <point x="551" y="32"/>
      <point x="631" y="179" type="curve"/>
      <point x="548" y="231" type="line"/>
      <point x="510" y="197"/>
      <point x="468" y="171"/>
      <point x="412" y="171" type="curve" smooth="yes"/>
      <point x="328" y="171"/>
      <point x="279" y="225"/>
      <point x="279" y="312" type="curve" smooth="yes"/>
      <point x="279" y="437"/>
      <point x="357" y="525"/>
      <point x="480" y="525" type="curve" smooth="yes"/>
      <point x="546" y="525"/>
      <point x="595" y="506"/>
      <point x="640" y="448" type="curve"/>
      <point x="809" y="579" type="line"/>
      <point x="743" y="669"/>
      <point x="629" y="716"/>
      <point x="491" y="716" type="curve" smooth="yes"/>
      <point x="224" y="716"/>
      <point x="41" y="543"/>
      <point x="41" y="294" type="curve" smooth="yes"/>
      <point x="41" y="101"/>
      <point x="183" y="-16"/>
      <point x="347" y="-16" type="curve" smooth="yes"/>
    </contour>
    <contour>
      <point x="670" y="0" type="line"/>
      <point x="744" y="369" type="line"/>
      <point x="539" y="369" type="line"/>
      <point x="488" y="115" type="line"/>
      <point x="536" y="90" type="line"/>
      <point x="518" y="0" type="line"/>
    </contour>
    <contour>
      <point x="509" y="701" type="move" name="top"/>
    </contour>
    <contour>
      <point x="356" y="3" type="move" name="bottom"/>
    </contour>
  </outline>
</glyph>
<glyph name="I.ss01" format="1">
  <advance width="516"/>
  <outline>
    <contour>
      <point x="325" y="20" type="line"/>
      <point x="457" y="681" type="line"/>
      <point x="221" y="681" type="line"/>
      <point x="89" y="20" type="line"/>
    </contour>
    <contour>
      <point x="426" y="0" type="line"/>
      <point x="462" y="178" type="line"/>
      <point x="16" y="178" type="line"/>
      <point x="-20" y="0" type="line"/>
    </contour>
    <contour>
      <point x="530" y="522" type="line"/>
      <point x="566" y="700" type="line"/>
      <point x="120" y="700" type="line"/>
      <point x="84" y="522" type="line"/>
    </contour>
    <contour>
      <point x="321" y="0" type="move" name="ogonek"/>
    </contour>
    <contour>
      <point x="343" y="700" type="move" name="top"/>
    </contour>
    <contour>
      <point x="65" y="700" type="move" name="topleft"/>
    </contour>
    <contour>
      <point x="203" y="0" type="move" name="bottom"/>
    </contour>
  </outline>
</glyph>
<glyph name="Iacute_J.loclNLD.ss01" format="1">
  <advance width="729"/>
  <outline>
    <contour>
      <point x="489" y="-110"/>
      <point x="621" y="-8"/>
      <point x="665" y="211" type="curve" smooth="yes"/>
      <point x="763" y="700" type="line"/>
      <point x="527" y="700" type="line"/>
      <point x="431" y="218" type="line" smooth="yes"/>
      <point x="411" y="115"/>
      <point x="371" y="78"/>
      <point x="288" y="78" type="curve" smooth="yes"/>
      <point x="221" y="78"/>
      <point x="151" y="100"/>
      <point x="87" y="144" type="curve"/>
      <point x="-27" y="-25" type="line"/>
      <point x="47" y="-77"/>
      <point x="144" y="-110"/>
      <point x="278" y="-110" type="curve" smooth="yes"/>
    </contour>
    <contour>
      <point x="279" y="236" type="line"/>
      <point x="372" y="700" type="line"/>
      <point x="136" y="700" type="line"/>
      <point x="43" y="236" type="line"/>
    </contour>
    <contour>
      <point x="310" y="757" type="line"/>
      <point x="539" y="917" type="line"/>
      <point x="324" y="917" type="line"/>
      <point x="160" y="757" type="line"/>
    </contour>
    <contour>
      <point x="700" y="757" type="line"/>
      <point x="929" y="917" type="line"/>
      <point x="714" y="917" type="line"/>
      <point x="550" y="757" type="line"/>
    </contour>
  </outline>
</glyph>
<glyph name="J.ss01" format="1">
  <advance width="574"/>
  <outline>
    <contour>
      <point x="354" y="-116"/>
      <point x="460" y="-41"/>
      <point x="500" y="160" type="curve" smooth="yes"/>
      <point x="608" y="700" type="line"/>
      <point x="137" y="700" type="line"/>
      <point x="101" y="522" type="line"/>
      <point x="339" y="522" type="line"/>
      <point x="264" y="146" type="line" smooth="yes"/>
      <point x="254" y="97"/>
      <point x="225" y="69"/>
      <point x="180" y="69" type="curve" smooth="yes"/>
      <point x="138" y="69"/>
      <point x="104" y="91"/>
      <point x="73" y="135" type="curve"/>
      <point x="-78" y="-8" type="line"/>
      <point x="-26" y="-80"/>
      <point x="58" y="-116"/>
      <point x="176" y="-116" type="curve" smooth="yes"/>
    </contour>
    <contour>
      <point x="373" y="700" type="move" name="top"/>
    </contour>
  </outline>
</glyph>
<glyph name="M.ss01" format="1">
  <advance width="1156"/>
  <outline>
    <contour>
      <point x="238" y="0" type="line"/>
      <point x="320" y="410" type="line" smooth="yes"/>
      <point x="337" y="496"/>
      <point x="377" y="525"/>
      <point x="428" y="525" type="curve" smooth="yes"/>
      <point x="478" y="525"/>
      <point x="507" y="494"/>
      <point x="492" y="418" type="curve" smooth="yes"/>
      <point x="408" y="0" type="line"/>
      <point x="644" y="0" type="line"/>
      <point x="726" y="410" type="line" smooth="yes"/>
      <point x="743" y="496"/>
      <point x="783" y="525"/>
      <point x="834" y="525" type="curve" smooth="yes"/>
      <point x="884" y="525"/>
      <point x="913" y="494"/>
      <point x="898" y="418" type="curve" smooth="yes"/>
      <point x="814" y="0" type="line"/>
      <point x="1050" y="0" type="line"/>
      <point x="1133" y="415" type="line" smooth="yes"/>
      <point x="1173" y="615"/>
      <point x="1087" y="716"/>
      <point x="932" y="716" type="curve" smooth="yes"/>
      <point x="821" y="716"/>
      <point x="727" y="662"/>
      <point x="676" y="565" type="curve"/>
      <point x="736" y="552" type="line"/>
      <point x="724" y="660"/>
      <point x="651" y="716"/>
      <point x="544" y="716" type="curve" smooth="yes"/>
      <point x="440" y="716"/>
      <point x="367" y="670"/>
      <point x="317" y="576" type="curve"/>
      <point x="336" y="538" type="line"/>
      <point x="369" y="700" type="line"/>
      <point x="142" y="700" type="line"/>
      <point x="2" y="0" type="line"/>
    </contour>
    <contour>
      <point x="666" y="700" type="move" name="top"/>
    </contour>
    <contour>
      <point x="526" y="0" type="move" name="bottom"/>
    </contour>
  </outline>
</glyph>
<glyph name="N.ss01" format="1">
  <advance width="794"/>
  <outline>
    <contour>
      <point x="454" y="716"/>
      <point x="369" y="670"/>
      <point x="314" y="581" type="curve"/>
      <point x="338" y="536" type="line"/>
      <point x="371" y="700" type="line"/>
      <point x="142" y="700" type="line"/>
      <point x="2" y="0" type="line"/>
      <point x="238" y="0" type="line"/>
      <point x="316" y="390" type="line" smooth="yes"/>
      <point x="336" y="489"/>
      <point x="389" y="525"/>
      <point x="450" y="525" type="curve" smooth="yes"/>
      <point x="518" y="525"/>
      <point x="548" y="480"/>
      <point x="530" y="389" type="curve" smooth="yes"/>
      <point x="452" y="0" type="line"/>
      <point x="688" y="0" type="line"/>
      <point x="767" y="395" type="line" smooth="yes"/>
      <point x="807" y="595"/>
      <point x="725" y="716"/>
      <point x="548" y="716" type="curve" smooth="yes"/>
    </contour>
    <contour>
      <point x="485" y="700" type="move" name="top"/>
    </contour>
    <contour>
      <point x="345" y="0" type="move" name="bottom"/>
    </contour>
  </outline>
</glyph>
<glyph name="Q.ss01" format="1">
  <advance width="848"/>
  <outline>
    <contour>
      <point x="653" y="-16"/>
      <point x="837" y="156"/>
      <point x="837" y="403" type="curve" smooth="yes"/>
      <point x="837" y="587"/>
      <point x="700" y="716"/>
      <point x="482" y="716" type="curve" smooth="yes"/>
      <point x="225" y="716"/>
      <point x="41" y="544"/>
      <point x="41" y="297" type="curve" smooth="yes"/>
      <point x="41" y="113"/>
      <point x="178" y="-16"/>
      <point x="396" y="-16" type="curve" smooth="yes"/>
    </contour>
    <contour>
      <point x="460" y="-135" type="line"/>
      <point x="492" y="25" type="line"/>
      <point x="495" y="92" type="line"/>
      <point x="540" y="315" type="line"/>
      <point x="323" y="315" type="line"/>
      <point x="278" y="92" type="line"/>
      <point x="256" y="25" type="line"/>
      <point x="224" y="-135" type="line"/>
    </contour>
    <contour>
      <point x="330" y="175"/>
      <point x="279" y="230"/>
      <point x="279" y="311" type="curve" smooth="yes"/>
      <point x="279" y="426"/>
      <point x="346" y="525"/>
      <point x="462" y="525" type="curve" smooth="yes"/>
      <point x="548" y="525"/>
      <point x="599" y="470"/>
      <point x="599" y="389" type="curve" smooth="yes"/>
      <point x="599" y="274"/>
      <point x="532" y="175"/>
      <point x="416" y="175" type="curve" smooth="yes"/>
    </contour>
    <contour>
      <point x="510" y="700" type="move" name="top"/>
    </contour>
  </outline>
</glyph>
<glyph name="Schwa.ss01" format="1">
  <advance width="818"/>
  <outline>
    <contour>
      <point x="623" y="-16"/>
      <point x="804" y="138"/>
      <point x="804" y="393" type="curve" smooth="yes"/>
      <point x="804" y="587"/>
      <point x="657" y="716"/>
      <point x="440" y="716" type="curve" smooth="yes"/>
      <point x="321" y="716"/>
      <point x="206" y="678"/>
      <point x="119" y="604" type="curve"/>
      <point x="228" y="451" type="line"/>
      <point x="286" y="500"/>
      <point x="352" y="525"/>
      <point x="422" y="525" type="curve" smooth="yes"/>
      <point x="511" y="525"/>
      <point x="567" y="474"/>
      <point x="567" y="391" type="curve" smooth="yes"/>
      <point x="567" y="318"/>
      <point x="542" y="157"/>
      <point x="400" y="157" type="curve" smooth="yes"/>
      <point x="302" y="157"/>
      <point x="251" y="223"/>
      <point x="276" y="312" type="curve"/>
      <point x="173" y="173" type="line"/>
      <point x="616" y="341" type="line"/>
      <point x="593" y="469" type="line"/>
      <point x="29" y="259" type="line"/>
      <point x="45" y="90"/>
      <point x="193" y="-16"/>
      <point x="393" y="-16" type="curve" smooth="yes"/>
    </contour>
    <contour>
      <point x="494" y="700" type="move" name="top"/>
    </contour>
    <contour>
      <point x="354" y="0" type="move" name="bottom"/>
    </contour>
  </outline>
</glyph>
<glyph name="T.ss01" format="1">
  <advance width="684"/>
  <outline>
    <contour>
      <point x="182" y="504"/>
      <point x="275" y="528"/>
      <point x="373" y="528" type="curve" smooth="yes"/>
      <point x="489" y="528"/>
      <point x="575" y="503"/>
      <point x="665" y="454" type="curve"/>
      <point x="766" y="623" type="line"/>
      <point x="674" y="682"/>
      <point x="546" y="716"/>
      <point x="410" y="716" type="curve" smooth="yes"/>
      <point x="282" y="716"/>
      <point x="139" y="686"/>
      <point x="44" y="628" type="curve"/>
      <point x="102" y="458" type="line"/>
    </contour>
    <contour>
      <point x="405" y="0" type="line"/>
      <point x="526" y="606" type="line"/>
      <point x="290" y="606" type="line"/>
      <point x="169" y="0" type="line"/>
    </contour>
    <contour>
      <point x="346" y="300" type="move" name="center"/>
    </contour>
    <contour>
      <point x="287" y="0" type="move" name="bottom"/>
    </contour>
    <contour>
      <point x="432" y="701" type="move" name="top"/>
    </contour>
  </outline>
</glyph>
<glyph name="T_h" format="1">
  <advance width="1292"/>
  <outline>
    <contour>
      <point x="390" y="0" type="line"/>
      <point x="493" y="517" type="line"/>
      <point x="698" y="517" type="line"/>
      <point x="735" y="700" type="line"/>
      <point x="89" y="700" type="line"/>
      <point x="52" y="517" type="line"/>
      <point x="257" y="517" type="line"/>
      <point x="154" y="0" type="line"/>
    </contour>
    <contour>
      <point x="985" y="557"/>
      <point x="903" y="520"/>
      <point x="851" y="436" type="curve"/>
      <point x="890" y="396" type="line"/>
      <point x="951" y="700" type="line"/>
      <point x="725" y="700" type="line"/>
      <point x="585" y="0" type="line"/>
      <point x="811" y="0" type="line"/>
      <point x="864" y="263" type="line" smooth="yes"/>
      <point x="878" y="334"/>
      <point x="914" y="367"/>
      <point x="965" y="367" type="curve" smooth="yes"/>
      <point x="1006" y="367"/>
      <point x="1031" y="338"/>
      <point x="1018" y="275" type="curve" smooth="yes"/>
      <point x="963" y="0" type="line"/>
      <point x="1189" y="0" type="line"/>
      <point x="1251" y="312" type="line" smooth="yes"/>
      <point x="1283" y="472"/>
      <point x="1200" y="557"/>
      <point x="1070" y="557" type="curve" smooth="yes"/>
    </contour>
  </outline>
</glyph>
<glyph name="U.ss01" format="1">
  <advance width="794"/>
  <outline>
    <contour>
      <point x="370" y="-16"/>
      <point x="455" y="30"/>
      <point x="510" y="119" type="curve"/>
      <point x="486" y="164" type="line"/>
      <point x="453" y="0" type="line"/>
      <point x="682" y="0" type="line"/>
      <point x="822" y="700" type="line"/>
      <point x="586" y="700" type="line"/>
      <point x="508" y="310" type="line" smooth="yes"/>
      <point x="488" y="211"/>
      <point x="435" y="175"/>
      <point x="374" y="175" type="curve" smooth="yes"/>
      <point x="306" y="175"/>
      <point x="276" y="220"/>
      <point x="294" y="311" type="curve" smooth="yes"/>
      <point x="372" y="700" type="line"/>
      <point x="136" y="700" type="line"/>
      <point x="57" y="305" type="line" smooth="yes"/>
      <point x="17" y="105"/>
      <point x="99" y="-16"/>
      <point x="276" y="-16" type="curve" smooth="yes"/>
    </contour>
    <contour>
      <point x="682" y="0" type="move" name="ogonek"/>
    </contour>
    <contour>
      <point x="479" y="700" type="move" name="top"/>
    </contour>
    <contour>
      <point x="717" y="700" type="move" name="topright"/>
    </contour>
    <contour>
      <point x="339" y="0" type="move" name="bottom"/>
    </contour>
  </outline>
</glyph>
<glyph name="Udieresis.ss01.alt" format="1">
  <advance width="794"/>
  <outline>
    <contour>
      <point x="370" y="-16"/>
      <point x="455" y="30"/>
      <point x="510" y="119" type="curve"/>
      <point x="486" y="164" type="line"/>
      <point x="453" y="0" type="line"/>
      <point x="682" y="0" type="line"/>
      <point x="822" y="700" type="line"/>
      <point x="586" y="700" type="line"/>
      <point x="508" y="310" type="line" smooth="yes"/>
      <point x="488" y="211"/>
      <point x="435" y="175"/>
      <point x="374" y="175" type="curve" smooth="yes"/>
      <point x="306" y="175"/>
      <point x="276" y="220"/>
      <point x="294" y="311" type="curve" smooth="yes"/>
      <point x="372" y="700" type="line"/>
      <point x="136" y="700" type="line"/>
      <point x="57" y="305" type="line" smooth="yes"/>
      <point x="17" y="105"/>
      <point x="99" y="-16"/>
      <point x="276" y="-16" type="curve" smooth="yes"/>
    </contour>
    <contour>
      <point x="440" y="533"/>
      <point x="484" y="573"/>
      <point x="484" y="633" type="curve" smooth="yes"/>
      <point x="484" y="677"/>
      <point x="451" y="710"/>
      <point x="399" y="710" type="curve" smooth="yes"/>
      <point x="344" y="710"/>
      <point x="300" y="671"/>
      <point x="300" y="611" type="curve" smooth="yes"/>
      <point x="300" y="566"/>
      <point x="334" y="533"/>
      <point x="385" y="533" type="curve" smooth="yes"/>
    </contour>
    <contour>
      <point x="582" y="533"/>
      <point x="626" y="573"/>
      <point x="626" y="633" type="curve" smooth="yes"/>
      <point x="626" y="677"/>
      <point x="593" y="710"/>
      <point x="541" y="710" type="curve" smooth="yes"/>
      <point x="486" y="710"/>
      <point x="442" y="671"/>
      <point x="442" y="611" type="curve" smooth="yes"/>
      <point x="442" y="566"/>
      <point x="476" y="533"/>
      <point x="527" y="533" type="curve" smooth="yes"/>
    </contour>
  </outline>
</glyph>
<glyph name="W.ss01" format="1">
  <advance width="1150"/>
  <outline>
    <contour>
      <point x="437" y="-16"/>
      <point x="526" y="25"/>
      <point x="589" y="94" type="curve"/>
      <point x="509" y="94" type="line"/>
      <point x="554" y="25"/>
      <point x="627" y="-16"/>
      <point x="730" y="-16" type="curve" smooth="yes"/>
      <point x="946" y="-16"/>
      <point x="1059" y="76"/>
      <point x="1103" y="295" type="curve" smooth="yes"/>
      <point x="1184" y="700" type="line"/>
      <point x="948" y="700" type="line"/>
      <point x="866" y="290" type="line" smooth="yes"/>
      <point x="849" y="204"/>
      <point x="819" y="175"/>
      <point x="761" y="175" type="curve" smooth="yes"/>
      <point x="708" y="175"/>
      <point x="679" y="206"/>
      <point x="694" y="282" type="curve" smooth="yes"/>
      <point x="778" y="700" type="line"/>
      <point x="542" y="700" type="line"/>
      <point x="460" y="290" type="line" smooth="yes"/>
      <point x="443" y="204"/>
      <point x="413" y="175"/>
      <point x="355" y="175" type="curve" smooth="yes"/>
      <point x="302" y="175"/>
      <point x="273" y="206"/>
      <point x="288" y="282" type="curve" smooth="yes"/>
      <point x="372" y="700" type="line"/>
      <point x="136" y="700" type="line"/>
      <point x="55" y="295" type="line" smooth="yes"/>
      <point x="17" y="104"/>
      <point x="135" y="-16"/>
      <point x="324" y="-16" type="curve" smooth="yes"/>
    </contour>
    <contour>
      <point x="660" y="700" type="move" name="top"/>
    </contour>
  </outline>
</glyph>
<glyph name="Y.ss01" format="1">
  <advance width="783"/>
  <outline>
    <contour>
      <point x="539" y="488" type="line" smooth="yes"/>
      <point x="519" y="389"/>
      <point x="466" y="353"/>
      <point x="405" y="353" type="curve" smooth="yes"/>
      <point x="337" y="353"/>
      <point x="307" y="398"/>
      <point x="325" y="489" type="curve" smooth="yes"/>
      <point x="367" y="700" type="line"/>
      <point x="131" y="700" type="line"/>
      <point x="88" y="483" type="line" smooth="yes"/>
      <point x="48" y="283"/>
      <point x="131" y="162"/>
      <point x="307" y="162" type="curve" smooth="yes"/>
      <point x="401" y="162"/>
      <point x="486" y="208"/>
      <point x="541" y="297" type="curve"/>
      <point x="508" y="337" type="line"/>
      <point x="485" y="218" type="line" smooth="yes"/>
      <point x="465" y="115"/>
      <point x="420" y="78"/>
      <point x="332" y="78" type="curve" smooth="yes"/>
      <point x="260" y="78"/>
      <point x="188" y="100"/>
      <point x="121" y="144" type="curve"/>
      <point x="7" y="-25" type="line"/>
      <point x="84" y="-77"/>
      <point x="183" y="-110"/>
      <point x="322" y="-110" type="curve" smooth="yes"/>
      <point x="538" y="-110"/>
      <point x="675" y="-8"/>
      <point x="719" y="211" type="curve" smooth="yes"/>
      <point x="817" y="700" type="line"/>
      <point x="581" y="700" type="line"/>
    </contour>
    <contour>
      <point x="474" y="700" type="move" name="top"/>
    </contour>
    <contour>
      <point x="606" y="0" type="move" name="bottom"/>
    </contour>
  </outline>
</glyph>
<glyph name=".notdef" format="1">
  <advance width="587"/>
  <outline>
    <contour>
      <point x="492" y="0" type="line"/>
      <point x="632" y="700" type="line"/>
      <point x="125" y="700" type="line"/>
      <point x="-15" y="0" type="line"/>
    </contour>
    <contour>
      <point x="191" y="630" type="line"/>
      <point x="538" y="630" type="line"/>
      <point x="426" y="70" type="line"/>
      <point x="79" y="70" type="line"/>
    </contour>
  </outline>
</glyph>
